<svg width="297" height="130" viewBox="0 0 297 130" fill="none" xmlns="http://www.w3.org/2000/svg">
<path d="M92.4483 80.9893V100.628H1.21757L0 85.4211L52.7903 1.73797H72.7063L51.1379 37.8008L24.8732 80.9893H92.4483ZM78.0984 1.73797V128.262H53.0512V1.73797H78.0984Z" fill="#A18E80"/>
<path d="M191.245 53.877V75.7754C191.245 85.2763 190.231 93.4737 188.201 100.368C186.172 107.204 183.244 112.823 179.418 117.226C175.649 121.571 171.156 124.786 165.937 126.872C160.719 128.957 154.921 130 148.543 130C143.441 130 138.687 129.363 134.281 128.088C129.874 126.756 125.902 124.699 122.366 121.918C118.887 119.138 115.872 115.633 113.321 111.404C110.828 107.117 108.914 102.019 107.581 96.1096C106.247 90.2005 105.581 83.4225 105.581 75.7754V53.877C105.581 44.3761 106.595 36.2366 108.625 29.4586C110.712 22.6225 113.64 17.0321 117.408 12.6872C121.235 8.34225 125.758 5.15597 130.976 3.12834C136.194 1.04278 141.992 0 148.37 0C153.472 0 158.197 0.666221 162.546 1.99866C166.952 3.27317 170.924 5.27184 174.46 7.99465C177.997 10.7175 181.012 14.2224 183.505 18.5094C185.998 22.7384 187.912 27.8075 189.245 33.7166C190.579 39.5677 191.245 46.2879 191.245 53.877ZM166.111 79.0775V50.488C166.111 45.9113 165.85 41.914 165.329 38.496C164.865 35.078 164.14 32.1814 163.154 29.8061C162.169 27.373 160.951 25.4033 159.502 23.8971C158.052 22.3908 156.4 21.2901 154.544 20.5949C152.689 19.8997 150.631 19.5521 148.37 19.5521C145.529 19.5521 143.006 20.1025 140.803 21.2032C138.658 22.3039 136.832 24.0709 135.324 26.504C133.817 28.8792 132.657 32.0655 131.845 36.0628C131.092 40.0022 130.715 44.8106 130.715 50.488V79.0775C130.715 83.6542 130.947 87.6805 131.411 91.1564C131.932 94.6324 132.686 97.6159 133.672 100.107C134.715 102.54 135.933 104.539 137.324 106.103C138.774 107.609 140.426 108.71 142.282 109.405C144.195 110.1 146.282 110.448 148.543 110.448C151.327 110.448 153.791 109.897 155.936 108.797C158.139 107.638 159.994 105.842 161.502 103.409C163.067 100.918 164.227 97.6738 164.981 93.6765C165.734 89.6791 166.111 84.8128 166.111 79.0775Z" fill="#A18E80"/>
<path d="M297 80.9893V100.628H205.769L204.552 85.4211L257.342 1.73797H277.258L255.69 37.8008L229.425 80.9893H297ZM282.65 1.73797V128.262H257.603V1.73797H282.65Z" fill="#A18E80"/>
</svg>
