<svg width="24" height="24" viewBox="0 0 24 24" fill="none" xmlns="http://www.w3.org/2000/svg">
<path fill-rule="evenodd" clip-rule="evenodd" d="M9.4406 2.34259C5.74313 3.33561 2.88917 6.43953 2.18231 10.2363C2.03869 11.007 1.9643 11.6761 2.01689 11.7232C2.06948 11.7704 3.24721 11.7246 4.6344 11.6218C9.46936 11.2634 11.2436 9.70868 11.5549 5.55786C11.6234 4.64364 11.7248 3.46628 11.7801 2.94137C11.8767 2.02445 11.8567 1.98785 11.267 2.002C10.9294 2.01008 10.1074 2.16342 9.4406 2.34259ZM12.3427 2.6046C12.3525 4.17148 12.8178 7.43974 13.1482 8.26505C13.6062 9.40828 15.1633 10.8003 16.3973 11.1696C17.285 11.4352 21.7975 11.895 21.9732 11.7378C22.0184 11.6972 21.9438 11.0311 21.8074 10.2574C21.141 6.47881 18.2009 3.30306 14.4706 2.33248C12.5757 1.83945 12.3382 1.86998 12.3427 2.6046ZM2.00003 12.7167C2.00003 13.4289 2.65812 15.6689 3.15079 16.6336C3.89338 18.0873 5.88495 20.0244 7.45442 20.819C8.70856 21.4539 11.5245 22.1971 11.7479 21.9521C11.9156 21.7682 11.4706 17.2968 11.1923 16.3689C10.8226 15.1363 9.42913 13.5809 8.28467 13.1233C7.78122 12.9222 6.43965 12.6597 5.30283 12.54C2.31784 12.2259 2.00003 12.243 2.00003 12.7167ZM18.4551 12.5477C16.2019 12.7839 14.5151 13.6289 13.684 14.9381C12.9371 16.1147 12.6389 17.3316 12.4427 20.0045C12.2784 22.2442 12.1536 22.1382 14.3464 21.6219C17.9317 20.7777 20.8099 17.9064 21.6532 14.3323C21.842 13.5315 21.9982 12.75 22 12.5955C22.0038 12.2825 21.0996 12.2702 18.4551 12.5477Z" fill="#3A6F84"/>
</svg>
