<svg width="24" height="24" viewBox="0 0 24 24" fill="none" xmlns="http://www.w3.org/2000/svg">
<g clip-path="url(#clip0_705_109)">
<path fill-rule="evenodd" clip-rule="evenodd" d="M2.14312 3H21.8571C22.4375 3 22.9398 3.20031 23.3641 3.60072C23.7878 4.00164 24.0001 4.48299 24.0001 5.04553C24.0001 5.71883 23.7811 6.36231 23.3443 6.97577C22.9067 7.58922 22.3622 8.11358 21.7105 8.5481C19.5435 9.98375 17.9083 11.0676 16.7979 11.804C16.1877 12.2085 15.7339 12.5096 15.4426 12.7031C15.3994 12.7321 15.332 12.7779 15.2424 12.8393C15.1458 12.9052 15.0237 12.9892 14.8733 13.0931C14.5831 13.2934 14.3421 13.4553 14.1501 13.579C13.9578 13.7024 13.7258 13.8409 13.4535 13.9944C13.181 14.1479 12.9244 14.2629 12.6834 14.3396C12.4423 14.4162 12.2191 14.4546 12.0138 14.4546H12.0005H11.9871C11.7818 14.4546 11.5586 14.4162 11.3175 14.3396C11.0765 14.2629 10.8197 14.1477 10.5474 13.9944C10.2749 13.8409 10.0426 13.7027 9.85086 13.579C9.65887 13.4553 9.41782 13.2934 9.12767 13.0931C8.97699 12.9892 8.85486 12.9052 8.75834 12.8391L8.74883 12.8326C8.66397 12.7746 8.59973 12.7308 8.55834 12.7031C8.18448 12.4521 7.73166 12.1497 7.2066 11.8005C6.59061 11.3904 5.87378 10.9151 5.04951 10.3699C3.52256 9.36011 2.60735 8.75277 2.30386 8.5481C1.75026 8.19019 1.22786 7.69815 0.736917 7.07172C0.245975 6.44504 0.000395938 5.86337 0.000395938 5.32653C0.000395938 4.66192 0.185452 4.10774 0.556174 3.66461C0.926592 3.22169 1.45535 3 2.14312 3ZM0 8.80401C0.392814 9.22172 0.844016 9.59256 1.35282 9.91636C3.24935 11.1466 4.79416 12.1595 5.99313 12.9585L0 18.6792V8.80401ZM23.2612 20.4943C22.8638 20.8301 22.3963 21.0001 21.8569 21.0001H2.14283C1.60339 21.0001 1.13563 20.8301 0.738281 20.4943L7.53917 14.0018C7.70928 14.1184 7.86663 14.2273 8.0085 14.3266C8.51761 14.6845 8.93038 14.9637 9.24747 15.1639C9.56424 15.3644 9.98612 15.5688 10.5131 15.7776C11.04 15.9866 11.5309 16.0907 11.9864 16.0907H11.9997H12.0131C12.4685 16.0907 12.9594 15.9865 13.4864 15.7776C14.013 15.5688 14.4349 15.3644 14.752 15.1639C15.0691 14.9637 15.4821 14.6845 15.991 14.3266C16.1403 14.2235 16.2985 14.1151 16.4616 14.0036L23.2612 20.4943ZM22.6612 9.91636C20.837 11.0949 19.2866 12.1095 18.0098 12.9607L24.0005 18.6794V8.80401C23.6164 9.21332 23.17 9.58391 22.6612 9.91636Z" fill="#3A6F84"/>
</g>
<defs>
<clipPath id="clip0_705_109">
<rect width="24" height="24" fill="white"/>
</clipPath>
</defs>
</svg>
