<svg width="24" height="24" viewBox="0 0 24 24" fill="none" xmlns="http://www.w3.org/2000/svg">
<path fill-rule="evenodd" clip-rule="evenodd" d="M16.6693 14.6667H15.6107L15.2427 14.3013C16.5427 12.7853 17.3333 10.82 17.3333 8.66665C17.3333 3.87999 13.4533 -1.33514e-05 8.66667 -1.33514e-05C3.88 -1.33514e-05 0 3.87999 0 8.66665C0 13.4533 3.88 17.3333 8.66667 17.3333C10.82 17.3333 12.784 16.544 14.3 15.2453L14.668 15.6107V16.6667L21.332 23.3213L23.32 21.3333L16.6693 14.6667ZM8.66667 14.6667C5.352 14.6667 2.66667 11.9813 2.66667 8.66665C2.66667 5.35332 5.352 2.66665 8.66667 2.66665C11.98 2.66665 14.6667 5.35332 14.6667 8.66665C14.6667 11.9813 11.98 14.6667 8.66667 14.6667Z" fill="#3A6F84"/>
</svg>
