<svg width="27" height="27" viewBox="0 0 27 27" fill="none" xmlns="http://www.w3.org/2000/svg">
<g clip-path="url(#clip0_1480_6672)">
<circle cx="13.5" cy="13.5" r="13.5" fill="#3A6F84"/>
<path d="M21.3415 17.8283C21.2969 17.6941 21.0135 17.4964 20.4914 17.2356C20.3499 17.1534 20.1484 17.0417 19.8876 16.9C19.6266 16.7583 19.3896 16.6277 19.1772 16.5084C18.9644 16.3891 18.765 16.2735 18.5787 16.1618C18.5489 16.1394 18.4557 16.0743 18.2991 15.9659C18.1423 15.8578 18.0101 15.7776 17.9018 15.7253C17.7937 15.6733 17.6873 15.6472 17.5829 15.6472C17.4338 15.6472 17.2475 15.7535 17.0239 15.9659C16.8002 16.1785 16.5951 16.4095 16.4087 16.6596C16.2223 16.9095 16.0247 17.1405 15.8161 17.3531C15.6071 17.5657 15.4355 17.6719 15.3014 17.6719C15.2341 17.6719 15.1502 17.6531 15.0496 17.6161C14.9491 17.5789 14.8726 17.5469 14.8201 17.5212C14.768 17.4949 14.6787 17.4429 14.5519 17.3643C14.4248 17.286 14.3541 17.2431 14.3392 17.2356C13.3175 16.6687 12.4413 16.0199 11.7104 15.2893C10.9797 14.5583 10.3308 13.6822 9.76399 12.6605C9.75655 12.6456 9.71356 12.5747 9.63532 12.448C9.55696 12.3212 9.50473 12.2318 9.47863 12.1795C9.45254 12.1273 9.42084 12.0509 9.38362 11.9502C9.34639 11.8496 9.3277 11.7657 9.3277 11.6985C9.3277 11.5644 9.434 11.3928 9.64656 11.1839C9.85909 10.9752 10.0903 10.7775 10.3401 10.5912C10.59 10.4049 10.821 10.1998 11.0336 9.97616C11.2462 9.75241 11.3524 9.56608 11.3524 9.41696C11.3524 9.31263 11.3263 9.20625 11.2742 9.09816C11.222 8.98983 11.1418 8.85764 11.0336 8.70096C10.9254 8.54436 10.8602 8.45123 10.8378 8.42126C10.726 8.23496 10.6105 8.0355 10.4911 7.82295C10.3716 7.61045 10.2412 7.37357 10.0995 7.1126C9.95782 6.85174 9.84604 6.65032 9.76391 6.50865C9.50304 5.98674 9.30545 5.70324 9.17117 5.65865C9.11894 5.63628 9.04058 5.625 8.93628 5.625C8.73481 5.625 8.47198 5.66222 8.14759 5.7369C7.82309 5.81145 7.56774 5.88966 7.38128 5.97181C7.00839 6.12834 6.61316 6.58321 6.19548 7.33627C5.81515 8.03711 5.625 8.73077 5.625 9.41676C5.625 9.61795 5.63805 9.81369 5.66414 10.004C5.69024 10.1942 5.73686 10.4086 5.80406 10.6473C5.87114 10.8859 5.92525 11.0631 5.96615 11.1785C6.0071 11.294 6.08354 11.5009 6.19545 11.7993C6.30719 12.0976 6.37439 12.2803 6.39676 12.3474C6.65775 13.0782 6.96725 13.7307 7.32517 14.3049C7.91407 15.2594 8.71772 16.2458 9.73566 17.2638C10.7536 18.2816 11.7399 19.0852 12.6945 19.6743C13.2687 20.0322 13.9215 20.3416 14.6523 20.6028C14.7194 20.625 14.902 20.6921 15.2002 20.8042C15.4986 20.916 15.7056 20.9925 15.8211 21.0335C15.9366 21.0745 16.1139 21.1287 16.3523 21.1959C16.5913 21.2631 16.8055 21.3097 16.9957 21.336C17.1859 21.3617 17.3817 21.375 17.583 21.375C18.269 21.375 18.9627 21.1847 19.6637 20.8045C20.4167 20.387 20.8715 19.9917 21.0281 19.6186C21.1105 19.4323 21.1885 19.1769 21.2631 18.8524C21.3379 18.5281 21.375 18.2653 21.375 18.0639C21.3752 17.9592 21.364 17.881 21.3415 17.8283Z" fill="white"/>
</g>
<defs>
<clipPath id="clip0_1480_6672">
<rect width="27" height="27" fill="white"/>
</clipPath>
</defs>
</svg>
