<svg width="25" height="24" viewBox="0 0 25 24" fill="none" xmlns="http://www.w3.org/2000/svg">
<path fill-rule="evenodd" clip-rule="evenodd" d="M0 24L8.50696 23.9971C13.222 23.9941 16.926 23.9824 16.8205 23.9678C16.715 23.9531 16.5245 23.9209 16.3956 23.8974C16.2667 23.8711 16.044 23.8095 15.8974 23.7626C15.7509 23.7158 15.4872 23.6044 15.3114 23.5136C15.1355 23.4256 14.863 23.2645 14.7106 23.159C14.4938 23.0066 14.1363 22.6667 13.0696 21.6C12.0381 20.5685 11.6601 20.17 11.5194 19.9707C11.4168 19.8271 11.2527 19.537 11.1502 19.326C11.0476 19.115 10.9392 18.8601 10.904 18.7546C10.8718 18.6491 10.8132 18.4322 10.778 18.2711C10.7223 18.019 10.7136 17.8901 10.7106 17.3626C10.7106 16.8205 10.7194 16.7121 10.781 16.4396C10.819 16.2696 10.8806 16.0322 10.9216 15.9121C10.9626 15.7919 11.0564 15.5604 11.1326 15.3993C11.2088 15.2381 11.3201 15.03 11.3788 14.9392C11.4403 14.8454 11.496 14.7634 11.5077 14.7575C11.5223 14.7487 12.0352 15.2469 13.77 16.9817L13.7407 17.1136C13.7231 17.1868 13.7172 17.3451 13.726 17.4652C13.7348 17.5853 13.77 17.7641 13.8022 17.8608C13.8344 17.9575 13.9018 18.0952 13.9487 18.1685C13.9956 18.2418 14.5846 18.8484 15.2586 19.5194C16.4425 20.6974 16.4894 20.7385 16.7033 20.8352C16.8234 20.8879 17.0139 20.9465 17.1282 20.9641C17.2747 20.9846 17.3978 20.9846 17.5678 20.9582C17.7231 20.9348 17.8755 20.8879 18.022 20.8176C18.2271 20.7179 18.3179 20.633 19.4227 19.5341C20.1289 18.8308 20.6505 18.2886 20.7209 18.1832C20.7853 18.0864 20.8645 17.9341 20.8996 17.8462C20.9348 17.7524 20.9641 17.5795 20.9729 17.4359C20.9817 17.2864 20.9729 17.1165 20.9524 17.011C20.9319 16.9143 20.8703 16.7502 20.8176 16.6447C20.7326 16.4806 20.5597 16.293 19.4901 15.2234C18.5553 14.2886 18.2183 13.9692 18.0894 13.8989C17.9956 13.8462 17.8344 13.7817 17.7289 13.7553C17.5824 13.7172 17.4711 13.7114 16.9524 13.7436L14.7253 11.5223L14.9158 11.3963C15.0212 11.3289 15.2381 11.2088 15.3993 11.1326C15.5604 11.0564 15.8183 10.9538 15.9707 10.904C16.1231 10.8571 16.3604 10.7927 16.4982 10.7634C16.6916 10.7223 16.882 10.7106 17.3626 10.7106C17.8462 10.7106 18.0308 10.7223 18.2271 10.7634C18.3648 10.7927 18.6022 10.8571 18.7546 10.907C18.907 10.9568 19.1648 11.0593 19.326 11.1355C19.4872 11.2147 19.7099 11.3407 19.8242 11.4139C19.9385 11.4901 20.1143 11.622 20.2198 11.7099C20.3253 11.7949 20.9993 12.4542 21.7172 13.178C22.8103 14.2769 23.0535 14.5348 23.2059 14.7692C23.3084 14.9216 23.4403 15.1473 23.5018 15.2674C23.5634 15.3875 23.6484 15.5722 23.6894 15.6777C23.7333 15.7831 23.8007 15.9941 23.8447 16.1465C23.8857 16.2989 23.9385 16.5509 23.959 16.7033C23.9824 16.8557 24 17.1399 24 17.3333C24 17.5267 23.9795 17.8168 23.956 17.978C23.9326 18.1392 23.8857 18.3766 23.8535 18.5055C23.8183 18.6344 23.7363 18.8777 23.6689 19.0476C23.6015 19.2176 23.4667 19.4872 23.37 19.6484C23.2733 19.8095 23.1209 20.0352 23.03 20.1465C22.9392 20.2579 22.2593 20.9524 21.5209 21.6879C20.3604 22.8396 20.1348 23.0505 19.8828 23.2176C19.7216 23.3231 19.452 23.4755 19.2821 23.5575C19.1121 23.6366 18.8689 23.7363 18.7399 23.7773C18.611 23.8212 18.4059 23.874 18.2857 23.9004C18.1656 23.9238 17.9751 23.956 17.8608 23.9678C17.7436 23.9824 19.0183 23.9941 24.0293 24V0L15.5077 0.00292969C8.20806 0.00585938 7.03004 0.0117207 7.28205 0.0468864C7.44322 0.0673981 7.73333 0.131868 7.92674 0.184614C8.12015 0.240294 8.41612 0.351648 8.58608 0.430769C8.75604 0.50989 9.03736 0.671062 9.21612 0.791208C9.49744 0.981686 9.69377 1.16337 10.8073 2.26813C11.5077 2.96264 12.1612 3.63077 12.2637 3.75092C12.3634 3.87106 12.5157 4.07619 12.6007 4.20513C12.6828 4.33407 12.8088 4.55678 12.8762 4.7033C12.9465 4.84982 13.0374 5.07253 13.0813 5.20147C13.1223 5.3304 13.1839 5.55311 13.219 5.69963C13.263 5.89597 13.2835 6.1011 13.2952 6.5055C13.307 6.96557 13.3011 7.10037 13.2513 7.39927C13.2161 7.59267 13.1458 7.88865 13.0901 8.05861C13.0344 8.22857 12.926 8.49231 12.8498 8.64469C12.7736 8.79707 12.6652 8.99634 12.6066 9.08425C12.5509 9.17216 12.5011 9.25128 12.4923 9.26007C12.4864 9.26886 11.9795 8.77363 10.2564 7.04762L10.274 6.76923C10.2886 6.5641 10.2799 6.4381 10.2447 6.29157C10.2183 6.18315 10.1626 6.02491 10.1216 5.93993C10.063 5.82271 9.77582 5.51795 8.83809 4.57729C8.17582 3.91209 7.5663 3.32308 7.48718 3.27033C7.40513 3.21758 7.26154 3.14139 7.16483 3.10623C7.02418 3.05055 6.9304 3.0359 6.68132 3.0359C6.43809 3.03297 6.33553 3.04762 6.18315 3.09744C6.07766 3.1326 5.8989 3.22931 5.78755 3.30843C5.66154 3.39634 5.137 3.90037 4.43663 4.60366C3.37582 5.67326 3.28205 5.77582 3.18242 5.97802C3.10623 6.1304 3.06227 6.27106 3.03883 6.43223C3.01538 6.61099 3.01538 6.72234 3.04176 6.9011C3.06227 7.03883 3.11502 7.21465 3.1707 7.32601C3.24982 7.49597 3.39048 7.64542 4.48059 8.74139C5.15165 9.41538 5.75824 10.0044 5.8315 10.0542C5.90476 10.1011 6.03663 10.1714 6.12454 10.2066C6.26227 10.2593 6.34432 10.2681 7.06227 10.2711L8.16117 11.37C8.76483 11.9736 9.26007 12.4747 9.26007 12.4835C9.26007 12.4923 9.18388 12.548 9.09011 12.6066C8.99927 12.6652 8.80293 12.7736 8.65934 12.8469C8.51282 12.9201 8.25788 13.0256 8.08791 13.0813C7.91795 13.137 7.61612 13.2132 7.41392 13.2484C7.09744 13.3011 6.97436 13.3099 6.50549 13.2952C6.06886 13.2835 5.90476 13.2659 5.65568 13.2073C5.48571 13.1663 5.24835 13.0989 5.1282 13.0549C5.00806 13.011 4.78828 12.9172 4.64469 12.844C4.49817 12.7707 4.27546 12.6418 4.14652 12.5568C4.01758 12.4718 3.80073 12.3018 3.663 12.1817C3.52527 12.0615 2.87179 11.4168 2.20952 10.7516C1.14579 9.67912 0.981685 9.50037 0.794139 9.21612C0.673993 9.03736 0.539194 8.81465 0.489377 8.71795C0.442491 8.62125 0.357509 8.43077 0.304762 8.29304C0.252015 8.15531 0.181685 7.9326 0.14652 7.79487C0.111355 7.65714 0.0644689 7.41978 0.043956 7.2674C0.0117216 7.03297 0.00586081 8.36923 0.0029304 15.496L0 24ZM0.0205128 6.23883C0.0263736 6.18315 0.0498168 6.01905 0.0761905 5.87546C0.0996337 5.72894 0.158242 5.47985 0.208059 5.31868C0.257875 5.15751 0.380952 4.85275 0.483516 4.64469C0.603663 4.40146 0.756044 4.14945 0.905494 3.95604C1.07253 3.73333 1.51209 3.27619 2.4674 2.32674C3.44908 1.35092 3.8652 0.958241 4.05861 0.823442C4.20513 0.720879 4.48059 0.559708 4.67399 0.465935C4.8674 0.372162 5.15751 0.254944 5.31868 0.208057C5.47985 0.158241 5.72308 0.0996342 5.86081 0.0732594C5.99853 0.0498161 6.16264 0.0234432 6.22711 0.0175819C6.29157 0.0117207 4.91722 0.00586128 0 0L0.00586081 3.1707C0.00879121 4.91429 0.014652 6.29744 0.0205128 6.24176V6.23883Z" fill="white"/>
<path d="M15.6617 21.9169C15.7692 21.9365 15.928 21.9634 16.0159 21.9756C16.1038 21.9878 16.2797 21.9976 16.4067 22C16.5337 22 16.7364 21.9902 16.8585 21.978C16.9807 21.9634 17.1541 21.9365 17.2493 21.9169C17.3446 21.8974 17.5083 21.8534 17.6157 21.8168C17.7232 21.7826 17.9259 21.6995 18.0676 21.6336C18.2092 21.5652 18.434 21.4382 18.5683 21.3502C18.7783 21.211 18.9664 21.0351 19.9336 20.0752C20.5492 19.462 21.1158 18.8831 21.1915 18.7903C21.2673 18.6975 21.3943 18.5094 21.4749 18.375C21.5555 18.2407 21.6678 18.016 21.724 17.8743C21.7802 17.7326 21.8486 17.5299 21.8779 17.4224C21.9047 17.3149 21.9438 17.117 21.9634 16.9827C21.9829 16.8484 22 16.6065 22 16.4453C22 16.2841 21.9853 16.0471 21.9658 15.9201C21.9487 15.7931 21.9047 15.583 21.8705 15.456C21.8339 15.329 21.7777 15.1531 21.7411 15.0652C21.7069 14.9772 21.6361 14.8234 21.5848 14.7232C21.5335 14.6231 21.4236 14.435 21.3381 14.3079C21.2111 14.1125 21.0083 13.8976 20.0973 12.9816C19.4989 12.3782 18.9371 11.8286 18.8492 11.7578C18.7613 11.6845 18.6147 11.5746 18.5194 11.5111C18.4242 11.45 18.2386 11.345 18.1042 11.279C17.9699 11.2155 17.7549 11.13 17.6279 11.0885C17.5009 11.0469 17.3031 10.9932 17.1883 10.9688C17.0246 10.9346 16.8708 10.9248 16.4677 10.9248C16.0672 10.9248 15.9084 10.9346 15.7472 10.9688C15.6324 10.9932 15.4346 11.0469 15.3076 11.086C15.1806 11.1276 14.9656 11.213 14.8313 11.2766C14.6969 11.3401 14.5162 11.4402 14.2695 11.6014L16.1258 13.453L16.3701 13.4383C16.5581 13.4261 16.6509 13.431 16.7731 13.4628C16.861 13.4848 16.9953 13.5385 17.0735 13.5825C17.181 13.6411 17.4618 13.9073 18.241 14.6866C19.1325 15.5781 19.2766 15.7345 19.3475 15.8713C19.3914 15.9592 19.4427 16.096 19.4598 16.1766C19.4769 16.2645 19.4842 16.4062 19.4769 16.5308C19.4696 16.6505 19.4451 16.7946 19.4158 16.8728C19.3865 16.9461 19.3206 17.0731 19.2668 17.1537C19.2082 17.2416 18.7735 17.6935 18.1848 18.2798C17.264 19.1958 17.1883 19.2666 17.0173 19.3497C16.8952 19.4083 16.7682 19.4474 16.6387 19.4669C16.4971 19.4889 16.3945 19.4889 16.2724 19.4718C16.1771 19.4572 16.0183 19.4083 15.9182 19.3643C15.7399 19.2837 15.7008 19.2495 14.714 18.2676C14.1523 17.7082 13.6613 17.2025 13.6222 17.1415C13.5832 17.0804 13.527 16.9656 13.5001 16.885C13.4733 16.8044 13.4439 16.6554 13.4366 16.5552C13.4293 16.4551 13.4342 16.3232 13.4733 16.1522L12.5402 15.2191C12.0273 14.7061 11.5999 14.2908 11.5876 14.2982C11.5779 14.3031 11.5315 14.3715 11.4802 14.4496C11.4313 14.5253 11.3385 14.6988 11.275 14.8331C11.2115 14.9675 11.1333 15.1604 11.0991 15.2606C11.065 15.3607 11.0137 15.5586 10.9819 15.7003C10.9306 15.9275 10.9233 16.0178 10.9233 16.4697C10.9257 16.9094 10.9331 17.0169 10.9795 17.227C11.0088 17.3613 11.0576 17.5421 11.0845 17.63C11.1138 17.718 11.2042 17.9305 11.2897 18.1063C11.3751 18.2822 11.5119 18.524 11.5974 18.6437C11.7147 18.8098 12.0297 19.142 12.8895 20.0019C13.7786 20.891 14.0765 21.1744 14.2573 21.3014C14.3843 21.3893 14.6115 21.5237 14.758 21.597C14.9046 21.6727 15.1244 21.7655 15.2465 21.8046C15.3686 21.8437 15.5543 21.895 15.6617 21.9169Z" fill="#3A6F84"/>
<path d="M6.74662 13.0109C6.88096 13.0377 7.02262 13.0646 7.06415 13.0695C7.10323 13.0744 7.31084 13.0817 7.52089 13.0842C7.81155 13.0866 7.97764 13.0744 8.19258 13.0377C8.35134 13.0084 8.59559 12.9474 8.73725 12.901C8.87892 12.8545 9.09142 12.7666 9.21354 12.7055C9.33322 12.6445 9.49687 12.5541 9.57259 12.5052C9.65075 12.4564 9.71425 12.41 9.71425 12.4026C9.71425 12.3953 9.30147 11.9776 7.88238 10.5584H7.55753C7.28397 10.556 7.21558 10.5486 7.10078 10.5047C7.02751 10.4754 6.9176 10.4167 6.85653 10.3776C6.79547 10.3361 6.28988 9.84514 5.73054 9.28332C4.82194 8.36975 4.7047 8.24517 4.63875 8.10349C4.59234 8.01067 4.54838 7.86411 4.53128 7.7493C4.5093 7.6003 4.5093 7.50748 4.52884 7.35847C4.54838 7.22412 4.58501 7.10687 4.64852 6.97985C4.73156 6.81131 4.80972 6.72581 5.69391 5.83423C6.27766 5.24798 6.71487 4.82784 6.8199 4.75456C6.91271 4.6886 7.0617 4.608 7.14963 4.57868C7.27664 4.53716 7.36213 4.52494 7.56486 4.52739C7.77247 4.52739 7.85063 4.5396 7.96787 4.58601C8.04847 4.61532 8.16815 4.67883 8.23654 4.7228C8.30249 4.76677 8.81053 5.25775 9.36253 5.81224C10.1441 6.59635 10.3835 6.85039 10.4323 6.95054C10.4665 7.01894 10.5129 7.15084 10.5349 7.24367C10.5642 7.36336 10.5716 7.46839 10.5447 7.87144L11.4728 8.79966C11.9809 9.31019 12.4034 9.723 12.4083 9.71568C12.4151 9.70892 12.4509 9.65231 12.4928 9.58608L12.5036 9.56911C12.5524 9.49583 12.6428 9.32973 12.7063 9.20271C12.7698 9.07569 12.8602 8.85585 12.9066 8.71417C12.953 8.57249 13.0116 8.32578 13.0409 8.16456C13.0825 7.91541 13.0873 7.80304 13.0776 7.41954C13.0678 7.08245 13.0507 6.91146 13.0141 6.7478C12.9848 6.62566 12.9335 6.44002 12.8993 6.33254C12.8626 6.22506 12.7869 6.03942 12.7283 5.91728C12.6721 5.79515 12.5671 5.6095 12.4987 5.50202C12.4279 5.39454 12.3009 5.22355 12.2178 5.1234C12.1323 5.02325 11.5876 4.46632 11.0039 3.8874C10.0757 2.9665 9.91209 2.81506 9.67761 2.65628C9.52862 2.55613 9.29414 2.42178 9.15248 2.35583C9.01081 2.28988 8.76412 2.19705 8.60292 2.15064C8.44171 2.10667 8.17792 2.05049 8.01672 2.03095C7.81155 2.00164 7.62836 1.99431 7.4061 2.00408C7.23024 2.01385 6.99576 2.03584 6.88096 2.05782C6.76616 2.0798 6.56343 2.1311 6.4291 2.17018C6.29476 2.21171 6.05295 2.30942 5.89175 2.38758C5.73054 2.46575 5.49851 2.59766 5.37882 2.68315C5.21518 2.79796 4.87079 3.12528 4.05255 3.9387C3.2563 4.72769 2.88992 5.11119 2.7507 5.29439C2.62613 5.45805 2.49912 5.66568 2.39898 5.86843C2.31349 6.04186 2.21091 6.2959 2.16939 6.43025C2.12786 6.5646 2.07657 6.77222 2.05703 6.89436C2.03505 7.01649 2.01062 7.24122 2.0033 7.39511C1.99597 7.55633 2.00085 7.7835 2.01795 7.93251C2.03505 8.07418 2.07413 8.29891 2.10588 8.43326C2.13763 8.56761 2.20114 8.77524 2.24755 8.89737C2.29395 9.01951 2.36479 9.18317 2.40387 9.26378C2.44539 9.34439 2.55774 9.53247 2.65789 9.67904C2.81421 9.91598 2.95099 10.065 3.83761 10.959C4.38961 11.5135 4.93429 12.0509 5.04909 12.151C5.16389 12.2512 5.34463 12.3929 5.4521 12.4637C5.55957 12.5345 5.74764 12.642 5.86732 12.7031C5.98701 12.7642 6.17996 12.8448 6.29476 12.8863C6.40956 12.9254 6.61228 12.9816 6.74662 13.0109Z" fill="#3A6F84"/>
<path d="M11.104 12.9034C14.5992 16.3965 15.652 17.4346 15.7423 17.4786C15.8351 17.525 15.8889 17.5323 16.0281 17.525C16.1282 17.5225 16.2406 17.4981 16.2968 17.4712C16.3578 17.4444 16.5899 17.2319 16.9098 16.9119C17.22 16.5992 17.4423 16.3574 17.4692 16.2987C17.4985 16.2377 17.5205 16.1326 17.5253 16.0178C17.5327 15.8591 17.5253 15.8175 17.4716 15.7125C17.4228 15.6172 16.4384 14.6182 12.909 11.0909C8.98883 7.17283 8.39042 6.58414 8.27318 6.5304C8.17548 6.48399 8.09732 6.46689 7.99229 6.46689C7.89948 6.46689 7.80666 6.48643 7.73583 6.51818C7.65767 6.55238 7.47448 6.71849 7.10323 7.08489C6.71731 7.46839 6.56832 7.6345 6.52435 7.72488C6.48283 7.81281 6.46573 7.88854 6.46573 7.99357C6.46573 8.09617 6.48283 8.17678 6.52191 8.26227C6.57076 8.36242 7.3719 9.17584 11.104 12.9034Z" fill="#3A6F84"/>
</svg>
