<svg width="49" height="50" viewBox="0 0 49 50" fill="none" xmlns="http://www.w3.org/2000/svg">
<path fill-rule="evenodd" clip-rule="evenodd" d="M27.163 2.64636C26.4349 -0.348387 22.176 -0.34839 21.448 2.64636L20.661 5.88376C20.144 8.01032 17.5682 8.84725 15.9 7.43069L13.3604 5.27416C11.0112 3.27928 7.56563 5.78262 8.73692 8.63334L10.0031 11.715C10.8348 13.7393 9.24293 15.9304 7.0607 15.7649L3.73855 15.513C0.665405 15.28 -0.650686 19.3305 1.97252 20.9483L4.80827 22.6972C6.671 23.846 6.67101 26.5543 4.80828 27.7031L1.97253 29.452C-0.650682 31.0698 0.665401 35.1203 3.73855 34.8873L7.06069 34.6354C9.24292 34.4699 10.8349 36.661 10.0031 38.6853L8.73692 41.767C7.56563 44.6177 11.0112 47.121 13.3604 45.1261L15.9 42.9696C17.5682 41.5531 20.144 42.39 20.661 44.5165L21.448 47.7539C22.176 50.7487 26.4349 50.7487 27.163 47.7539L27.95 44.5166C28.4669 42.39 31.0427 41.5531 32.7109 42.9696L35.2505 45.1261C37.5997 47.121 41.0453 44.6177 39.874 41.767L38.6078 38.6853C37.7761 36.661 39.368 34.4699 41.5502 34.6354L44.8724 34.8873C47.9455 35.1203 49.2616 31.0698 46.6384 29.452L43.8027 27.7031C41.9399 26.5543 41.9399 23.846 43.8027 22.6972L46.6384 20.9483C49.2616 19.3305 47.9455 15.28 44.8724 15.513L41.5502 15.7649C39.368 15.9304 37.7761 13.7393 38.6078 11.715L39.874 8.63334C41.0453 5.78262 37.5997 3.27927 35.2505 5.27416L32.7109 7.43068C31.0427 8.84725 28.4669 8.01033 27.95 5.88376L27.163 2.64636ZM24.3709 13.4467C24.3275 13.4405 24.2834 13.4405 24.2401 13.4467L21.0569 13.9044C21.0135 13.9106 20.9713 13.923 20.9314 13.9412L18.0061 15.2772C17.9662 15.2954 17.9292 15.3192 17.8961 15.3479L15.4656 17.4539C15.4325 17.4826 15.4037 17.5158 15.38 17.5527L13.6413 20.2581C13.6176 20.295 13.5993 20.335 13.587 20.3771L12.681 23.4627C12.6686 23.5048 12.6623 23.5484 12.6623 23.5922V26.8081C12.6623 26.8519 12.6686 26.8955 12.681 26.9376L13.587 30.0232C13.5993 30.0653 13.6176 30.1053 13.6413 30.1422L15.38 32.8476C15.4037 32.8845 15.4325 32.9178 15.4656 32.9464L17.8961 35.0524C17.9292 35.0811 17.9662 35.1049 18.0061 35.1231L20.9314 36.4591C20.9713 36.4773 21.0135 36.4897 21.0569 36.4959L24.2401 36.9536C24.2834 36.9598 24.3275 36.9598 24.3709 36.9536L27.5541 36.4959C27.5974 36.4897 27.6397 36.4773 27.6795 36.4591L30.6048 35.1231C30.6447 35.1049 30.6818 35.0811 30.7149 35.0524L33.1453 32.9464C33.1784 32.9178 33.2073 32.8845 33.2309 32.8476L34.9696 30.1422C34.9933 30.1053 35.0116 30.0653 35.0239 30.0232L35.93 26.9376C35.9423 26.8955 35.9486 26.8519 35.9486 26.8081V23.5922C35.9486 23.5484 35.9423 23.5048 35.93 23.4627L35.0239 20.3771C35.0116 20.335 34.9933 20.295 34.9696 20.2581L33.2309 17.5527C33.2073 17.5158 33.1784 17.4826 33.1453 17.4539L30.7149 15.3479C30.6818 15.3192 30.6447 15.2954 30.6048 15.2772L27.6795 13.9412C27.6397 13.923 27.5974 13.9106 27.5541 13.9044L24.3709 13.4467Z" fill="#D9D9D9"/>
</svg>
