<svg width="165" height="56" viewBox="0 0 165 56" fill="none" xmlns="http://www.w3.org/2000/svg">
<g clip-path="url(#clip0_594_785)">
<path d="M72.7147 15.5683L72.4445 19.7792H60.6509V19.0642C60.8509 19.0506 61.1184 19.0207 61.4616 18.9772C61.6836 18.9601 61.9025 18.9144 62.1129 18.8413C62.3005 18.764 62.4573 18.6264 62.5588 18.4498C62.6484 18.2579 62.691 18.0473 62.6831 17.8355V7.56246C62.6872 7.36049 62.6504 7.1598 62.575 6.97255C62.4785 6.7804 62.3135 6.6319 62.1129 6.55663C61.8809 6.4518 61.638 6.37339 61.3887 6.32285C61.1491 6.26755 60.9063 6.2276 60.6617 6.20323V5.48828H71.6554V8.93255H70.9041C70.7271 8.33561 70.4321 7.7808 70.0366 7.30148C69.5934 6.72698 69.1718 6.41256 68.7718 6.35819C68.5637 6.33372 68.3178 6.31197 68.0313 6.29838C67.7449 6.28479 67.4152 6.27935 67.0503 6.27935H64.8154V11.9609H66.418C66.7993 11.9801 67.181 11.9304 67.5449 11.8141C67.7925 11.7109 68.008 11.5429 68.1692 11.3275C68.3373 11.0906 68.4643 10.8268 68.5448 10.5473C68.6438 10.2478 68.7127 9.9391 68.7502 9.62576H69.5015V15.223H68.7502C68.718 14.8753 68.6463 14.5323 68.5367 14.2009C68.4569 13.9226 68.3328 13.6591 68.1692 13.4207C67.9924 13.1803 67.746 13.0009 67.4638 12.9069C67.1225 12.8179 66.7704 12.7776 66.418 12.7873H64.8154V17.0716C64.8076 17.4129 64.8385 17.754 64.9073 18.0883C64.952 18.3121 65.0758 18.512 65.2559 18.651C65.4685 18.792 65.7129 18.877 65.9666 18.8984C66.3932 18.9399 66.8218 18.9581 67.2503 18.9527H68.1205C68.4246 18.9554 68.7286 18.9418 69.0313 18.912C69.2966 18.8826 69.5595 18.8336 69.8177 18.7652C70.0305 18.7288 70.2295 18.6348 70.3933 18.4933C70.78 18.0516 71.1046 17.5586 71.3581 17.0281C71.6127 16.5648 71.8287 16.0811 72.004 15.5819L72.7147 15.5683Z" fill="#103746"/>
<path d="M84.9138 19.7797H80.0899V19.1137L80.5602 19.0756C80.7034 19.0652 80.8449 19.0378 80.9817 18.994C81.1576 18.942 81.3097 18.8295 81.4114 18.676C81.5181 18.4986 81.5699 18.2932 81.5601 18.0861V10.6756H78.8171C78.8356 12.0932 78.7216 13.5094 78.4765 14.9055C78.3075 15.9028 78.0114 16.874 77.5955 17.7952C77.3174 18.4197 76.9081 18.9762 76.3956 19.4263C76.0146 19.7622 75.5293 19.9545 75.0228 19.97C74.8266 19.9835 74.6297 19.957 74.4439 19.8921C74.2582 19.8271 74.0874 19.7251 73.9418 19.5921C73.8236 19.4783 73.7296 19.3416 73.6655 19.1902C73.6014 19.0388 73.5685 18.8759 73.5689 18.7113C73.572 18.463 73.6555 18.2225 73.8067 18.0263C73.885 17.9195 73.9885 17.834 74.1079 17.7775C74.2272 17.7211 74.3587 17.6954 74.4904 17.7028C74.7634 17.7007 75.0301 17.7854 75.2525 17.9447C75.5063 18.1341 75.7288 18.3625 75.9119 18.6216C76.14 18.3794 76.3312 18.1046 76.4794 17.8061C76.7253 17.3311 76.9244 16.8331 77.074 16.3191C77.2778 15.6683 77.4421 15.0056 77.5658 14.3346C77.6988 13.5563 77.7621 12.7675 77.755 11.9777C77.7704 11.7129 77.726 11.4481 77.6253 11.203C77.5345 11.0308 77.3903 10.8934 77.2145 10.8115C77.0166 10.7213 76.8075 10.6583 76.5929 10.6239C76.3065 10.5669 76.074 10.5288 75.893 10.5098V9.84375H84.8841V10.5098C84.6895 10.5234 84.522 10.5397 84.3788 10.5587C84.2355 10.5777 84.1085 10.6022 83.9815 10.6294C83.8949 10.6518 83.8137 10.6916 83.7427 10.7462C83.6716 10.8008 83.6122 10.8693 83.568 10.9474C83.4707 11.1272 83.4231 11.33 83.4302 11.5346V17.9801C83.4215 18.1777 83.4633 18.3743 83.5518 18.5509C83.6473 18.7064 83.792 18.8251 83.9626 18.888C84.107 18.957 84.2596 19.0072 84.4166 19.0375C84.5833 19.0723 84.7521 19.0959 84.9219 19.1082L84.9138 19.7797Z" fill="#103746"/>
<path d="M94.659 17.4418C94.2721 18.2061 93.7007 18.8604 92.997 19.3447C92.2886 19.8189 91.4533 20.0645 90.6026 20.0488C89.8848 20.0641 89.1725 19.9203 88.5163 19.6274C87.9427 19.3628 87.437 18.9694 87.038 18.4775C86.6421 17.9765 86.3482 17.402 86.1732 16.7866C85.9804 16.1226 85.8839 15.4341 85.8868 14.7424C85.8872 14.0958 85.9903 13.4534 86.1922 12.8395C86.3902 12.2322 86.694 11.6652 87.0894 11.1649C87.474 10.6832 87.9569 10.2902 88.5055 10.0123C89.0915 9.71409 89.7405 9.563 90.3972 9.57188C91.0312 9.5552 91.6618 9.67187 92.2484 9.91441C92.7348 10.1206 93.1642 10.4424 93.4997 10.8523C93.8165 11.2435 94.0501 11.6959 94.1861 12.1816C94.3415 12.7212 94.418 13.2808 94.4131 13.8426V14.5086H87.8812C87.8744 15.1054 87.936 15.7011 88.065 16.2837C88.1747 16.7831 88.3734 17.2583 88.6514 17.6864C88.9093 18.076 89.2606 18.3939 89.6729 18.6107C90.1375 18.8462 90.6528 18.962 91.1728 18.9478C91.7151 18.9629 92.2498 18.8173 92.7105 18.5292C93.24 18.1317 93.6672 17.6125 93.9564 17.015L94.659 17.4418ZM92.4457 13.655C92.443 13.2518 92.4114 12.8493 92.3511 12.4507C92.3021 12.0797 92.1992 11.7179 92.0457 11.3769C91.8992 11.0778 91.682 10.8193 91.4133 10.6239C91.1095 10.4196 90.7489 10.3178 90.3837 10.333C90.0442 10.331 89.709 10.4095 89.4052 10.562C89.1014 10.7146 88.8376 10.9369 88.6352 11.2111C88.1731 11.7983 87.919 12.6111 87.8812 13.6577L92.4457 13.655Z" fill="#103746"/>
<path d="M106.598 19.7791H101.772V19.1131L102.247 19.075C102.392 19.0654 102.534 19.038 102.672 18.9935C102.849 18.9423 103.002 18.8296 103.104 18.6754C103.211 18.498 103.263 18.2926 103.253 18.0855V14.924H98.8585V17.9849C98.8504 18.1831 98.8992 18.3794 98.9991 18.5504C99.1007 18.7049 99.2468 18.8244 99.4179 18.8929C99.5632 18.9621 99.7167 19.0123 99.8747 19.0424C100.041 19.0772 100.21 19.1008 100.38 19.1131V19.7791H95.5561V19.1131L96.0317 19.075C96.1759 19.0649 96.3183 19.0375 96.456 18.9935C96.6294 18.9435 96.7779 18.83 96.8722 18.6754C96.9692 18.4946 97.0159 18.2908 97.0073 18.0855V11.6428C97.0131 11.4466 96.9644 11.2527 96.8668 11.0828C96.7654 10.9257 96.6181 10.8042 96.4452 10.7348C96.285 10.6581 96.1149 10.6041 95.9399 10.5745C95.7777 10.5473 95.6237 10.5282 95.4858 10.5146V9.84863H100.31V10.5146C100.118 10.5282 99.9476 10.5445 99.8044 10.5636C99.6612 10.5826 99.5342 10.6071 99.4098 10.6343C99.3229 10.6567 99.2413 10.6964 99.1698 10.751C99.0983 10.8056 99.0384 10.8741 98.9936 10.9523C98.8985 11.1328 98.8519 11.3353 98.8585 11.5395V14.0976H103.253V11.651C103.26 11.4546 103.211 11.2604 103.112 11.091C103.013 10.9335 102.866 10.8117 102.693 10.743C102.533 10.6666 102.363 10.6126 102.188 10.5826C102.023 10.5554 101.872 10.5364 101.731 10.5228V9.85679H106.558V10.5228C106.363 10.5364 106.196 10.5527 106.053 10.5717C105.909 10.5908 105.782 10.6152 105.655 10.6424C105.569 10.6649 105.487 10.7046 105.416 10.7592C105.345 10.8139 105.286 10.8823 105.242 10.9605C105.145 11.1405 105.099 11.3433 105.107 11.5477V17.9931C105.098 18.1904 105.139 18.3866 105.226 18.564C105.321 18.7195 105.466 18.8382 105.636 18.9011C105.782 18.9702 105.935 19.0205 106.093 19.0506C106.26 19.0857 106.429 19.1093 106.598 19.1213V19.7791Z" fill="#103746"/>
<path d="M117.195 19.5974C116.881 19.7116 116.606 19.804 116.384 19.8693C116.12 19.9437 115.847 19.9794 115.573 19.9753C115.129 19.9983 114.689 19.8689 114.327 19.6083C114.003 19.3379 113.79 18.9547 113.733 18.5345H113.673C113.279 18.9868 112.805 19.3627 112.276 19.6436C111.716 19.9121 111.1 20.0426 110.479 20.0242C110.145 20.0367 109.811 19.9826 109.498 19.865C109.184 19.7475 108.897 19.5688 108.652 19.3392C108.413 19.1087 108.226 18.8297 108.103 18.5209C107.979 18.212 107.922 17.8803 107.936 17.5477C107.931 17.1986 107.985 16.8511 108.096 16.5201C108.202 16.2198 108.366 15.9429 108.577 15.7046C108.763 15.4855 108.986 15.3014 109.236 15.1609C109.484 15.0167 109.743 14.8905 110.009 14.7831C110.308 14.6689 110.917 14.4577 111.836 14.1497C112.471 13.9522 113.091 13.7096 113.692 13.4238V12.4262C113.684 12.2576 113.666 12.0897 113.638 11.9232C113.601 11.6762 113.521 11.4378 113.4 11.2192C113.262 10.9635 113.069 10.7417 112.836 10.5695C112.529 10.3686 112.166 10.2732 111.801 10.2976C111.508 10.295 111.217 10.3476 110.944 10.4526C110.738 10.5227 110.548 10.6347 110.387 10.7815C110.398 10.9821 110.43 11.1809 110.485 11.3741C110.544 11.6116 110.576 11.8551 110.579 12.1C110.575 12.2238 110.545 12.3454 110.49 12.4566C110.436 12.5677 110.358 12.6658 110.263 12.7442C110.019 12.9515 109.706 13.0566 109.387 13.0378C109.244 13.0488 109.101 13.0214 108.972 12.9584C108.842 12.8953 108.732 12.7989 108.652 12.679C108.485 12.4253 108.403 12.1241 108.419 11.8201C108.435 11.516 108.548 11.2252 108.741 10.9908C108.978 10.6925 109.264 10.4377 109.587 10.2378C109.925 10.0312 110.289 9.87035 110.668 9.75937C111.073 9.63004 111.495 9.56314 111.92 9.56092C112.411 9.55623 112.902 9.59535 113.387 9.67782C113.798 9.75305 114.187 9.92334 114.522 10.1753C114.87 10.4336 115.138 10.7849 115.298 11.1893C115.494 11.7144 115.586 12.2732 115.568 12.8339C115.568 13.7963 115.568 14.6471 115.538 15.3893C115.508 16.1314 115.508 16.9415 115.508 17.8196C115.499 18.0362 115.545 18.2517 115.644 18.4448C115.746 18.6099 115.889 18.7449 116.06 18.8363C116.207 18.9094 116.371 18.944 116.535 18.9368C116.752 18.9368 116.973 18.9368 117.2 18.9368L117.195 19.5974ZM113.7 14.2801C113.133 14.4487 112.636 14.6136 112.209 14.7749C111.791 14.9313 111.392 15.1346 111.02 15.3811C110.701 15.5936 110.431 15.8716 110.228 16.1966C110.027 16.5327 109.926 16.9193 109.936 17.3112C109.917 17.536 109.946 17.7624 110.022 17.9748C110.097 18.1873 110.217 18.381 110.374 18.5427C110.679 18.8108 111.074 18.9517 111.479 18.9368C111.921 18.9458 112.356 18.8239 112.73 18.5862C113.077 18.3678 113.385 18.0921 113.641 17.7706L113.7 14.2801Z" fill="#103746"/>
<path d="M75.6981 39.0692H69.8013V38.3542L70.4958 38.2944C70.7098 38.2865 70.9213 38.2453 71.1228 38.1721C71.3067 38.1036 71.4621 37.9742 71.5633 37.8051C71.6648 37.6082 71.7133 37.3879 71.7038 37.1663V32.0773H65.026V37.0521C65.0197 37.2568 65.0594 37.4603 65.1422 37.6474C65.2442 37.8337 65.4035 37.9815 65.5962 38.0688C65.7897 38.1545 65.9931 38.2157 66.2016 38.2509C66.4277 38.3011 66.6571 38.3347 66.888 38.3515V39.0665H60.9912V38.3515L61.6857 38.2917C61.8998 38.2838 62.1113 38.2425 62.3127 38.1694C62.4967 38.1008 62.652 37.9714 62.7532 37.8024C62.8547 37.6055 62.9032 37.3852 62.8937 37.1636V26.8525C62.8964 26.6493 62.852 26.4483 62.764 26.2653C62.667 26.0769 62.5073 25.9287 62.3127 25.8467C62.1019 25.7482 61.8819 25.6708 61.656 25.6156C61.4385 25.5547 61.216 25.5138 60.9912 25.4933V24.7783H66.8907V25.4933C66.4523 25.5233 66.0188 25.6045 65.5989 25.7352C65.4986 25.7647 65.4059 25.816 65.3274 25.8856C65.249 25.9551 65.1867 26.0411 65.1449 26.1375C65.0658 26.3325 65.0263 26.5414 65.0287 26.7519V31.183H71.7065V26.8525C71.7091 26.6493 71.6647 26.4483 71.5768 26.2653C71.4798 26.0769 71.3201 25.9287 71.1255 25.8467C70.9146 25.7482 70.6947 25.6708 70.4688 25.6156C70.2513 25.5547 70.0288 25.5138 69.804 25.4933V24.7783H75.7008V25.4933C75.2623 25.5233 74.8288 25.6045 74.409 25.7352C74.3085 25.765 74.2156 25.8164 74.1367 25.8859C74.0578 25.9554 73.9949 26.0412 73.9523 26.1375C73.8754 26.3331 73.8369 26.5417 73.8388 26.7519V37.0548C73.8329 37.2592 73.8717 37.4624 73.9523 37.6502C74.0562 37.8358 74.2161 37.9834 74.409 38.0715C74.6025 38.1573 74.8058 38.2184 75.0143 38.2536C75.2404 38.3038 75.4698 38.3375 75.7008 38.3542L75.6981 39.0692Z" fill="#103746"/>
<path d="M86.4512 38.8874C86.1378 39.0016 85.8621 39.0922 85.6243 39.1593C85.3606 39.234 85.0875 39.2697 84.8135 39.2653C84.3689 39.2889 83.9295 39.1595 83.5677 38.8983C83.2391 38.6249 83.0257 38.2363 82.9705 37.8109H82.911C82.5164 38.2632 82.0429 38.6391 81.5138 38.92C80.9533 39.1885 80.3373 39.319 79.7167 39.3006C79.3825 39.3133 79.0492 39.2596 78.7357 39.1425C78.4222 39.0254 78.1348 38.8473 77.8898 38.6183C77.6517 38.3867 77.4648 38.1073 77.3414 37.7981C77.218 37.4889 77.1608 37.157 77.1736 36.8241C77.1682 36.4747 77.2231 36.1271 77.3358 35.7965C77.5399 35.2196 77.9451 34.7367 78.4762 34.4373C78.7235 34.2927 78.9809 34.1664 79.2464 34.0595C79.5464 33.9453 80.1572 33.7333 81.0733 33.4261C81.7088 33.2297 82.3293 32.9871 82.9299 32.7002V31.7026C82.9213 31.534 82.9033 31.3661 82.8759 31.1997C82.8386 30.9531 82.759 30.7148 82.6408 30.4956C82.5014 30.2405 82.3087 30.0188 82.0759 29.8459C81.7684 29.6446 81.4042 29.5492 81.0382 29.574C80.7455 29.5716 80.455 29.6242 80.1815 29.729C79.9763 29.799 79.7877 29.911 79.6275 30.0579C79.638 30.2583 79.6697 30.4569 79.7221 30.6505C79.7815 30.888 79.8133 31.1315 79.8167 31.3763C79.8131 31.5003 79.7831 31.622 79.7285 31.7332C79.6739 31.8444 79.5962 31.9424 79.5005 32.0206C79.2574 32.2289 78.9435 32.3341 78.6249 32.3142C78.4817 32.3252 78.3383 32.2978 78.2091 32.2348C78.08 32.1717 77.9698 32.0753 77.8898 31.9554C77.7223 31.7017 77.6405 31.4005 77.6565 31.0965C77.6726 30.7924 77.7857 30.5016 77.979 30.2672C78.2162 29.9695 78.5023 29.7148 78.8249 29.5142C79.163 29.3081 79.5264 29.1473 79.9058 29.0358C80.3109 28.908 80.7326 28.8411 81.1571 28.8373C81.6487 28.8324 82.1398 28.8715 82.6245 28.9542C83.0368 29.0296 83.4262 29.1999 83.7623 29.4517C84.1092 29.7109 84.3777 30.0619 84.5379 30.4657C84.7325 30.9912 84.8243 31.5497 84.8081 32.1103C84.8081 33.0727 84.7982 33.9244 84.7784 34.6657C84.7568 35.4051 84.7487 36.2179 84.7487 37.096C84.7373 37.3128 84.7839 37.5287 84.8838 37.7212C84.9845 37.8864 85.1272 38.0216 85.2973 38.1127C85.4449 38.1858 85.6085 38.2204 85.7729 38.2132C85.9918 38.2132 86.2134 38.2132 86.4404 38.2132L86.4512 38.8874ZM82.9569 33.5701C82.3894 33.7387 81.8922 33.9036 81.4652 34.0649C81.0468 34.2218 80.647 34.4251 80.2734 34.6711C79.9551 34.8836 79.6852 35.1616 79.4816 35.4866C79.2829 35.8234 79.1827 36.2097 79.1924 36.6012C79.1737 36.8258 79.2028 37.0518 79.2779 37.2641C79.3529 37.4765 79.4721 37.6703 79.6275 37.8327C79.9332 38.0998 80.3281 38.2406 80.7328 38.2268C81.1747 38.2358 81.6095 38.1149 81.984 37.8789C82.3312 37.6597 82.6399 37.3841 82.8975 37.0634L82.9569 33.5701Z" fill="#103746"/>
<path d="M92.6726 39.0691H87.7V38.4031L88.1757 38.3651C88.3207 38.3552 88.4641 38.3278 88.6027 38.2835C88.776 38.2336 88.9245 38.1201 89.0188 37.9655C89.1156 37.7855 89.1623 37.5827 89.154 37.3783V30.9328C89.1597 30.7367 89.111 30.5428 89.0134 30.3728C88.9121 30.2158 88.7648 30.0942 88.5918 30.0249C88.4201 29.9461 88.2381 29.8921 88.0513 29.8645C87.8649 29.8373 87.7054 29.8183 87.5703 29.8047V29.1387H95.8074V32.4334H95.1886C95.1399 32.2839 95.0589 32.0719 94.9373 31.7892C94.821 31.5151 94.6837 31.2506 94.5265 30.9981C94.3849 30.7467 94.2154 30.5123 94.0211 30.2995C93.8736 30.1242 93.6701 30.006 93.4455 29.9651C93.259 29.9433 93.032 29.9297 92.7645 29.9189C92.4969 29.908 92.2699 29.9189 92.0834 29.9189H91.0241V37.2913C91.0161 37.4882 91.0639 37.6833 91.1619 37.854C91.2652 38.008 91.4121 38.1273 91.5835 38.1965C91.7518 38.2702 91.929 38.3214 92.1105 38.3488C92.3132 38.3814 92.505 38.4031 92.6861 38.4167L92.6726 39.0691Z" fill="#103746"/>
<path d="M105.688 36.7316C105.302 37.497 104.731 38.1517 104.026 38.6345C103.318 39.1083 102.484 39.3539 101.634 39.3386C100.915 39.3539 100.202 39.21 99.545 38.9172C98.9717 38.6532 98.4667 38.2597 98.0694 37.7673C97.6736 37.2658 97.3789 36.6915 97.2019 36.0764C97.0146 35.4116 96.9235 34.7231 96.9317 34.0322C96.9302 33.3854 97.0333 32.7427 97.237 32.1292C97.4335 31.521 97.7364 30.953 98.1315 30.452C98.5169 29.971 98.9996 29.578 99.5477 29.2993C100.134 29.0014 100.783 28.8503 101.439 28.8589C102.073 28.8425 102.704 28.9592 103.291 29.2015C103.776 29.4092 104.205 29.7307 104.542 30.1393C104.857 30.5318 105.09 30.9839 105.228 31.4687C105.381 32.0087 105.457 32.568 105.453 33.1296V33.7957H98.9099C98.9044 34.3924 98.966 34.9879 99.0936 35.5708C99.2034 36.0701 99.4021 36.5454 99.6801 36.9735C99.9379 37.3631 100.289 37.681 100.702 37.8978C101.167 38.1333 101.683 38.2491 102.204 38.2349C102.746 38.2499 103.279 38.1043 103.739 37.8162C104.27 37.419 104.698 36.8998 104.988 36.3021L105.688 36.7316ZM103.474 32.9448C103.472 32.5416 103.44 32.1391 103.38 31.7405C103.335 31.3643 103.232 30.9975 103.074 30.6531C102.927 30.3552 102.711 30.097 102.445 29.9001C102.14 29.6954 101.778 29.5936 101.412 29.6092C101.073 29.6063 100.738 29.6844 100.434 29.837C100.131 29.9897 99.8678 30.2125 99.6666 30.4873C99.2017 31.0745 98.9504 31.8873 98.9099 32.9339L103.474 32.9448Z" fill="#103746"/>
<path d="M117.781 39.0696H112.957V38.4036L113.428 38.3655C113.571 38.3551 113.712 38.3277 113.849 38.2839C114.025 38.2319 114.177 38.1193 114.279 37.9659C114.385 37.7893 114.437 37.5849 114.427 37.3787V29.9655H111.684C111.703 31.3831 111.589 32.7993 111.344 34.1954C111.175 35.1928 110.879 36.1641 110.463 37.0851C110.185 37.7096 109.775 38.2661 109.263 38.7162C108.882 39.0521 108.397 39.2443 107.89 39.2599C107.694 39.2734 107.497 39.2469 107.311 39.182C107.126 39.117 106.955 39.015 106.809 38.882C106.691 38.7681 106.598 38.6313 106.534 38.4799C106.47 38.3285 106.438 38.1656 106.439 38.0012C106.441 37.7537 106.523 37.5135 106.671 37.3162C106.751 37.2101 106.855 37.1251 106.975 37.0688C107.094 37.0124 107.226 36.9863 107.358 36.9927C107.631 36.9906 107.898 37.0753 108.12 37.2346C108.375 37.4273 108.597 37.6594 108.779 37.9224C109.007 37.6802 109.199 37.4054 109.347 37.1069C109.593 36.6319 109.792 36.1338 109.941 35.6199C110.145 34.969 110.309 34.3063 110.433 33.6354C110.566 32.8579 110.63 32.0701 110.622 31.2812C110.638 31.0155 110.594 30.7498 110.493 30.5038C110.401 30.3322 110.257 30.195 110.082 30.1123C109.884 30.0221 109.675 29.959 109.46 29.9247C109.174 29.8676 108.941 29.8296 108.76 29.8105V29.1445H117.752V29.8105C117.557 29.8241 117.389 29.8405 117.246 29.8595C117.103 29.8785 116.976 29.903 116.849 29.9301C116.762 29.953 116.681 29.9928 116.609 30.0474C116.538 30.102 116.478 30.1702 116.433 30.2482C116.337 30.4296 116.291 30.633 116.298 30.8381V37.2808C116.289 37.4785 116.331 37.675 116.419 37.8517C116.515 38.0072 116.659 38.1259 116.83 38.1888C116.974 38.2577 117.127 38.308 117.284 38.3383C117.451 38.3731 117.62 38.3967 117.789 38.409L117.781 39.0696Z" fill="#103746"/>
<path d="M128.256 36.0163C128.269 36.4975 128.151 36.973 127.916 37.3919C127.696 37.7712 127.395 38.0963 127.035 38.3433C126.667 38.5895 126.262 38.7732 125.835 38.887C125.384 39.0102 124.918 39.0715 124.451 39.0691H119.246V38.4031L119.722 38.3651C119.867 38.3552 120.01 38.3278 120.149 38.2835C120.322 38.2342 120.469 38.1204 120.562 37.9655C120.66 37.786 120.707 37.5828 120.697 37.3783V30.9328C120.704 30.7365 120.656 30.5423 120.557 30.3728C120.457 30.2154 120.31 30.0936 120.138 30.0249C119.977 29.9497 119.807 29.8958 119.633 29.8645C119.468 29.8373 119.316 29.8183 119.176 29.8047V29.1387H124.151V29.8047L123.567 29.8482C123.407 29.8617 123.248 29.8872 123.092 29.9243C122.999 29.9458 122.912 29.9877 122.837 30.0469C122.763 30.1061 122.702 30.1812 122.659 30.2668C122.578 30.4441 122.538 30.6372 122.54 30.8323V33.1973C122.811 33.1973 123.035 33.1973 123.227 33.1729C123.419 33.1484 123.692 33.1565 124.038 33.1565C124.611 33.149 125.183 33.2018 125.746 33.3142C126.194 33.4022 126.625 33.5638 127.021 33.7927C127.391 34.0024 127.702 34.3037 127.924 34.668C128.155 35.0783 128.27 35.5447 128.256 36.0163ZM126.235 35.9674C126.239 35.6968 126.186 35.4284 126.081 35.1794C125.976 34.9303 125.82 34.7061 125.624 34.5212C125.217 34.1207 124.623 33.9213 123.843 33.9231C123.572 33.9201 123.302 33.9319 123.032 33.9585C122.819 33.9802 122.657 33.9938 122.543 33.9938V37.5278C122.536 37.6509 122.56 37.7738 122.613 37.8847C122.667 37.9957 122.748 38.0909 122.848 38.1612C123.19 38.3332 123.573 38.4066 123.954 38.3732C124.345 38.3865 124.734 38.3103 125.092 38.1503C125.367 38.026 125.607 37.8322 125.786 37.5876C125.952 37.3541 126.073 37.0912 126.143 36.8128C126.205 36.5354 126.236 36.2518 126.235 35.9674Z" fill="#103746"/>
<path d="M142.355 39.0691H137.52V38.4031L137.996 38.3651C138.14 38.3552 138.283 38.3278 138.42 38.2835C138.604 38.2323 138.762 38.1153 138.866 37.9546C138.975 37.783 139.03 37.5819 139.023 37.3783V30.1744H138.777L135.434 38.8979H134.812L131.669 30.0059H131.448V36.9705C131.434 37.25 131.484 37.529 131.594 37.786C131.679 37.967 131.827 38.1102 132.01 38.1884C132.154 38.258 132.307 38.3083 132.464 38.3379C132.631 38.3727 132.799 38.3963 132.969 38.4086V39.0746H129.132V38.4086L129.607 38.3705C129.752 38.3606 129.894 38.3332 130.032 38.289C130.127 38.2586 130.215 38.2072 130.288 38.1386C130.362 38.0699 130.419 37.9857 130.456 37.8921C130.551 37.6312 130.594 37.3541 130.583 37.0765V31.0334C130.591 30.811 130.543 30.5902 130.442 30.3919C130.345 30.2266 130.197 30.0977 130.021 30.0249C129.86 29.9493 129.69 29.8954 129.516 29.8645C129.353 29.8373 129.202 29.8183 129.062 29.8047V29.1387H133.158L135.637 36.2637L137.815 30.3565C137.882 30.1608 137.955 29.9297 138.036 29.6633C138.095 29.4925 138.138 29.317 138.166 29.1387H142.317V29.8047C142.123 29.8183 141.952 29.8346 141.809 29.8536C141.666 29.8727 141.539 29.8971 141.415 29.9243C141.328 29.9471 141.246 29.987 141.175 30.0416C141.103 30.0961 141.043 30.1644 140.998 30.2424C140.903 30.4238 140.856 30.6271 140.863 30.8323V37.275C140.855 37.4726 140.896 37.6692 140.985 37.8458C141.079 38.0025 141.224 38.1216 141.396 38.1829C141.54 38.2519 141.693 38.3021 141.85 38.3325C142.016 38.3672 142.185 38.3908 142.355 38.4031V39.0691Z" fill="#103746"/>
<path d="M152.959 38.8874C152.646 39.0016 152.37 39.094 152.135 39.1592C151.871 39.2337 151.598 39.2694 151.324 39.2652C150.88 39.2882 150.44 39.1589 150.078 38.8983C149.751 38.6245 149.538 38.236 149.484 37.8109H149.424C149.03 38.2632 148.556 38.6391 148.027 38.92C147.467 39.1885 146.851 39.3189 146.23 39.3006C145.896 39.3134 145.562 39.2597 145.249 39.1426C144.935 39.0256 144.648 38.8473 144.403 38.6183C144.165 38.387 143.977 38.1076 143.854 37.7983C143.731 37.4891 143.674 37.1571 143.687 36.8241C143.682 36.475 143.736 36.1275 143.846 35.7965C143.953 35.4961 144.117 35.2192 144.327 34.981C144.513 34.7619 144.737 34.5778 144.987 34.4373C145.235 34.2931 145.494 34.1668 145.76 34.0594C146.061 33.9452 146.67 33.7341 147.587 33.426C148.222 33.2286 148.842 32.986 149.443 32.7002V31.7025C149.435 31.534 149.417 31.3661 149.389 31.1996C149.352 30.9526 149.272 30.7141 149.151 30.4955C149.013 30.2399 148.82 30.018 148.587 29.8458C148.28 29.645 147.917 29.5496 147.551 29.574C147.259 29.5714 146.968 29.6239 146.695 29.7289C146.489 29.7991 146.299 29.9111 146.138 30.0579C146.148 30.2584 146.181 30.4572 146.235 30.6505C146.295 30.8879 146.327 31.1315 146.33 31.3763C146.326 31.5003 146.296 31.622 146.242 31.7332C146.187 31.8444 146.109 31.9424 146.014 32.0206C145.77 32.2278 145.457 32.333 145.138 32.3142C144.995 32.3252 144.852 32.2978 144.722 32.2347C144.593 32.1717 144.483 32.0753 144.403 31.9553C144.236 31.7017 144.154 31.4005 144.17 31.0964C144.186 30.7923 144.299 30.5015 144.492 30.2672C144.729 29.9689 145.015 29.7141 145.338 29.5142C145.676 29.3076 146.04 29.1467 146.419 29.0357C146.824 28.9077 147.246 28.8409 147.67 28.8373C148.162 28.8326 148.653 28.8717 149.138 28.9542C149.549 29.0294 149.938 29.1997 150.273 29.4517C150.621 29.71 150.889 30.0613 151.049 30.4656C151.245 30.9908 151.336 31.5496 151.319 32.1103C151.319 33.0726 151.319 33.9235 151.289 34.6656C151.259 35.4078 151.259 36.2179 151.259 37.0959C151.249 37.3127 151.296 37.5282 151.394 37.7212C151.496 37.8867 151.64 38.0219 151.811 38.1126C151.958 38.1858 152.122 38.2203 152.286 38.2132C152.502 38.2132 152.724 38.2132 152.951 38.2132L152.959 38.8874ZM149.465 33.5701C148.897 33.7386 148.4 33.9036 147.973 34.0649C147.555 34.2212 147.156 34.4246 146.784 34.6711C146.466 34.8836 146.196 35.1615 145.992 35.4866C145.791 35.8226 145.69 36.2093 145.7 36.6012C145.681 36.826 145.711 37.0523 145.786 37.2648C145.862 37.4773 145.982 37.6709 146.138 37.8326C146.443 38.1007 146.839 38.2417 147.243 38.2268C147.685 38.2353 148.12 38.1144 148.495 37.8788C148.841 37.6596 149.149 37.384 149.405 37.0633L149.465 33.5701Z" fill="#103746"/>
<path d="M165.261 39.0691H160.421V38.4031L160.896 38.3651C161.041 38.3552 161.185 38.3278 161.323 38.2835C161.499 38.2315 161.651 38.1189 161.753 37.9655C161.86 37.7892 161.913 37.5848 161.904 37.3783V34.214H157.507V37.275C157.5 37.473 157.549 37.6691 157.648 37.8404C157.751 37.9944 157.898 38.1137 158.07 38.1829C158.214 38.2519 158.367 38.3021 158.524 38.3325C158.691 38.3674 158.861 38.391 159.032 38.4031V39.0691H154.205V38.4031L154.681 38.3651C154.825 38.3552 154.967 38.3278 155.105 38.2835C155.279 38.2343 155.427 38.1206 155.521 37.9655C155.618 37.7855 155.665 37.5827 155.656 37.3783V30.9328C155.663 30.7365 155.615 30.5423 155.516 30.3728C155.416 30.2154 155.269 30.0936 155.097 30.0249C154.936 29.9501 154.766 29.8962 154.591 29.8645C154.427 29.8373 154.275 29.8183 154.135 29.8047V29.1387H158.961V29.8047C158.767 29.8183 158.599 29.8346 158.453 29.8536C158.307 29.8727 158.183 29.8971 158.059 29.9243C157.972 29.9471 157.891 29.987 157.819 30.0416C157.748 30.0961 157.688 30.1644 157.643 30.2424C157.547 30.4238 157.501 30.6271 157.507 30.8323V33.3876H161.904V30.941C161.91 30.7448 161.861 30.5509 161.764 30.381C161.662 30.2239 161.515 30.1024 161.342 30.033C161.182 29.9575 161.012 29.9035 160.837 29.8727C160.675 29.8455 160.523 29.8264 160.383 29.8128V29.1468H165.207V29.8128C165.015 29.8264 164.845 29.8427 164.701 29.8618C164.558 29.8808 164.431 29.9053 164.307 29.9325C164.22 29.9549 164.138 29.9946 164.067 30.0492C163.995 30.1038 163.935 30.1723 163.891 30.2505C163.795 30.4319 163.749 30.6353 163.756 30.8404V37.2831C163.747 37.4804 163.788 37.6766 163.874 37.854C163.97 38.0095 164.115 38.1282 164.285 38.1911C164.431 38.2603 164.584 38.3105 164.742 38.3406C164.909 38.3756 165.077 38.3992 165.247 38.4113L165.261 39.0691Z" fill="#103746"/>
<path d="M61.7563 50.2914V50.0494C61.8192 50.0562 61.8828 50.0484 61.9423 50.0268C62.0018 50.0051 62.0556 49.9701 62.0996 49.9244C62.1706 49.822 62.2109 49.7012 62.2158 49.5764C62.2293 49.4296 62.2347 49.2583 62.2347 49.0653V47.1162C62.2347 47.0075 62.2347 46.9123 62.2347 46.8281C62.237 46.7369 62.2461 46.646 62.2617 46.5562L61.7563 46.5807V46.249H65.9722V46.491C65.9098 46.485 65.8468 46.4932 65.7879 46.5148C65.729 46.5364 65.6756 46.571 65.6317 46.616C65.5583 46.7172 65.5177 46.8387 65.5155 46.964C65.5155 47.1108 65.4993 47.282 65.4993 47.475L65.4831 49.4242C65.4831 49.5329 65.4831 49.628 65.4831 49.7123C65.4797 49.8035 65.4698 49.8944 65.4533 49.9842L65.9587 49.9597V50.2914H64.3156V50.0494C64.3789 50.0564 64.443 50.0488 64.5029 50.0271C64.5629 50.0054 64.6171 49.9703 64.6615 49.9244C64.7314 49.8214 64.7716 49.7009 64.7777 49.5764C64.7912 49.4296 64.7966 49.2583 64.7966 49.0653V47.1162C64.7966 47.0075 64.7966 46.9123 64.7966 46.8281C64.799 46.7369 64.808 46.646 64.8237 46.5562L63.3968 46.5725C63.3356 46.5657 63.2737 46.5714 63.2147 46.5891C63.1558 46.6069 63.1009 46.6364 63.0535 46.6758C62.9827 46.7626 62.9427 46.8707 62.94 46.983C62.94 47.1189 62.9211 47.282 62.9157 47.475V49.4242C62.9157 49.5329 62.9157 49.628 62.9157 49.7123C62.9119 49.8034 62.9029 49.8941 62.8887 49.9842L63.3913 49.9597V50.2914H61.7563Z" fill="#103746"/>
<path d="M68.7395 50.4249C68.3946 50.4278 68.0546 50.3437 67.7504 50.1802C67.449 50.0157 67.1992 49.77 67.0288 49.4707C66.8416 49.129 66.7483 48.7434 66.7586 48.3534C66.7585 48.0745 66.8098 47.798 66.9099 47.5379C67.011 47.2764 67.1564 47.0345 67.3396 46.8229C67.523 46.6117 67.7474 46.4406 67.999 46.32C68.2655 46.1951 68.5564 46.1319 68.8503 46.1352C69.1169 46.13 69.382 46.1761 69.6313 46.2711C69.8308 46.3474 70.0082 46.4726 70.1475 46.6353C70.2651 46.7721 70.3303 46.9466 70.3312 47.1274C70.3336 47.2357 70.3004 47.3418 70.2367 47.4291C70.204 47.4692 70.1626 47.5013 70.1158 47.5229C70.069 47.5446 70.0179 47.5553 69.9664 47.5542C69.9122 47.5619 69.857 47.5543 69.8069 47.5322C69.7568 47.5101 69.7137 47.4744 69.6826 47.4291C69.6321 47.3591 69.6022 47.2762 69.5962 47.1899C69.5965 47.1338 69.6047 47.0779 69.6205 47.0241C69.6389 46.9648 69.6725 46.9114 69.7178 46.8691C69.6814 46.7483 69.6014 46.6455 69.4935 46.581C69.3902 46.5224 69.2778 46.482 69.1611 46.4614C69.0673 46.4448 68.9725 46.4357 68.8773 46.4342C68.7011 46.4319 68.5268 46.4702 68.3675 46.546C68.2083 46.6219 68.0684 46.7333 67.9585 46.8718C67.6868 47.2394 67.5545 47.6925 67.5855 48.1495C67.5794 48.4778 67.6382 48.804 67.7585 49.1091C67.857 49.368 68.0243 49.5946 68.2422 49.7643C68.4489 49.9239 68.7033 50.0082 68.9638 50.0035C69.2178 50.0023 69.4669 49.9328 69.6854 49.8023C69.9003 49.6817 70.0851 49.5135 70.2258 49.3103L70.4339 49.4707C70.3044 49.6841 70.1335 49.869 69.9313 50.0144C69.7485 50.1477 69.546 50.2513 69.3313 50.3216C69.1403 50.3855 68.9408 50.4203 68.7395 50.4249Z" fill="#103746"/>
<path d="M72.8525 46.5073C72.7896 46.5004 72.726 46.508 72.6665 46.5297C72.607 46.5514 72.5532 46.5865 72.5093 46.6324C72.4381 46.7345 72.3986 46.8556 72.3958 46.9803C72.3958 47.1271 72.3769 47.2984 72.3715 47.4914V49.4405C72.3715 49.5493 72.3715 49.6444 72.3715 49.7287C72.3677 49.8198 72.3587 49.9105 72.3445 50.0005H72.5958L72.8471 49.9869V50.2914H71.2148V50.0495C71.2782 50.0564 71.3422 50.0488 71.4022 50.0271C71.4621 50.0055 71.5163 49.9704 71.5608 49.9244C71.6318 49.822 71.6721 49.7012 71.677 49.5765C71.677 49.4297 71.6959 49.2584 71.6959 49.0654V47.1163C71.6959 47.0075 71.6959 46.9124 71.6959 46.8281C71.6982 46.737 71.7073 46.6461 71.7229 46.5563H71.4716H71.2175V46.2246H72.8607L72.8525 46.5073ZM74.4227 46.6541L74.6794 46.8471L72.2202 49.9489L71.9499 49.7232L74.4227 46.6541ZM75.5226 46.5073C75.4601 46.5008 75.397 46.5087 75.338 46.5303C75.279 46.552 75.2257 46.5869 75.1821 46.6324C75.1077 46.7333 75.0662 46.8548 75.0632 46.9803C75.0632 47.1271 75.0497 47.2984 75.0497 47.4914L75.0334 49.4405C75.0334 49.5493 75.0334 49.6444 75.0334 49.7287C75.0334 49.813 75.0334 49.8972 75.0145 50.0005H75.2659L75.5199 49.9869V50.2914H73.8768V50.0495C73.9397 50.0564 74.0033 50.0488 74.0629 50.0271C74.1224 50.0054 74.1761 49.9703 74.22 49.9244C74.291 49.822 74.3314 49.7012 74.3362 49.5765C74.3497 49.4297 74.3578 49.2584 74.3578 49.0654V47.1163C74.3578 47.0075 74.3578 46.9124 74.3578 46.8281C74.3616 46.7371 74.3706 46.6463 74.3849 46.5563H74.1335H73.8822V46.2246H75.5172L75.5226 46.5073Z" fill="#103746"/>
<path d="M76.3711 50.2914V50.0495C76.5201 50.0167 76.6568 49.9422 76.7657 49.8347C76.8958 49.6955 77.0185 49.5494 77.1332 49.3971L77.9439 48.3477L77.6737 47.9808C77.5656 47.8394 77.4656 47.7089 77.3737 47.5703C77.2818 47.4316 77.2062 47.3419 77.1521 47.2767C77.0523 47.1409 76.962 46.9983 76.8819 46.8499C76.8251 46.7357 76.7819 46.646 76.7548 46.578L76.3765 46.5944V46.2627H78.0277V46.5046C77.7872 46.5046 77.6521 46.5644 77.625 46.6705C77.598 46.7765 77.6791 46.9641 77.8764 47.2386L78.3412 47.8747L79.0709 46.9885L79.2709 46.7439C79.3206 46.6802 79.3738 46.6194 79.4303 46.5617L78.8898 46.5944V46.2627H80.2032V46.5046C80.0724 46.5413 79.9476 46.5971 79.833 46.6705C79.7223 46.7484 79.6215 46.8397 79.533 46.9423C79.433 47.051 79.3141 47.1951 79.1682 47.3718L78.5115 48.1167L79.6168 49.4949L79.7924 49.7287C79.8577 49.8154 79.9173 49.9062 79.9708 50.0006L80.3302 49.9761V50.2914H78.7817V50.0495C78.8306 50.053 78.8797 50.0466 78.9261 50.0307C78.9725 50.0149 79.0153 49.9898 79.052 49.9571C79.1087 49.8945 79.079 49.794 78.9682 49.6553L78.1277 48.606L77.4548 49.533C77.3737 49.6417 77.3116 49.7206 77.2683 49.7749C77.2251 49.8293 77.1656 49.8973 77.0846 49.9842L77.7034 49.9598V50.2914H76.3711Z" fill="#103746"/>
<path d="M82.857 50.4249C82.4995 50.4262 82.148 50.3325 81.8381 50.153C81.5357 49.9817 81.2854 49.7308 81.1139 49.4272C80.9301 49.105 80.8366 48.7385 80.8436 48.367C80.8398 47.9691 80.9326 47.5763 81.1139 47.2226C81.2776 46.8907 81.5267 46.6091 81.8354 46.407C82.142 46.2107 82.4989 46.1087 82.8624 46.1134C83.2193 46.1101 83.5704 46.204 83.8785 46.3853C84.1796 46.5614 84.4309 46.8122 84.6082 47.1138C84.7916 47.4323 84.8851 47.7951 84.8784 48.1631C84.8837 48.5569 84.7908 48.9457 84.6082 49.294C84.4424 49.6253 84.1926 49.9067 83.8839 50.1096C83.5808 50.3159 83.223 50.4258 82.857 50.4249ZM82.9191 50.1041C83.0416 50.1106 83.1642 50.0925 83.2797 50.051C83.3952 50.0095 83.5014 49.9453 83.592 49.8622C83.7656 49.6883 83.8889 49.4704 83.9488 49.2315C84.0225 48.9661 84.0589 48.6915 84.0569 48.416C84.0577 48.1769 84.035 47.9383 83.9893 47.7037C83.9482 47.4821 83.8773 47.2672 83.7785 47.0649C83.6913 46.8863 83.5635 46.7307 83.4056 46.6109C83.2483 46.4974 83.0586 46.4382 82.8651 46.4424C82.616 46.4314 82.3722 46.517 82.1841 46.6816C82.0004 46.8528 81.866 47.0707 81.7949 47.3123C81.7099 47.5802 81.668 47.8601 81.6706 48.1414C81.6692 48.4617 81.7147 48.7805 81.8057 49.0874C81.8827 49.3618 82.0256 49.613 82.2219 49.8187C82.3131 49.911 82.4218 49.9838 82.5416 50.0328C82.6614 50.0819 82.7898 50.1061 82.9191 50.1041Z" fill="#103746"/>
<path d="M86.0083 50.3841C85.851 50.3946 85.6945 50.3536 85.5624 50.2672C85.5128 50.2326 85.4725 50.1862 85.4452 50.1321C85.4178 50.078 85.4042 50.0179 85.4056 49.9573C85.4016 49.8529 85.4331 49.7504 85.4948 49.6664C85.528 49.6273 85.5696 49.5963 85.6164 49.5756C85.6631 49.5549 85.714 49.545 85.765 49.5468C85.8144 49.5429 85.864 49.5495 85.9106 49.5664C85.9572 49.5833 85.9997 49.61 86.0353 49.6447C86.0867 49.6959 86.1166 49.7649 86.1191 49.8377C86.1202 49.8576 86.1202 49.8775 86.1191 49.8975C86.1213 49.9173 86.1213 49.9374 86.1191 49.9573C86.1425 49.9661 86.1671 49.9716 86.192 49.9736C86.2974 49.9736 86.4109 49.8676 86.5271 49.6501C86.6851 49.3122 86.7943 48.9534 86.8514 48.5845C86.9685 47.9226 87.0372 47.2529 87.0568 46.581L86.3028 46.6136V46.2656H89.7566V46.5076C89.6942 46.5016 89.6312 46.5098 89.5723 46.5314C89.5134 46.553 89.46 46.5876 89.4161 46.6326C89.3427 46.7338 89.3021 46.8553 89.2999 46.9806C89.2999 47.1274 89.2837 47.2986 89.2837 47.4916V49.4408C89.2837 49.5495 89.2837 49.6447 89.2674 49.7289C89.2512 49.8132 89.2512 49.8975 89.2377 50.0008L89.7404 49.9763V50.2916H88.1189V50.0497C88.1818 50.0565 88.2454 50.0487 88.3048 50.0271C88.3643 50.0054 88.4181 49.9704 88.4621 49.9247C88.5331 49.8223 88.5735 49.7015 88.5783 49.5767C88.5918 49.4299 88.5999 49.2586 88.6053 49.0656V47.1165C88.6053 47.0078 88.6053 46.9126 88.6053 46.8283C88.6077 46.7372 88.6167 46.6463 88.6324 46.5565H87.927C87.855 46.5482 87.782 46.5601 87.7162 46.5908C87.6504 46.6215 87.5943 46.6698 87.5541 46.7305C87.4818 46.8733 87.4474 47.0325 87.4541 47.1926C87.4325 47.5759 87.3946 47.9538 87.3379 48.3289C87.2893 48.6775 87.2078 49.0207 87.0947 49.3538C87.0069 49.6263 86.8633 49.8773 86.6731 50.0905C86.5906 50.1857 86.4883 50.2614 86.3733 50.3122C86.2584 50.3629 86.1337 50.3875 86.0083 50.3841Z" fill="#103746"/>
<path d="M92.5374 50.4249C92.1807 50.4263 91.8301 50.3325 91.5212 50.1531C91.2188 49.9817 90.9685 49.7308 90.797 49.4272C90.6132 49.105 90.5198 48.7385 90.5267 48.367C90.5229 47.9691 90.6157 47.5763 90.797 47.2226C90.9607 46.8907 91.2098 46.6091 91.5185 46.407C91.8241 46.2107 92.1802 46.1086 92.5428 46.1134C92.9006 46.1097 93.2527 46.2037 93.5616 46.3853C93.8621 46.5622 94.1132 46.8128 94.2913 47.1138C94.4747 47.4323 94.5682 47.7951 94.5615 48.1631C94.5654 48.5567 94.4726 48.9452 94.2913 49.294C94.1255 49.6253 93.8757 49.9067 93.567 50.1096C93.2631 50.3163 92.9043 50.4262 92.5374 50.4249ZM92.6022 50.1041C92.7247 50.1106 92.8473 50.0925 92.9628 50.051C93.0783 50.0095 93.1845 49.9453 93.2751 49.8622C93.452 49.6887 93.5798 49.471 93.6454 49.2315C93.7191 48.9661 93.7555 48.6916 93.7535 48.416C93.7543 48.1769 93.7317 47.9383 93.6859 47.7037C93.6452 47.4817 93.5733 47.2666 93.4724 47.0649C93.3869 46.8852 93.2588 46.7293 93.0995 46.6109C92.9424 46.497 92.7526 46.4379 92.559 46.4424C92.31 46.4325 92.0667 46.518 91.878 46.6816C91.696 46.8538 91.5627 47.0714 91.4915 47.3123C91.4066 47.5803 91.3646 47.8602 91.3672 48.1414C91.3643 48.4618 91.4098 48.7808 91.5023 49.0874C91.5793 49.3618 91.7222 49.613 91.9185 49.8187C92.0079 49.9096 92.1144 49.9816 92.2318 50.0306C92.3492 50.0796 92.4751 50.1046 92.6022 50.1041Z" fill="#103746"/>
<path d="M95.3398 50.2914V50.0495C95.4027 50.0562 95.4663 50.0485 95.5258 50.0268C95.5853 50.0051 95.639 49.9701 95.683 49.9244C95.7541 49.822 95.7944 49.7012 95.7993 49.5765C95.7993 49.4297 95.8209 49.2584 95.8209 49.0654V47.1163C95.8209 47.0075 95.8209 46.9124 95.8209 46.8281C95.8242 46.7369 95.8341 46.646 95.8506 46.5563H95.5966H95.3452V46.2246H98.3558L98.3882 47.4425H98.0855C98.0888 47.2563 98.0548 47.0715 97.9856 46.8988C97.9535 46.8332 97.908 46.775 97.8521 46.7282C97.7963 46.6814 97.7312 46.6469 97.6613 46.627C97.4444 46.5645 97.2191 46.5369 96.9938 46.5454H96.5073V49.397C96.5073 49.5058 96.5073 49.6009 96.5073 49.6852C96.505 49.7764 96.4959 49.8672 96.4803 49.957L96.9856 49.9326V50.2914H95.3398Z" fill="#103746"/>
<path d="M24.6646 12.0047C24.6526 12.8232 24.451 13.6276 24.0757 14.3539C23.7004 15.0802 23.1617 15.7084 22.5026 16.1884L22.3702 16.2863C21.9322 16.5869 21.4638 16.8403 20.973 17.042C20.957 17.0511 20.9397 17.0576 20.9216 17.061C20.1193 17.3862 19.2673 17.5701 18.4029 17.6047C11.0198 17.9092 4.67976 12.0645 3.8501 7.68239H5.20133C5.7067 9.55812 9.02533 12.089 12.5358 12.7441H12.571L12.5467 12.6327C12.5223 12.4669 12.5088 12.301 12.5007 12.1325V11.9911C12.5007 11.9123 12.5007 11.8335 12.5007 11.7546C12.6034 9.30802 14.4897 7.27734 17.022 6.682H17.0409C17.1084 6.66841 17.176 6.6521 17.2463 6.64122C17.3165 6.63035 17.4571 6.60316 17.5679 6.58957C17.6246 6.58957 17.6841 6.57054 17.7435 6.56511C18.0225 6.53184 18.3031 6.5137 18.584 6.51074H18.6434C21.9702 6.55152 24.6646 8.9954 24.6646 12.0047Z" fill="#A18E80"/>
<path d="M44.6498 11.1868C45.7172 9.53397 50.0142 9.42252 50.0142 9.42252C48.5791 9.02019 46.7361 8.19649 45.6362 7.32115C44.3444 6.2963 43.8606 5.03223 41.3554 5.03223C38.5395 5.03223 36.5261 6.82368 35.0452 6.82368C35.3154 7.15261 36.7693 7.68542 37.2261 7.76154C34.0804 12.6683 27.7674 18.1378 13.6389 22.7592C13.6389 22.7592 14.7199 23.8004 15.7468 23.678C13.5848 24.7491 4.10994 27.4485 4.10994 27.4485L2.4209 29.1992H18.806C21.9111 29.1992 23.1164 29.5254 25.4514 32.0237C25.6649 31.5316 27.2837 29.1992 31.4752 29.1992C46.1604 29.1992 41.8662 15.694 44.6498 11.1868Z" fill="#A18E80"/>
<path d="M48.652 37.6177C42.6633 37.6422 36.8097 31.1424 32.2182 31.1641C27.6267 31.1859 25.4377 35.2418 25.4377 35.2418C25.4377 35.2418 23.2055 31.2049 18.6113 31.2239C14.0171 31.2429 7.53114 37.7835 1.54246 37.808L-0.130371 39.787H24.1919C24.2063 39.4585 24.3451 39.148 24.5797 38.9191C24.8143 38.6902 25.1271 38.5601 25.454 38.5556C25.7822 38.5599 26.0965 38.6895 26.3333 38.9181C26.5701 39.1468 26.7117 39.4573 26.7295 39.787H50.1356L48.652 37.6177Z" fill="#A18E80"/>
</g>
<defs>
<clipPath id="clip0_594_785">
<rect width="165" height="56" fill="white"/>
</clipPath>
</defs>
</svg>
