<svg width="127" height="74" viewBox="0 0 127 74" fill="none" xmlns="http://www.w3.org/2000/svg">
<rect width="127" height="74" rx="10" fill="#EAEAED"/>
<path fill-rule="evenodd" clip-rule="evenodd" d="M60.9096 19.4118C58.8231 19.8615 57.008 21.6122 56.4805 23.6837C56.3569 24.1688 56.3293 25.0558 56.3293 28.5429V32.8086L56.7837 32.496C58.9243 31.0231 63.0048 30.5617 67.3318 31.3034C67.989 31.416 68.6611 31.5441 68.8253 31.5881L69.1241 31.6679L69.1519 32.9341L69.1798 34.2002L68.7873 33.9999C68.2032 33.702 67.2278 33.3518 66.3859 33.1381C65.3504 32.8751 62.9816 32.8681 62.2433 33.1259C61.0752 33.5337 60.1639 34.4229 59.8395 35.4713C59.5816 36.3046 59.6133 37.8458 59.9036 38.5947C60.1739 39.2921 60.8272 40.0372 61.4798 40.3924C63.1584 41.3061 65.9323 41.1281 68.6043 39.9352L69.1797 39.6783L69.1519 40.9437L69.1241 42.2092L68.0288 42.4291C66.3137 42.7737 65.1766 42.8844 63.349 42.885C60.4036 42.8858 58.2759 42.3939 56.7837 41.367L56.3293 41.0545V47.8306V54.6066L60.8847 54.605C65.9724 54.603 66.3053 54.5707 67.5514 53.9575C68.8246 53.3309 69.8826 52.1581 70.4487 50.7455L70.7172 50.0758L70.7436 34.6661L70.77 19.2564L66.1634 19.2643C62.6119 19.2704 61.4085 19.3042 60.9096 19.4118Z" fill="url(#paint0_linear_901_1389)"/>
<path d="M72.7 24.02C73.1487 21.6388 75.0744 19.7665 77.4899 19.3628C77.7627 19.3172 80.014 19.2745 82.4929 19.2682L87 19.2564L86.9735 34.6163L86.9472 49.9763L86.7104 50.6094C86.1871 52.0082 85.0782 53.2697 83.8082 53.9108C82.7146 54.463 82.4749 54.4859 77.3138 54.5309L72.5593 54.5723V48.5717V42.571L77.5627 42.5893L82.5661 42.6075L83.2405 42.3746C84.6377 41.8919 85.4038 40.9342 85.4038 39.6699C85.4038 38.236 84.4555 37.251 82.7064 36.8681L82.1678 36.7502L82.6159 36.6329C82.8623 36.5684 83.1984 36.4449 83.3626 36.3584C83.7955 36.1305 84.3722 35.4995 84.5679 35.0395C84.7785 34.5445 84.7843 33.5726 84.5794 33.0838C84.3421 32.5177 83.7681 31.9556 83.1398 31.6738C82.2006 31.2525 81.2037 31.1825 76.6915 31.2208L72.6091 31.2556L72.5827 28.0193C72.5623 25.5261 72.5893 24.6078 72.7 24.02Z" fill="url(#paint1_linear_901_1389)"/>
<path d="M75.4468 35.9021V34.4421V32.9821L77.2142 33.015C78.7745 33.0441 79.0224 33.0717 79.3301 33.2505C80.245 33.7823 80.2303 35.154 79.3043 35.6597C79.0377 35.8053 78.6738 35.8417 77.2142 35.869L75.4468 35.9021Z" fill="url(#paint2_linear_901_1389)"/>
<path d="M75.4468 40.6657V39.1147V37.5636L77.3636 37.5961C79.083 37.6252 79.3161 37.6496 79.6285 37.8331C80.6611 38.4398 80.702 39.8587 79.7044 40.4671C79.4095 40.6469 79.1999 40.665 77.4133 40.6653L75.4468 40.6657Z" fill="url(#paint3_linear_901_1389)"/>
<path d="M40.1611 23.9064C40.6817 21.5912 42.492 19.8162 44.7946 19.3634C45.0327 19.3166 47.3233 19.2733 49.8848 19.2674L54.5421 19.2564L54.5142 34.467C54.4875 48.9785 54.4777 49.7027 54.3015 50.2252C53.569 52.3963 52.0984 53.811 50.0107 54.353C49.5158 54.4815 48.6358 54.5071 44.7087 54.5071H40V48.3332C40 44.9376 40.0133 42.1594 40.0296 42.1594C40.0458 42.1594 40.4718 42.2495 40.9761 42.3595C43.9827 43.0158 48.1049 43.0195 49.9844 42.3678C51.481 41.8488 52.5216 40.9842 52.9619 39.8937C53.1886 39.3324 53.1936 39.2437 53.2221 35.2636L53.2511 31.2058H50.7641H48.277L48.2458 35.0147C48.2148 38.7846 48.2121 38.8289 47.9766 39.3501C47.6752 40.017 47.0034 40.6184 46.3398 40.8156C45.691 41.0083 44.3221 41.0058 43.2905 40.81C42.4415 40.649 41.0148 40.1824 40.3734 39.8559L40 39.6658V32.1445C40 25.576 40.0204 24.5324 40.1611 23.9064Z" fill="url(#paint4_linear_901_1389)"/>
<defs>
<linearGradient id="paint0_linear_901_1389" x1="56.3293" y1="36.9256" x2="70.7735" y2="36.9256" gradientUnits="userSpaceOnUse">
<stop stop-color="#6E2B2F"/>
<stop offset="1" stop-color="#E50039"/>
</linearGradient>
<linearGradient id="paint1_linear_901_1389" x1="72.5593" y1="36.9084" x2="87.0034" y2="36.9084" gradientUnits="userSpaceOnUse">
<stop stop-color="#007A40"/>
<stop offset="1" stop-color="#55B232"/>
</linearGradient>
<linearGradient id="paint2_linear_901_1389" x1="72.5593" y1="36.9084" x2="87.0034" y2="36.9084" gradientUnits="userSpaceOnUse">
<stop stop-color="#007A40"/>
<stop offset="1" stop-color="#55B232"/>
</linearGradient>
<linearGradient id="paint3_linear_901_1389" x1="72.5593" y1="36.9084" x2="87.0034" y2="36.9084" gradientUnits="userSpaceOnUse">
<stop stop-color="#007A40"/>
<stop offset="1" stop-color="#55B232"/>
</linearGradient>
<linearGradient id="paint4_linear_901_1389" x1="40" y1="36.8758" x2="54.5455" y2="36.8758" gradientUnits="userSpaceOnUse">
<stop stop-color="#1E286F"/>
<stop offset="1" stop-color="#006DB9"/>
</linearGradient>
</defs>
</svg>
