<svg width="127" height="74" viewBox="0 0 127 74" fill="none" xmlns="http://www.w3.org/2000/svg">
<rect width="127" height="74" rx="10" fill="#EAEAED"/>
<path fill-rule="evenodd" clip-rule="evenodd" d="M43.0849 29.1396C43.5682 29.2888 44.2103 29.7225 44.4872 30.0868C44.8488 30.5624 45.0263 31.0828 46.0877 34.7786C46.6859 36.8613 47.1754 38.584 47.1754 38.6067C47.1754 38.6295 47.2576 38.6384 47.3582 38.6267C47.5395 38.6056 47.5496 38.5754 48.6586 34.7312C49.2733 32.6004 49.8458 30.7238 49.9309 30.5611C50.1334 30.1736 50.6344 29.6426 50.9996 29.4286C51.6974 29.0197 51.8419 29.0041 54.9308 29.0041H57.755V37.1568V45.3095H55.127H52.4989V40.492V35.6745H52.3444C52.1987 35.6745 52.1072 35.9447 50.713 40.492L49.2358 45.3095H47.3654H45.495L45.3244 44.7537C45.2306 44.4479 44.5676 42.2876 43.8511 39.953C42.5716 35.784 42.5451 35.7078 42.3686 35.6869L42.1888 35.6655V40.4876V45.3095H39.5944H37V37.1568V29.0041H39.8232C42.4609 29.0041 42.6751 29.013 43.0849 29.1396ZM65.1676 33.8216V38.6391H65.3247C65.4669 38.6391 65.661 38.2506 67.3619 34.5602C68.4212 32.2618 69.3461 30.3434 69.4806 30.1654C69.7827 29.7657 70.2842 29.3832 70.7606 29.1889C71.122 29.0416 71.1945 29.0378 73.6761 29.0378H76.221L76.2211 37.1568L76.2212 45.2758L73.6257 45.2935L71.0302 45.3111V40.4883V35.6655L70.8574 35.6869C70.6989 35.7064 70.5294 36.0446 68.8082 39.776C67.7762 42.0132 66.8425 43.9688 66.7334 44.1219C66.4315 44.5453 65.7752 45.0134 65.261 45.1722C64.8482 45.2997 64.6413 45.3095 62.364 45.3095H59.9114V37.1568V29.0041H62.5395H65.1676V33.8216ZM94.8176 36.7889C94.8176 36.8089 94.7527 36.9529 94.6734 37.109C93.7522 38.9204 91.8469 40.185 89.6306 40.4559C89.3166 40.4943 87.8383 40.5257 86.3455 40.5257H83.6315V42.9176V45.3095H81.0034H78.3753V41.031V36.7525H86.5965C91.1181 36.7525 94.8176 36.7689 94.8176 36.7889Z" fill="#0F754E"/>
<path d="M89.7136 35.7915H95.0034C95.5588 31.5981 92.358 29.0404 89.4604 29.0404C88.177 29.0404 84.2536 29.0202 84.2536 29.0202L78.1035 29L78.1427 29.2884C78.3936 31.1359 79.048 32.4753 80.2915 33.6868C81.3005 34.6698 82.4857 35.3141 83.8585 35.6259C84.4465 35.7594 84.7058 35.7668 89.7136 35.7915Z" fill="url(#paint0_linear_901_1386)"/>
<defs>
<linearGradient id="paint0_linear_901_1386" x1="78.1453" y1="30.8866" x2="94.9935" y2="30.8866" gradientUnits="userSpaceOnUse">
<stop stop-color="#02ACFE"/>
<stop offset="1" stop-color="#1D60D9"/>
</linearGradient>
</defs>
</svg>
