<svg width="127" height="74" viewBox="0 0 127 74" fill="none" xmlns="http://www.w3.org/2000/svg">
<rect width="127" height="74" rx="10" fill="#EAEAED"/>
<path fill-rule="evenodd" clip-rule="evenodd" d="M86.6165 52.6234C86.6165 53.1952 86.5983 53.6631 86.5759 53.6631C86.5536 53.6631 86.4326 53.5865 86.307 53.4927C85.5857 52.9542 84.3004 53.1211 83.7033 53.8307C83.2984 54.3121 83.2108 54.5817 83.2108 55.3482C83.2108 56.0091 83.2274 56.0954 83.4236 56.4495C83.8252 57.1746 84.4468 57.5366 85.2849 57.5336C85.7389 57.532 86.2132 57.3686 86.3923 57.1521C86.5392 56.9745 86.6165 57.0077 86.6165 57.2484V57.4635H87.0467H87.4769V54.5236V51.5836H87.0467H86.6165V52.6234ZM59.299 52.5875V53.2329H58.8689H58.4387V53.6631V54.0933H58.8632H59.2876L59.3113 55.402C59.3332 56.6185 59.3464 56.7292 59.4989 56.9744C59.7158 57.3232 60.1589 57.5352 60.6709 57.5352C61.07 57.5352 61.7707 57.3675 61.84 57.2555C61.8683 57.2097 61.6993 56.574 61.6341 56.4808C61.6284 56.4727 61.496 56.5116 61.3398 56.5672C60.9023 56.7231 60.61 56.7016 60.4072 56.4987C60.2354 56.327 60.2311 56.2958 60.2311 55.2105V54.0984L60.9661 54.0779L61.701 54.0575V53.6631V53.2687L60.9661 53.2483L60.2311 53.2279V52.585V51.9422H59.7651H59.299V52.5875ZM42.882 53.241C42.7846 53.2798 42.5991 53.3923 42.4698 53.491L42.2346 53.6704V53.4516V53.2329H41.7685H41.3025V55.3482V57.4635H41.7685H42.2346L42.2349 56.0832C42.2351 54.8252 42.2479 54.6818 42.3798 54.4655C42.7307 53.8899 43.6923 53.8891 44.0032 54.4641C44.1117 54.6648 44.1363 54.9233 44.158 56.0864L44.1837 57.47L44.6253 57.4488L45.0667 57.4276L45.1026 56.0259C45.1426 54.4607 45.1839 54.3153 45.6436 54.1232C45.9514 53.9946 46.1898 53.9947 46.4983 54.1235C46.9227 54.3009 46.9667 54.4831 46.9667 56.0617V57.4635H47.5045H48.0422L48.0405 56.0832C48.0386 54.5767 47.9844 54.1985 47.7115 53.7831C47.3682 53.261 46.4844 53.0206 45.734 53.2455C45.5792 53.2919 45.3109 53.4545 45.1378 53.607L44.8229 53.8841L44.7058 53.7053C44.5173 53.4176 43.9222 53.1604 43.4573 53.1657C43.2383 53.1682 42.9794 53.202 42.882 53.241ZM50.1952 53.2857C49.7348 53.4481 49.1748 54.0316 49.0047 54.5259C48.816 55.0737 48.8329 55.8084 49.0454 56.3004C49.2462 56.7653 49.7773 57.2626 50.2423 57.421C50.8724 57.6358 51.6527 57.5421 52.0552 57.2034L52.2725 57.0205V57.242V57.4635H52.7386H53.2046V55.3482V53.2329H52.7386H52.2725V53.4838V53.7348L52.1227 53.585C51.7188 53.1811 50.8665 53.0487 50.1952 53.2857ZM55.1912 53.2711C54.6023 53.4872 54.3283 53.8026 54.2378 54.3683C54.2027 54.5877 54.2288 54.7355 54.3445 54.9746C54.5468 55.3926 54.9845 55.6326 55.7329 55.7361C56.3141 55.8165 56.736 55.9565 56.8234 56.0979C56.9267 56.2649 56.7904 56.5146 56.5282 56.639C56.15 56.8185 55.3446 56.7586 54.851 56.5143L54.4822 56.3317L54.2749 56.6587C54.0258 57.0513 54.0562 57.1087 54.6272 57.3249C55.1343 57.5168 56.0661 57.5855 56.5594 57.4671C57.368 57.2731 57.8486 56.7132 57.7741 56.0521C57.7539 55.8729 57.676 55.6411 57.6008 55.5372C57.3865 55.2405 56.7581 54.9638 56.1141 54.8825C55.2723 54.7763 55.001 54.5196 55.3556 54.165C55.5583 53.9623 56.3485 53.9659 56.8993 54.1721C57.1205 54.2547 57.3098 54.3113 57.3201 54.2976C57.3305 54.2838 57.422 54.1207 57.5235 53.9352C57.7403 53.5387 57.7304 53.5243 57.0966 53.3111C56.5708 53.1344 55.6183 53.1143 55.1912 53.2711ZM63.6338 53.3619C62.836 53.7475 62.4951 54.3403 62.4918 55.3482C62.49 55.9124 62.5149 56.0449 62.6905 56.4025C62.9045 56.8384 63.1528 57.0869 63.6285 57.3415C63.8763 57.474 64.0389 57.4993 64.6407 57.4993C65.272 57.4993 65.4048 57.4764 65.752 57.3075C66.3856 56.9991 66.3732 57.0208 66.1226 56.6564L65.9015 56.3351L65.5299 56.519C65.004 56.7794 64.4495 56.8056 64.0354 56.5898C63.7102 56.4203 63.5059 56.1915 63.4228 55.9039L63.3762 55.7426H64.9684H66.5605L66.512 55.2076C66.4538 54.5652 66.3693 54.2987 66.0968 53.8978C65.7752 53.4245 65.3452 53.2114 64.6473 53.1792C64.1229 53.155 64.0253 53.1726 63.6338 53.3619ZM69.0143 53.2446C68.9355 53.2882 68.7822 53.4062 68.6738 53.5069L68.4766 53.6899V53.4614V53.2329H68.0105H67.5445V55.3482V57.4635H68.0065H68.4685L68.4905 55.9589L68.5124 54.4543L68.7445 54.2223C68.9621 54.0049 69.0054 53.9912 69.4376 54.0041L69.8984 54.0177L70.012 53.6842C70.1891 53.1644 70.1866 53.1609 69.6417 53.1633C69.3755 53.1645 69.0932 53.2011 69.0143 53.2446ZM71.9306 53.2635C71.0289 53.5568 70.4842 54.3444 70.4842 55.3545C70.4842 56.6156 71.28 57.4461 72.5596 57.5202C73.1586 57.5548 73.76 57.4235 74.0486 57.1948L74.2073 57.0691L73.9951 56.7035L73.783 56.3378L73.4219 56.5166C72.8037 56.8224 72.1292 56.7384 71.7258 56.3051C71.192 55.7317 71.358 54.558 72.0257 54.1845C72.4292 53.9587 73.0069 53.9638 73.4453 54.1969L73.775 54.3722L73.9937 54.0165C74.1141 53.821 74.2125 53.6458 74.2125 53.6274C74.2125 53.6089 74.0431 53.5069 73.8361 53.4007C73.3772 53.1651 72.4402 53.0976 71.9306 53.2635ZM76.148 53.2281C75.6027 53.3941 75.1047 53.8475 74.8436 54.416C74.5989 54.9489 74.6125 55.8539 74.8727 56.3521C75.2551 57.084 75.8103 57.4635 76.5786 57.5181C77.1597 57.5594 77.576 57.4506 77.8627 57.1828L78.0843 56.9758V57.2196V57.4635H78.5503H79.0164V55.3482V53.2329H78.5503H78.0843V53.4973V53.7616L77.8871 53.5728C77.7786 53.4689 77.57 53.3338 77.4234 53.2725C77.1467 53.1569 76.4605 53.1331 76.148 53.2281ZM81.7051 53.274C81.5868 53.3355 81.4174 53.4538 81.3287 53.537L81.1674 53.6881V53.4605V53.2329H80.7013H80.2353V55.3482V57.4635H80.7013H81.1674V56.0988C81.1674 54.6007 81.2184 54.3475 81.5665 54.1195C81.7094 54.0258 81.8834 53.9947 82.2097 54.0044L82.6571 54.0175L82.7354 53.7061C82.7786 53.5349 82.834 53.3422 82.8587 53.278C82.8974 53.177 82.8368 53.1612 82.4119 53.1616C82.1069 53.1619 81.8386 53.2046 81.7051 53.274ZM65.2241 54.171C65.4012 54.3344 65.6086 54.7166 65.6086 54.8798C65.6086 54.9274 65.2247 54.9538 64.5331 54.9538C63.534 54.9538 63.4576 54.9443 63.4576 54.821C63.4576 54.6085 63.7618 54.2119 64.0326 54.0715C64.3855 53.8884 64.9706 53.9372 65.2241 54.171ZM51.6986 54.1735C52.5626 54.6591 52.5095 56.1109 51.6106 56.5757C51.2026 56.7867 50.5526 56.6894 50.2043 56.3652C49.7332 55.9265 49.6512 55.0457 50.0336 54.5293C50.415 54.0141 51.1396 53.8593 51.6986 54.1735ZM77.6461 54.2311C78.3074 54.702 78.3127 55.9906 77.6554 56.4587C77.2312 56.7608 76.5665 56.7573 76.136 56.4508C75.4417 55.9563 75.4897 54.6756 76.2212 54.1789C76.5619 53.9476 77.2852 53.974 77.6461 54.2311ZM85.9663 54.1266C86.445 54.3742 86.7416 54.994 86.649 55.5535C86.5306 56.2685 86.0618 56.6909 85.3925 56.6857C84.0572 56.6753 83.6267 54.8726 84.7882 54.1551C85.0519 53.9922 85.6771 53.977 85.9663 54.1266Z" fill="black"/>
<circle cx="54.0125" cy="32.7962" r="16.0125" fill="#EB001B"/>
<circle cx="73.9874" cy="32.7962" r="16.0125" fill="#F79E1B"/>
<path d="M63.9999 45.3129C67.6722 42.3788 70.0249 37.8622 70.0249 32.7962C70.0249 27.7301 67.6722 23.2135 63.9999 20.2794C60.3275 23.2135 57.9749 27.7301 57.9749 32.7962C57.9749 37.8622 60.3275 42.3788 63.9999 45.3129Z" fill="#FF5A00"/>
</svg>
