<svg width="127" height="74" viewBox="0 0 127 74" fill="none" xmlns="http://www.w3.org/2000/svg">
<rect width="127" height="74" rx="10" fill="#EAEAED"/>
<path fill-rule="evenodd" clip-rule="evenodd" d="M68.6706 28.1358C67.6252 28.3589 66.309 28.9006 65.5321 29.4273C64.6439 30.0295 64.0059 30.7926 63.5088 31.847C63.1126 32.6875 63.0933 32.7862 63.0933 33.9629C63.0933 35.0974 63.1208 35.2528 63.4339 35.8845C63.9761 36.9788 65.1174 37.9754 66.9545 38.9588C69.2965 40.2125 69.9499 41.0204 69.3999 41.9825C68.9264 42.8106 67.9963 43.1827 66.4306 43.1705C65.0862 43.1599 64.1323 42.9706 62.9323 42.4763C62.3974 42.256 61.9491 42.0886 61.936 42.1043C61.901 42.1459 61.1633 45.7467 61.149 45.9451C61.1328 46.1711 62.5242 46.6144 63.9985 46.853C65.5867 47.1098 68.1455 47.02 69.4225 46.6624C72.7188 45.7395 74.6133 43.3296 74.403 40.3271C74.2678 38.3977 73.1963 37.1509 70.3433 35.6037C68.3381 34.5162 67.869 34.0854 67.869 33.3312C67.869 32.9811 68.3435 32.3766 68.813 32.1285C69.7583 31.6292 71.7185 31.6881 73.5212 32.2697C74.0321 32.4346 74.466 32.5524 74.4853 32.5315C74.5046 32.5106 74.6997 31.6583 74.9188 30.6374C75.3781 28.4969 75.4643 28.7194 74.0212 28.3205C72.84 27.9939 69.8229 27.8898 68.6706 28.1358ZM33 28.551C33 28.7244 33.1214 28.8125 33.4891 28.9061C34.5617 29.1793 36.6573 29.8922 37.2004 30.1687C37.994 30.5727 38.3729 30.9684 38.5729 31.6014C38.7263 32.0874 39.3943 34.6964 41.5244 43.1319C41.9081 44.6513 42.2725 46.0937 42.3343 46.3374L42.4466 46.7806L44.9276 46.7488L47.4087 46.7172L51.1746 37.5482L54.9405 28.3792L52.5231 28.3475C51.0946 28.3287 50.0784 28.361 50.0387 28.4266C50.0017 28.4877 48.9157 31.2659 47.6252 34.6005C46.3348 37.9351 45.2465 40.6633 45.2067 40.6633C45.1669 40.6633 44.7262 38.4285 44.2274 35.6968C43.7286 32.9651 43.2501 30.446 43.164 30.0987C42.9656 29.2985 42.6511 28.8473 42.0862 28.5529C41.6652 28.3335 41.3965 28.3205 37.3201 28.3205C33.1051 28.3205 33 28.3261 33 28.551ZM56.9835 28.6158C56.9435 28.7782 56.0703 32.9174 55.0429 37.8141L53.1749 46.7172L55.4752 46.7491C56.7404 46.7666 57.7896 46.7666 57.8067 46.7491C57.8411 46.7139 61.6548 28.5301 61.6548 28.401C61.6548 28.3567 60.6201 28.3205 59.3554 28.3205H57.056L56.9835 28.6158ZM82.2948 28.5082C82.0957 28.6085 81.8229 28.8101 81.6886 28.9561C81.5543 29.1021 79.8378 33.1271 77.8742 37.9004C75.9104 42.6738 74.277 46.6236 74.2443 46.6777C74.2116 46.7318 75.2947 46.776 76.651 46.776H79.1172L79.6251 45.3948L80.1329 44.0135L83.1497 43.9822C84.8091 43.965 86.1667 43.9724 86.1667 43.9986C86.1667 44.0958 86.6339 46.3717 86.6947 46.5703C86.7516 46.7565 86.9592 46.776 88.8787 46.776C90.2159 46.776 91 46.7325 91 46.6584C91 46.5938 90.558 44.3854 90.0179 41.7507C89.4777 39.1161 88.6371 35.0165 88.1499 32.6405L87.2642 28.3205L84.9605 28.3232C83.115 28.3253 82.5847 28.3621 82.2948 28.5082ZM84.6666 36.7939C85.0411 38.6279 85.332 40.1445 85.3131 40.1637C85.2941 40.1831 84.4255 40.1844 83.3827 40.1667L81.4867 40.1344L82.3657 37.6658C82.8493 36.3081 83.3905 34.7847 83.5686 34.2805C83.7467 33.7764 83.9134 33.3854 83.9391 33.4115C83.9646 33.4377 84.292 34.9598 84.6666 36.7939Z" fill="#1634CC"/>
</svg>
