<svg width="24" height="24" viewBox="0 0 24 24" fill="none" xmlns="http://www.w3.org/2000/svg">
<path d="M21.9569 17.4969C21.9004 17.3264 21.5404 17.0753 20.8774 16.7441C20.6978 16.6398 20.4419 16.4979 20.1107 16.318C19.7793 16.138 19.4784 15.9722 19.2087 15.8206C18.9385 15.6691 18.6853 15.5224 18.4487 15.3805C18.4109 15.3521 18.2925 15.2694 18.0936 15.1317C17.8946 14.9945 17.7267 14.8927 17.5892 14.8263C17.4519 14.7602 17.3169 14.727 17.1843 14.727C16.9949 14.727 16.7584 14.862 16.4744 15.1317C16.1904 15.4018 15.9299 15.6952 15.6933 16.0127C15.4566 16.3301 15.2056 16.6234 14.9407 16.8933C14.6754 17.1633 14.4574 17.2982 14.2872 17.2982C14.2017 17.2982 14.0951 17.2744 13.9674 17.2273C13.8398 17.18 13.7426 17.1395 13.676 17.1068C13.6099 17.0734 13.4965 17.0073 13.3354 16.9076C13.174 16.8081 13.0843 16.7536 13.0653 16.7441C11.768 16.0243 10.6554 15.2004 9.72726 14.2726C8.79941 13.3443 7.9754 12.2318 7.25572 10.9343C7.24627 10.9154 7.19169 10.8254 7.09233 10.6645C6.99283 10.5034 6.92651 10.3899 6.89337 10.3235C6.86023 10.2572 6.81998 10.1601 6.77272 10.0323C6.72545 9.90448 6.70172 9.79801 6.70172 9.71268C6.70172 9.54233 6.8367 9.32441 7.10661 9.05922C7.37647 8.79419 7.67012 8.54314 7.98724 8.30656C8.30462 8.06998 8.59796 7.80948 8.86792 7.52548C9.13778 7.24134 9.27272 7.00472 9.27272 6.81536C9.27272 6.68287 9.23958 6.54779 9.17336 6.41052C9.10709 6.27295 9.00529 6.10508 8.86792 5.90612C8.73051 5.70726 8.64767 5.58899 8.61921 5.55093C8.47731 5.31436 8.33069 5.06106 8.17899 4.79115C8.02729 4.52129 7.86172 4.22048 7.68171 3.88908C7.50185 3.55782 7.35991 3.30204 7.25562 3.12213C6.92437 2.45937 6.67346 2.09936 6.50296 2.04274C6.43664 2.01433 6.33713 2 6.20469 2C5.94886 2 5.61511 2.04727 5.20321 2.14209C4.79115 2.23678 4.46691 2.33608 4.23013 2.44041C3.75663 2.63918 3.25477 3.21681 2.72441 4.17312C2.24145 5.0631 2 5.94398 2 6.81511C2 7.07059 2.01657 7.31916 2.0497 7.56086C2.08284 7.80231 2.14205 8.07461 2.22737 8.37771C2.31255 8.6807 2.38126 8.90579 2.4332 9.05236C2.48519 9.19903 2.58226 9.46178 2.72436 9.8407C2.86625 10.2195 2.95158 10.4514 2.97999 10.5366C3.31139 11.4647 3.70439 12.2933 4.15889 13.0225C4.90668 14.2346 5.92716 15.4872 7.21975 16.7799C8.51239 18.0725 9.76477 19.0929 10.977 19.841C11.7061 20.2955 12.5349 20.6884 13.4629 21.0201C13.5482 21.0483 13.7801 21.1335 14.1587 21.2759C14.5375 21.4179 14.8004 21.5149 14.9471 21.567C15.0938 21.6192 15.3189 21.6879 15.6217 21.7732C15.9251 21.8586 16.1971 21.9178 16.4386 21.9512C16.6802 21.9838 16.9288 22.0007 17.1843 22.0007C18.0554 22.0007 18.9363 21.7591 19.8265 21.2762C20.7827 20.746 21.3601 20.2441 21.559 19.7702C21.6636 19.5337 21.7626 19.2094 21.8573 18.7973C21.9523 18.3855 21.9995 18.0518 21.9995 17.796C21.9998 17.663 21.9855 17.5637 21.9569 17.4969Z" fill="#3A6F84"/>
</svg>
