<svg width="54" height="38" viewBox="0 0 54 38" fill="none" xmlns="http://www.w3.org/2000/svg">
<path d="M43.2276 37.9955C36.18 37.9999 34.5655 37.9867 34.2735 37.9384C34.0751 37.9076 33.7775 37.824 33.6122 37.758C33.4469 37.6877 33.1935 37.5381 33.0447 37.4194C32.9014 37.305 32.7031 37.0763 32.4275 36.6145L32.4275 25.0914C32.4276 14.1312 32.4331 13.5462 32.5267 13.1064C32.5818 12.8513 32.6976 12.4071 32.7857 12.1168C32.8739 11.8266 33.0337 11.3604 33.1439 11.0833C33.2596 10.8062 33.4414 10.3884 33.5571 10.1597C33.6729 9.93096 33.8767 9.55272 34.009 9.32402C34.1412 9.09531 34.4112 8.68629 34.5986 8.4224C34.7914 8.15851 35.122 7.73189 35.3314 7.4768C35.5463 7.2217 35.9596 6.77749 36.2516 6.49161C36.5437 6.20133 37.0396 5.74832 37.3592 5.48443C37.6788 5.21615 38.2078 4.81152 38.5439 4.58282C38.88 4.35411 39.4476 3.98907 39.8112 3.77355C40.1749 3.55365 40.792 3.21499 41.1888 3.02147C41.5855 2.82356 42.4231 2.45411 43.0622 2.19462C43.7014 1.93953 44.6051 1.60967 45.0735 1.46013C45.5418 1.3106 46.3022 1.09069 46.7541 0.971935C47.2114 0.853187 47.9553 0.672862 48.4071 0.571704C48.8645 0.474945 49.6194 0.325409 50.0878 0.241844C50.5561 0.162677 51.0741 0.0791128 51.5204 0.0219381L51.5204 5.12379L51.041 5.25573C50.771 5.3261 50.2806 5.49323 49.95 5.62957C49.6139 5.76152 49.0959 6.00342 48.7929 6.16615C48.4898 6.32448 48.0049 6.61476 47.7184 6.80828C47.4318 6.9974 47.0186 7.30527 46.8092 7.48119C46.5943 7.66152 46.2857 7.943 46.1149 8.11453C45.9496 8.28606 45.6851 8.57193 45.5308 8.75226C45.382 8.93258 45.1451 9.24045 45.0073 9.43397C44.8696 9.62749 44.6382 9.99254 44.4949 10.2476C44.3571 10.5027 44.1312 10.9689 43.999 11.2812C43.8722 11.5935 43.7014 12.0817 43.6243 12.3587C43.5471 12.6358 43.4259 13.1416 43.3598 13.4803C43.2386 14.0696 43.2331 14.228 43.2 20.7152L52.2643 20.7372L52.6335 20.878C52.8429 20.9571 53.1459 21.1286 53.3167 21.2518C53.5096 21.4013 53.6859 21.5905 53.9725 22.0567L53.9724 36.6145L53.7906 36.9092C53.6969 37.0763 53.4986 37.305 53.3498 37.4194C53.2065 37.5381 52.9531 37.6877 52.7878 37.758C52.6224 37.824 52.3359 37.9032 52.1541 37.934C51.8896 37.9824 50.0382 37.9955 43.2276 37.9955ZM10.8275 37.9955C3.77999 37.9999 2.1655 37.9867 1.87347 37.9384C1.6751 37.9076 1.37755 37.824 1.21224 37.758C1.04694 37.6877 0.793464 37.5381 0.644691 37.4194C0.501426 37.305 0.303058 37.0763 0.0275451 36.6145L0.0275461 25.0914C0.0275471 14.1312 0.0330555 13.5462 0.126729 13.1064C0.181833 12.8513 0.297548 12.4071 0.385713 12.1168C0.473874 11.8266 0.633672 11.3604 0.743875 11.0833C0.85959 10.8062 1.04143 10.3884 1.15714 10.1597C1.27286 9.93096 1.47673 9.55272 1.60898 9.32402C1.74122 9.09531 2.01122 8.68628 2.19857 8.42239C2.39143 8.15851 2.72204 7.73189 2.93143 7.47679C3.14633 7.2217 3.55959 6.77749 3.85163 6.49161C4.14367 6.20133 4.63959 5.74832 4.95918 5.48443C5.27877 5.21614 5.81326 4.81152 6.14388 4.58281C6.47449 4.35411 7.04755 3.98906 7.41122 3.77355C7.7749 3.55365 8.39755 3.21499 8.78877 3.02147C9.18 2.82355 10.0286 2.45411 10.6622 2.19462C11.2959 1.93953 12.2051 1.60967 12.6735 1.46013C13.1418 1.31059 13.8967 1.09068 14.3541 0.971932C14.8059 0.853184 15.5498 0.67286 16.0071 0.571702C16.459 0.474942 17.2194 0.325406 17.6878 0.241841C18.1561 0.162675 18.6741 0.0791099 19.1204 0.0219353L19.1204 5.12378L18.641 5.25573C18.371 5.3261 17.8806 5.49323 17.55 5.62957C17.2139 5.76152 16.6959 6.00341 16.3929 6.16615C16.0898 6.32448 15.6049 6.61476 15.3184 6.80828C15.0318 6.99739 14.6186 7.30527 14.4092 7.48119C14.1943 7.66151 13.8857 7.943 13.7149 8.11453C13.5496 8.28605 13.2851 8.57193 13.1308 8.75226C12.982 8.93258 12.7451 9.24045 12.6073 9.43397C12.4696 9.62749 12.2382 9.99253 12.0949 10.2476C11.9571 10.5027 11.7312 10.9689 11.599 11.2812C11.4722 11.5935 11.3014 12.0817 11.2243 12.3587C11.1471 12.6358 11.0259 13.1416 10.9598 13.4803C10.8386 14.0696 10.8331 14.228 10.8 20.7152L19.8643 20.7372L20.2335 20.878C20.4429 20.9571 20.7459 21.1286 20.9167 21.2518C21.1096 21.4013 21.2859 21.5905 21.5724 22.0567L21.5724 36.6145L21.3906 36.9092C21.2969 37.0763 21.0986 37.305 20.9498 37.4194C20.8065 37.5381 20.5531 37.6877 20.3878 37.758C20.2224 37.824 19.9359 37.9032 19.7541 37.934C19.4896 37.9823 17.6382 37.9955 10.8275 37.9955Z" fill="#A18E80" fill-opacity="0.26"/>
</svg>
