<svg width="36" height="36" viewBox="0 0 36 36" fill="none" xmlns="http://www.w3.org/2000/svg">
<path fill-rule="evenodd" clip-rule="evenodd" d="M21.502 20.0002H20.708L20.432 19.7262C21.407 18.5892 22 17.1152 22 15.5002C22 11.9102 19.09 9.00021 15.5 9.00021C11.91 9.00021 9 11.9102 9 15.5002C9 19.0902 11.91 22.0002 15.5 22.0002C17.115 22.0002 18.588 21.4082 19.725 20.4342L20.001 20.7082V21.5002L24.999 26.4912L26.49 25.0002L21.502 20.0002ZM15.5 20.0002C13.014 20.0002 11 17.9862 11 15.5002C11 13.0152 13.014 11.0002 15.5 11.0002C17.985 11.0002 20 13.0152 20 15.5002C20 17.9862 17.985 20.0002 15.5 20.0002Z" fill="#3A6F84"/>
</svg>
