<svg width="24" height="24" viewBox="0 0 24 24" fill="none" xmlns="http://www.w3.org/2000/svg">
<path d="M21.3506 13.4935C21.4156 12.974 21.4805 12.5195 21.4805 12C21.4805 6.80519 17.2597 2.51948 12 2.51948C11.4805 2.51948 11.026 2.58442 10.5065 2.64935C9.66234 2.19481 8.75325 2 7.84416 2C4.5974 2 2 4.5974 2 7.84416C2 8.75325 2.19481 9.66234 2.64935 10.5065C2.58442 11.026 2.51948 11.4805 2.51948 12C2.51948 17.1948 6.74026 21.4805 12 21.4805C12.5195 21.4805 12.974 21.4156 13.4935 21.3506C14.3377 21.7403 15.2468 22 16.1558 22C19.4026 22 22 19.4026 22 16.1558C22 15.2468 21.7403 14.3377 21.3506 13.4935ZM15.961 15.4416C15.7662 15.8312 15.5065 16.1558 15.1169 16.4156C14.7273 16.6753 14.3377 16.8701 13.8182 17C13.2987 17.1299 12.7143 17.1948 12.0649 17.1948C10.7013 17.1948 9.5974 16.8701 8.81818 16.2857C8.36364 15.8961 7.97403 15.4416 7.77922 14.8571C7.51948 14.3377 7.97403 13.6883 8.62338 13.6883H8.81818C9.20779 13.6883 9.5974 13.9481 9.72727 14.2727C9.85714 14.5974 10.0519 14.8571 10.3117 15.0519C10.7013 15.3766 11.2857 15.5065 12 15.5065C12.6494 15.5065 13.1688 15.3766 13.5584 15.1818C13.9481 14.987 14.1429 14.5974 14.1429 14.2078C14.1429 14.013 14.0779 13.8831 14.013 13.7532C13.9481 13.6234 13.7532 13.4935 13.6234 13.4286C13.4286 13.2987 13.2338 13.2338 12.9091 13.1688C12.6494 13.1039 12.3247 12.974 11.9351 12.9091L11.5455 12.7792C11.0909 12.6494 10.5714 12.5195 10.1818 12.3896C9.72727 12.2597 9.33766 12.0649 9.01299 11.8701C8.68831 11.6753 8.42857 11.4156 8.23377 11.026C8.03896 10.7013 7.97403 10.2468 7.97403 9.72727C7.97403 9.20779 8.1039 8.75325 8.2987 8.36364C8.49351 7.97403 8.81818 7.64935 9.14286 7.45455C9.53247 7.1948 9.92208 7 10.4416 6.93506C10.8961 6.80519 11.4156 6.74026 12 6.74026C12.6494 6.74026 13.1688 6.80519 13.6883 6.93506C14.2078 7.06493 14.5974 7.25974 14.987 7.58442C15.3766 7.84416 15.6364 8.16883 15.8312 8.62338C16.1558 9.20779 15.7013 9.98701 14.987 9.98701H14.7922C14.4026 9.98701 14.0779 9.79221 13.8831 9.46753C13.7532 9.27273 13.6234 9.07792 13.4286 8.88312C13.1039 8.62338 12.5844 8.49351 12 8.49351C11.4156 8.49351 10.961 8.62338 10.6364 8.81818C10.3117 9.01299 10.1818 9.33766 10.1818 9.66234C10.1818 9.85714 10.2468 9.98701 10.3117 10.1169C10.3766 10.2468 10.5065 10.3766 10.7013 10.4416C10.8961 10.5065 11.0909 10.6364 11.3506 10.7013C11.6104 10.7662 11.9351 10.8312 12.3247 10.961C12.7143 11.026 13.039 11.1558 13.4286 11.2208C13.7532 11.2857 14.0779 11.4156 14.4026 11.4805C14.7273 11.6104 14.987 11.7403 15.2468 11.8701C15.5065 12 15.7013 12.1948 15.8961 12.3896C16.0909 12.5844 16.2208 12.8442 16.2857 13.1039C16.4156 13.3636 16.4156 13.7532 16.4156 14.1429C16.2857 14.5974 16.1558 15.0519 15.961 15.4416Z" fill="#3A6F84"/>
</svg>
