<svg width="24" height="24" viewBox="0 0 24 24" fill="none" xmlns="http://www.w3.org/2000/svg">
<path d="M12.8932 18C6.05996 18 2.1624 13.4955 2 6H5.42286C5.53529 11.5015 8.05871 13.8318 10.0575 14.3123V6H13.2805V10.7447C15.2542 10.5405 17.3279 8.37838 18.0275 6H21.2505C20.9869 7.23349 20.4614 8.40142 19.7069 9.43072C18.9524 10.46 17.9852 11.3285 16.8657 11.982C18.1153 12.579 19.2191 13.4241 20.1041 14.4615C20.9891 15.4988 21.6353 16.7049 22 18H18.4522C18.1248 16.8751 17.4594 15.8681 16.5394 15.1053C15.6194 14.3424 14.4858 13.8577 13.2805 13.7117V18H12.8932Z" fill="#a18e80"/>
</svg>
