<svg width="20" height="12" viewBox="0 0 20 12" fill="none" xmlns="http://www.w3.org/2000/svg">
<path d="M10.8932 12C4.05996 12 0.162399 7.49549 0 0H3.42286C3.53529 5.5015 6.05871 7.83183 8.05746 8.31231V0H11.2805V4.74474C13.2542 4.54054 15.3279 2.37838 16.0275 0H19.2505C18.9869 1.23349 18.4614 2.40142 17.7069 3.43072C16.9524 4.46001 15.9852 5.32854 14.8657 5.98198C16.1153 6.57905 17.2191 7.42414 18.1041 8.4615C18.9891 9.49885 19.6353 10.7049 20 12H16.4522C16.1248 10.8751 15.4594 9.86812 14.5394 9.10528C13.6194 8.34244 12.4858 7.85766 11.2805 7.71171V12H10.8932Z" fill="white"/>
</svg>
