<svg width="24" height="24" viewBox="0 0 24 24" fill="none" xmlns="http://www.w3.org/2000/svg">
<path d="M19.0732 4.91667C17.1916 3.04167 14.6829 2 12.0348 2C6.52961 2 2.06969 6.44444 2.06969 11.9306C2.06969 13.6667 2.55749 15.4028 3.39373 16.8611L2 22L7.29617 20.6111C8.75958 21.375 10.3624 21.7917 12.0348 21.7917C17.5401 21.7917 22 17.3472 22 11.8611C21.9303 9.29167 20.9547 6.79167 19.0732 4.91667ZM16.8432 15.4722C16.6341 16.0278 15.6585 16.5833 15.1707 16.6528C14.7526 16.7222 14.1951 16.7222 13.6376 16.5833C13.2892 16.4444 12.8014 16.3056 12.2439 16.0278C9.73519 14.9861 8.13241 12.4861 7.99303 12.2778C7.85366 12.1389 6.94774 10.9583 6.94774 9.70833C6.94774 8.45833 7.57491 7.90278 7.78397 7.625C7.99303 7.34722 8.27178 7.34722 8.48084 7.34722C8.62021 7.34722 8.82927 7.34722 8.96864 7.34722C9.10801 7.34722 9.31707 7.27778 9.52613 7.76389C9.73519 8.25 10.223 9.5 10.2927 9.56944C10.3624 9.70833 10.3624 9.84722 10.2927 9.98611C10.223 10.125 10.1533 10.2639 10.0139 10.4028C9.87456 10.5417 9.73519 10.75 9.6655 10.8194C9.52613 10.9583 9.38676 11.0972 9.52613 11.3056C9.6655 11.5833 10.1533 12.3472 10.9199 13.0417C11.8955 13.875 12.662 14.1528 12.9408 14.2917C13.2195 14.4306 13.3589 14.3611 13.4983 14.2222C13.6376 14.0833 14.1254 13.5278 14.2648 13.25C14.4042 12.9722 14.6132 13.0417 14.8223 13.1111C15.0314 13.1806 16.2857 13.8056 16.4948 13.9444C16.7735 14.0833 16.9129 14.1528 16.9826 14.2222C17.0523 14.4306 17.0523 14.9167 16.8432 15.4722Z" fill="#ffffff"/>
</svg>
