<svg xmlns="http://www.w3.org/2000/svg" width="0" height="0" class="hidden">
<symbol id="icon-telegram" height="17" viewBox="0 0 17 17">
  <path d="M0.30027 8.19655L4.21741 9.65855L5.73358 14.5345C5.8306 14.8468 6.21247 14.9623 6.46594 14.755L8.64942 12.975C8.8783 12.7885 9.2043 12.7792 9.44349 12.9529L13.3817 15.8121C13.6529 16.0092 14.037 15.8606 14.105 15.533L16.99 1.6558C17.0642 1.29789 16.7125 0.999318 16.3717 1.13112L0.29568 7.33278C-0.101043 7.48578 -0.0975865 8.04746 0.30027 8.19655ZM5.48924 8.88029L13.1448 4.16523C13.2824 4.08074 13.4239 4.26677 13.3058 4.37637L6.98773 10.2493C6.76565 10.456 6.6224 10.7327 6.58183 11.0329L6.36661 12.6279C6.3381 12.8408 6.03896 12.862 5.9802 12.6559L5.15247 9.74746C5.05766 9.41573 5.19582 9.0614 5.48924 8.88029Z" fill="black"/>
</symbol>
<symbol id="icon-viber" viewBox="0 0 52.511 52.511">
   <path d="M31.256,0H21.254C10.778,0,2.255,8.521,2.255,18.995v9.01c0,7.8,4.793,14.81,12,17.665v5.841
     c0,0.396,0.233,0.754,0.595,0.914c0.13,0.058,0.268,0.086,0.405,0.086c0.243,0,0.484-0.089,0.671-0.259L21.725,47h9.531
     c10.476,0,18.999-8.521,18.999-18.995v-9.01C50.255,8.521,41.732,0,31.256,0z M48.255,28.005C48.255,37.376,40.63,45,31.256,45
     h-9.917c-0.248,0-0.487,0.092-0.671,0.259l-4.413,3.997v-4.279c0-0.424-0.267-0.802-0.667-0.942
     C8.81,41.638,4.255,35.196,4.255,28.005v-9.01C4.255,9.624,11.881,2,21.254,2h10.002c9.374,0,16.999,7.624,16.999,16.995V28.005z"
     />
   <path d="M39.471,30.493l-6.146-3.992c-0.672-0.437-1.472-0.585-2.255-0.423c-0.784,0.165-1.458,0.628-1.895,1.303l-0.289,0.444
     c-2.66-0.879-5.593-2.002-7.349-7.085l0.727-0.632h0c1.248-1.085,1.379-2.983,0.294-4.233l-4.808-5.531
     c-0.362-0.417-0.994-0.46-1.411-0.099l-3.019,2.624c-2.648,2.302-1.411,5.707-1.004,6.826c0.018,0.05,0.04,0.098,0.066,0.145
     c0.105,0.188,2.612,4.662,6.661,8.786c4.065,4.141,11.404,7.965,11.629,8.076c0.838,0.544,1.781,0.805,2.714,0.805
     c1.638,0,3.244-0.803,4.202-2.275l2.178-3.354C40.066,31.413,39.934,30.794,39.471,30.493z M35.91,34.142
     c-0.901,1.388-2.763,1.782-4.233,0.834c-0.073-0.038-7.364-3.835-11.207-7.75c-3.592-3.659-5.977-7.724-6.302-8.291
     c-0.792-2.221-0.652-3.586,0.464-4.556l2.265-1.968l4.152,4.776c0.369,0.424,0.326,1.044-0.096,1.411l-1.227,1.066
     c-0.299,0.26-0.417,0.671-0.3,1.049c2.092,6.798,6.16,8.133,9.13,9.108l0.433,0.143c0.433,0.146,0.907-0.021,1.155-0.403
     l0.709-1.092c0.146-0.226,0.37-0.379,0.63-0.434c0.261-0.056,0.527-0.004,0.753,0.143l5.308,3.447L35.91,34.142z"/>
   <path d="M28.538,16.247c-0.532-0.153-1.085,0.156-1.236,0.688c-0.151,0.531,0.157,1.084,0.688,1.235
     c1.49,0.424,2.677,1.613,3.097,3.104c0.124,0.44,0.525,0.729,0.962,0.729c0.09,0,0.181-0.012,0.272-0.037
     c0.531-0.15,0.841-0.702,0.691-1.234C32.405,18.578,30.69,16.859,28.538,16.247z"/>
   <path d="M36.148,22.219c0.09,0,0.181-0.012,0.272-0.037c0.532-0.15,0.841-0.703,0.691-1.234c-1.18-4.183-4.509-7.519-8.689-8.709
     c-0.531-0.153-1.084,0.158-1.235,0.689c-0.151,0.531,0.157,1.084,0.688,1.235c3.517,1,6.318,3.809,7.311,7.328
     C35.311,21.931,35.711,22.219,36.148,22.219z"/>
   <path d="M27.991,7.582c-0.532-0.153-1.085,0.156-1.236,0.689c-0.151,0.531,0.157,1.084,0.688,1.235
     c5.959,1.695,10.706,6.453,12.388,12.416c0.124,0.44,0.525,0.729,0.962,0.729c0.09,0,0.181-0.012,0.272-0.037
     c0.531-0.15,0.841-0.703,0.691-1.234C39.887,14.753,34.613,9.467,27.991,7.582z"/>
</symbol>
<symbol id="icon-whatsapp" viewBox="0 0 17 17">
  <path d="M17 8.28108C17 12.8546 13.264 16.5622 8.65451 16.5622C7.19119 16.5622 5.81646 16.1882 4.62041 15.5318L0 17L1.50639 12.557C0.746489 11.3092 0.308833 9.84564 0.308833 8.28108C0.308833 3.70751 4.04524 0 8.65451 0C13.2643 0 17 3.70751 17 8.28108ZM8.65451 1.31882C4.78531 1.31882 1.63804 4.4421 1.63804 8.28108C1.63804 9.80447 2.13463 11.2153 2.97462 12.363L2.09799 14.9487L4.79438 14.0917C5.90221 14.8191 7.22934 15.2433 8.6547 15.2433C12.5233 15.2433 15.6712 12.1204 15.6712 8.28146C15.6712 4.44248 12.5235 1.31882 8.65451 1.31882ZM12.8688 10.1883C12.8172 10.1039 12.6811 10.0529 12.4767 9.95142C12.2719 9.84999 11.2659 9.35869 11.0789 9.29126C10.8913 9.22363 10.7546 9.18963 10.6184 9.39269C10.4822 9.59593 10.0901 10.0529 9.9705 10.1883C9.85112 10.3241 9.73193 10.3411 9.52718 10.2395C9.3228 10.138 8.66377 9.92347 7.88233 9.23213C7.2743 8.69418 6.86366 8.03004 6.74428 7.82661C6.62509 7.62356 6.73181 7.51381 6.834 7.41276C6.92618 7.32171 7.03876 7.1757 7.14094 7.05727C7.24351 6.93864 7.27751 6.85421 7.34532 6.71859C7.41389 6.58316 7.3797 6.46472 7.32832 6.36291C7.27732 6.26148 6.86781 5.26263 6.69743 4.85614C6.52706 4.45003 6.35687 4.51766 6.2373 4.51766C6.11811 4.51766 5.98154 4.50066 5.84517 4.50066C5.70879 4.50066 5.48703 4.55147 5.29947 4.75452C5.11209 4.95777 4.58377 5.44888 4.58377 6.44753C4.58377 7.44638 5.31647 8.41141 5.41903 8.54666C5.52122 8.6819 6.83381 10.7982 8.91348 11.611C10.9933 12.4234 10.9933 12.1524 11.3685 12.1184C11.7432 12.0845 12.5785 11.6274 12.7496 11.1537C12.9196 10.6792 12.9196 10.2729 12.8688 10.1883Z" fill="black"/>
</symbol>
<symbol id="icon-skype" viewBox="0 0 17 17">
  <path d="M16.2902 9.73063C16.3536 9.32926 16.387 8.91865 16.387 8.49955C16.387 4.14345 12.8559 0.612418 8.49969 0.612418C8.08169 0.612418 7.66989 0.646843 7.26889 0.709567C6.54248 0.260105 5.68514 0 4.76633 0C2.1341 0 0.000183105 2.13364 0.000183105 4.76615C0.000183105 5.68476 0.260446 6.54139 0.70971 7.26926C0.64754 7.67129 0.613312 8.0806 0.613312 8.4997C0.613312 12.8561 4.14435 16.3861 8.49953 16.3861C8.91789 16.3861 9.3298 16.3538 9.73077 16.2906C10.4579 16.7391 11.3146 17 12.2332 17C14.8661 17 16.9998 14.8658 16.9998 12.2333C17 11.3144 16.7399 10.4579 16.2902 9.73063ZM12.2444 12.0867C11.9108 12.567 11.4206 12.9424 10.7802 13.2123C10.1385 13.4829 9.37996 13.6176 8.50404 13.6176C7.45421 13.6176 6.58501 13.4339 5.89892 13.0629C5.41258 12.7973 5.01703 12.4409 4.71294 11.9966C4.40821 11.5518 4.25371 11.1163 4.25371 10.6917C4.25371 10.4412 4.34924 10.2233 4.5352 10.0457C4.72309 9.86679 4.9651 9.77711 5.25073 9.77711C5.48471 9.77711 5.68569 9.84758 5.84932 9.98721C6.01172 10.1268 6.14796 10.3298 6.25937 10.5976C6.39292 10.9078 6.53798 11.1672 6.69232 11.3741C6.84571 11.5785 7.06158 11.7491 7.34117 11.8827C7.61768 12.0166 7.98568 12.0835 8.44617 12.0835C9.07638 12.0835 9.58568 11.9472 9.97546 11.6783C10.3672 11.4069 10.5554 11.0768 10.5554 10.6778C10.5554 10.3596 10.4539 10.1069 10.2459 9.90987C10.0359 9.71027 9.7648 9.55826 9.42834 9.45222C9.09057 9.34507 8.63707 9.23144 8.06876 9.11173C7.30564 8.94517 6.66742 8.75131 6.15057 8.52868C5.63304 8.30521 5.22089 7.99973 4.91541 7.61386C4.6093 7.2242 4.45666 6.73988 4.45666 6.16623C4.45666 5.61923 4.6178 5.13004 4.94039 4.70429C5.26283 4.27736 5.72932 3.95058 6.33759 3.72296C6.94373 3.49543 7.65732 3.3816 8.47483 3.3816C9.12859 3.3816 9.69409 3.45725 10.1728 3.60775C10.6501 3.75936 11.0481 3.95943 11.3662 4.21049C11.6824 4.46099 11.915 4.7252 12.0623 5.00246C12.2096 5.28055 12.2837 5.55215 12.2837 5.8172C12.2837 6.06363 12.1882 6.28713 12.002 6.48301C11.8159 6.67917 11.5778 6.77916 11.2998 6.77825C11.0491 6.77825 10.8525 6.72043 10.7161 6.59803C10.5833 6.47961 10.4439 6.29109 10.293 6.02833C10.1023 5.66171 9.87388 5.37608 9.60829 5.17178C9.34968 4.97128 8.92303 4.86689 8.32934 4.86816C7.78004 4.86816 7.34054 4.98041 7.00882 5.19992C6.67504 5.42295 6.51549 5.68171 6.51474 5.9849C6.51529 6.17489 6.56991 6.33508 6.67983 6.47206C6.79144 6.61032 6.94673 6.73011 7.14632 6.8311C7.346 6.93366 7.54911 7.01299 7.75321 7.07006C7.95972 7.12859 8.30235 7.21321 8.77861 7.32526C9.37589 7.45399 9.91764 7.59782 10.4044 7.75457C10.8903 7.91211 11.305 8.1021 11.6475 8.32845C11.9928 8.55413 12.2626 8.84186 12.4553 9.18939C12.6493 9.53747 12.7459 9.96263 12.7459 10.4629C12.7467 11.0653 12.5789 11.6071 12.2444 12.0867Z" fill="black"/>
</symbol>
<symbol id="icon-instagram" width="36" height="36" viewBox="0 0 36 36">
  <path d="M25.2 9H10.8C9.81 9 9 9.81 9 10.8V25.2C9 26.19 9.81 27 10.8 27H25.2C26.19 27 27 26.19 27 25.2V10.8C27 9.81 26.19 9 25.2 9ZM18 14.4C19.98 14.4 21.6 16.02 21.6 18C21.6 19.98 19.98 21.6 18 21.6C16.02 21.6 14.4 19.98 14.4 18C14.4 16.02 16.02 14.4 18 14.4ZM11.25 25.2C10.98 25.2 10.8 25.02 10.8 24.75V17.1H12.69C12.6 17.37 12.6 17.73 12.6 18C12.6 20.97 15.03 23.4 18 23.4C20.97 23.4 23.4 20.97 23.4 18C23.4 17.73 23.4 17.37 23.31 17.1H25.2V24.75C25.2 25.02 25.02 25.2 24.75 25.2H11.25ZM25.2 13.05C25.2 13.32 25.02 13.5 24.75 13.5H22.95C22.68 13.5 22.5 13.32 22.5 13.05V11.25C22.5 10.98 22.68 10.8 22.95 10.8H24.75C25.02 10.8 25.2 10.98 25.2 11.25V13.05Z" fill="#94612E"/>
</symbol>
<symbol id="icon-vk" width="36" height="36" viewBox="0 0 36 36">
  <g clip-path="url(#clip0)">
    <path d="M29.8728 23.5199C29.8437 23.4572 29.8166 23.4053 29.7915 23.3637C29.3751 22.6137 28.5793 21.6932 27.4047 20.6019L27.3799 20.5769L27.3675 20.5646L27.3549 20.5521H27.3423C26.8093 20.0439 26.4717 19.7022 26.3303 19.5273C26.0716 19.194 26.0137 18.8567 26.1551 18.5149C26.2549 18.2567 26.6301 17.7114 27.2797 16.8782C27.6214 16.4366 27.892 16.0827 28.0918 15.8161C29.5331 13.9 30.158 12.6755 29.9663 12.1423L29.8919 12.0177C29.8418 11.9427 29.7127 11.8741 29.5047 11.8115C29.2962 11.749 29.0297 11.7387 28.7047 11.7803L25.106 11.8052C25.0477 11.7845 24.9645 11.7864 24.856 11.8115C24.7477 11.8365 24.6935 11.8491 24.6935 11.8491L24.6309 11.8804L24.5812 11.918C24.5395 11.9428 24.4937 11.9865 24.4436 12.049C24.3939 12.1113 24.3523 12.1844 24.319 12.2677C23.9272 13.2757 23.4817 14.2129 22.9818 15.0792C22.6735 15.5958 22.3904 16.0435 22.1319 16.4226C21.8737 16.8015 21.6571 17.0807 21.4823 17.2596C21.3073 17.4388 21.1493 17.5823 21.0074 17.6907C20.8657 17.7992 20.7575 17.845 20.6827 17.8282C20.6076 17.8115 20.5369 17.7948 20.47 17.7782C20.3534 17.7032 20.2597 17.6012 20.189 17.472C20.118 17.3429 20.0702 17.1804 20.0452 16.9847C20.0204 16.7888 20.0057 16.6203 20.0015 16.4786C19.9976 16.3371 19.9994 16.1369 20.0078 15.8787C20.0165 15.6204 20.0204 15.4455 20.0204 15.3539C20.0204 15.0373 20.0265 14.6937 20.0389 14.323C20.0515 13.9523 20.0617 13.6585 20.0703 13.4422C20.0788 13.2255 20.0827 12.9964 20.0827 12.7548C20.0827 12.5132 20.068 12.3237 20.0389 12.1862C20.0102 12.0489 19.9661 11.9156 19.9081 11.7863C19.8496 11.6572 19.7641 11.5573 19.6519 11.4864C19.5395 11.4156 19.3997 11.3594 19.2333 11.3177C18.7917 11.2177 18.2295 11.1637 17.5462 11.1553C15.9968 11.1386 15.0013 11.2387 14.5597 11.4553C14.3848 11.5468 14.2265 11.6719 14.085 11.83C13.935 12.0134 13.914 12.1134 14.0223 12.1299C14.5222 12.2048 14.8761 12.3839 15.0844 12.6671L15.1595 12.8172C15.2179 12.9255 15.2762 13.1172 15.3345 13.392C15.3928 13.6669 15.4304 13.9709 15.4469 14.304C15.4885 14.9122 15.4885 15.4329 15.4469 15.866C15.4052 16.2993 15.3658 16.6366 15.3282 16.8782C15.2906 17.1198 15.2344 17.3156 15.1595 17.4655C15.0844 17.6154 15.0345 17.7071 15.0094 17.7403C14.9845 17.7736 14.9636 17.7946 14.9471 17.8028C14.8388 17.8443 14.7262 17.8654 14.6096 17.8654C14.4929 17.8654 14.3514 17.807 14.1848 17.6904C14.0183 17.5737 13.8454 17.4134 13.6663 17.2093C13.4871 17.0051 13.2851 16.7198 13.0601 16.3533C12.8353 15.9868 12.602 15.5536 12.3604 15.0538L12.1605 14.6913C12.0356 14.4581 11.8649 14.1186 11.6483 13.673C11.4315 13.2272 11.24 12.796 11.0734 12.3795C11.0069 12.2046 10.9069 12.0714 10.7736 11.9797L10.711 11.9421C10.6695 11.9089 10.6027 11.8735 10.5112 11.8359C10.4195 11.7983 10.3238 11.7713 10.2237 11.7548L6.79989 11.7796C6.45001 11.7796 6.21262 11.8589 6.08762 12.0172L6.0376 12.0921C6.0126 12.1338 6 12.2004 6 12.2921C6 12.3837 6.02499 12.4962 6.07502 12.6294C6.57484 13.8041 7.11838 14.937 7.70564 16.0283C8.29291 17.1196 8.80323 17.9987 9.23631 18.6647C9.66947 19.3312 10.111 19.9603 10.5609 20.5516C11.0108 21.1431 11.3085 21.5222 11.4542 21.6887C11.6001 21.8555 11.7147 21.9803 11.798 22.0636L12.1104 22.3634C12.3104 22.5634 12.604 22.8029 12.9913 23.0819C13.3788 23.3611 13.8078 23.6359 14.2784 23.9069C14.7492 24.1774 15.2969 24.3982 15.9217 24.5689C16.5465 24.7398 17.1546 24.8084 17.7461 24.7753H19.1832C19.4746 24.7502 19.6954 24.6585 19.8455 24.5003L19.8952 24.4377C19.9286 24.388 19.9599 24.3107 19.9888 24.2068C20.0181 24.1027 20.0326 23.9879 20.0326 23.8632C20.0241 23.505 20.0513 23.1822 20.1136 22.8949C20.1759 22.6076 20.2469 22.391 20.3263 22.2451C20.4057 22.0994 20.4952 21.9764 20.5949 21.8767C20.6947 21.7768 20.7659 21.7162 20.8077 21.6954C20.8491 21.6744 20.8823 21.6602 20.9073 21.6517C21.1072 21.5851 21.3425 21.6496 21.6135 21.8455C21.8843 22.0413 22.1383 22.283 22.3758 22.5703C22.6133 22.8578 22.8985 23.1804 23.2317 23.5386C23.5651 23.8969 23.8566 24.1632 24.1064 24.3384L24.3562 24.4883C24.523 24.5884 24.7396 24.68 25.0063 24.7633C25.2724 24.8466 25.5056 24.8674 25.7058 24.8258L28.9046 24.7759C29.221 24.7759 29.4672 24.7235 29.6419 24.6196C29.8168 24.5154 29.9208 24.4007 29.9543 24.2759C29.9877 24.151 29.9895 24.0093 29.9607 23.8509C29.931 23.6928 29.9018 23.5823 29.8728 23.5199Z" fill="#94612E"/>
  </g>
  <defs>
    <clipPath id="clip0">
      <rect width="24" height="24" fill="white" transform="translate(6 6)"/>
    </clipPath>
  </defs>
</symbol>
<symbol id="icon-facebook" width="36" height="36" viewBox="0 0 36 36">
  <path d="M22.4992 9.00375L20.1651 9C17.5427 9 15.848 10.7387 15.848 13.4298V15.4723H13.5011C13.2983 15.4723 13.1341 15.6367 13.1341 15.8395V18.7988C13.1341 19.0016 13.2985 19.1658 13.5011 19.1658H15.848V26.633C15.848 26.8358 16.0123 27 16.2151 27H19.2771C19.4799 27 19.6441 26.8356 19.6441 26.633V19.1658H22.3882C22.591 19.1658 22.7552 19.0016 22.7552 18.7988L22.7564 15.8395C22.7564 15.7421 22.7176 15.6489 22.6489 15.5799C22.5801 15.511 22.4865 15.4723 22.3891 15.4723H19.6441V13.7409C19.6441 12.9087 19.8424 12.4862 20.9265 12.4862L22.4989 12.4857C22.7015 12.4857 22.8657 12.3212 22.8657 12.1186V9.37077C22.8657 9.16835 22.7017 9.00412 22.4992 9.00375Z" fill="#94612E"/>
</symbol>
</svg>
