<svg width="155" height="51" viewBox="0 0 155 51" fill="none" xmlns="http://www.w3.org/2000/svg">
<path d="M15.1694 5.98527L15.2555 6.21282C15.2816 6.34358 15.203 6.49519 15.0199 6.66765C14.4652 7.15888 13.6539 8.20429 12.586 9.80389C11.6018 11.278 10.9028 12.5458 10.4889 13.6072C10.4208 13.8111 10.3474 14.0568 10.2688 14.3444C10.2163 14.6268 10.1586 14.883 10.0957 15.1131C10.0589 15.3379 10.0222 15.5628 9.9854 15.7876C9.96958 15.9811 9.93287 16.138 9.87526 16.2582C9.84381 16.3733 9.8124 16.4203 9.78103 16.3994C9.35757 16.1847 9.09631 15.8289 8.99728 15.332C8.89303 14.8089 8.91168 14.2886 9.05323 13.7709C9.23684 12.9186 9.65326 11.9383 10.3025 10.83C10.868 9.8472 11.4229 8.94805 11.9673 8.13257C12.0511 8.00711 12.0773 7.86592 12.0461 7.70901C11.9731 7.34288 11.8268 7.08652 11.6073 6.93994C11.4139 6.78815 11.1733 6.74092 10.8857 6.79826C10.4149 6.89208 9.80017 7.28652 9.04139 7.98158C8.32449 8.6139 7.54203 9.5312 6.69401 10.7335C5.89308 11.8992 5.34855 12.8506 5.06043 13.5879C4.89282 13.9747 4.62572 14.5446 4.25914 15.2975C3.79306 16.2333 3.53109 16.9653 3.47321 17.4934C3.46782 17.7392 3.40225 18.0242 3.27652 18.3484C3.17173 18.6412 3.08011 18.7954 3.00165 18.811C2.94935 18.8214 2.93883 18.9051 2.97011 19.062C2.98575 19.1405 2.93596 19.3 2.82074 19.5404C2.70553 19.7809 2.65053 19.9143 2.65574 19.9404C2.69222 20.1235 2.66859 20.2777 2.58483 20.4032C2.44337 20.7849 2.35408 21.3601 2.31696 22.1288C2.32217 22.155 2.28798 22.4609 2.21437 23.0466C2.14077 23.6323 2.10378 24.1971 2.10342 24.741C2.09784 25.2587 2.1342 25.6457 2.21247 25.9021C2.32714 26.4774 2.5125 26.9299 2.76854 27.2595C3.00364 27.6206 3.29118 27.7672 3.63116 27.6994C3.78807 27.6681 3.93717 27.5976 4.07844 27.4879C4.74295 27.002 5.5672 26.1579 6.55119 24.9557C7.52476 23.7012 8.01941 23.0452 8.03514 22.9877C8.07181 22.8988 8.20531 22.6819 8.43565 22.3369C8.87539 21.6782 9.28637 21.0117 9.66859 20.3373C10.0456 19.6368 10.3022 19.1506 10.4383 18.8787C10.5745 18.6069 10.6739 18.4919 10.7367 18.5338C10.7628 18.5285 10.8125 18.573 10.8856 18.6672C10.9536 18.7352 10.998 18.8216 11.0188 18.9262C11.0606 18.9994 11.0736 19.0648 11.0579 19.1223L11.0499 19.287C11.0761 19.2818 11.0944 19.3054 11.1048 19.3577L11.0576 19.5302C10.4811 21.4126 8.75607 24.1492 5.88254 27.7401C5.24922 28.519 4.60566 28.9735 3.95185 29.1038C3.63803 29.1664 3.33732 29.1583 3.04974 29.0797C2.54251 28.9904 2.10084 28.6162 1.72474 27.957C1.32769 27.3292 1.03274 26.5315 0.839884 25.5638C0.39162 23.3147 0.644392 20.6948 1.5982 17.704C2.55201 14.7132 3.87428 12.0704 5.56502 9.77569C7.25576 7.48094 8.85955 6.18241 10.3764 5.8801C10.4287 5.86967 10.6431 5.85413 11.0197 5.83346C11.3753 5.84415 11.7021 5.91497 12.0001 6.04592C12.2929 6.15071 12.5072 6.27113 12.6431 6.4072C12.7738 6.51711 12.847 6.61129 12.8626 6.68975C13.4489 5.81154 13.8728 5.34637 14.1344 5.29425C14.2651 5.26819 14.4089 5.30751 14.5657 5.41221C14.7435 5.48554 14.9447 5.67656 15.1694 5.98527ZM8.09195 8.33395C8.12341 8.21892 8.13393 8.13525 8.1235 8.08295C8.11308 8.03064 8.09479 8.00709 8.06864 8.01231C8.01633 8.02273 7.91689 8.13772 7.77031 8.35727C7.63415 8.62913 7.53211 8.73104 7.46416 8.66301C7.45895 8.63686 7.46682 8.6081 7.48776 8.57674L7.47994 8.53751C7.47472 8.51135 7.45904 8.50088 7.43289 8.5061C7.38059 8.51652 7.22098 8.67069 6.95406 8.96861C6.68714 9.26653 6.63475 9.41293 6.79687 9.40781L6.84392 9.43922C6.82298 9.47058 6.78636 9.49148 6.73405 9.5019C6.51962 9.51745 6.02758 10.1865 5.25793 11.5091C4.96477 11.9483 4.86002 12.1731 4.94369 12.1836C4.96984 12.1784 5.00386 12.1444 5.04574 12.0817C5.06668 12.0503 5.09023 12.032 5.11638 12.0268C5.16868 12.0164 5.16603 12.0713 5.10842 12.1915C5.10833 12.3275 4.94607 12.5366 4.62164 12.8188C4.65821 12.8659 4.66603 12.9051 4.64509 12.9365C4.65031 12.9626 4.60317 13.0672 4.50368 13.2502C4.43035 13.4279 4.34393 13.6083 4.24445 13.7913C4.1659 13.9429 4.05069 14.1834 3.8988 14.5127C3.74171 14.816 3.6003 15.1297 3.47457 15.4538C2.59455 17.587 2.19358 18.9177 2.27168 19.4459C2.2821 19.4983 2.23497 19.6028 2.13027 19.7596C2.02557 19.9165 1.99151 20.0184 2.02808 20.0655C2.03851 20.1178 2.01748 20.2852 1.96499 20.5675C1.91251 20.8499 1.84429 21.1898 1.76035 21.5872C1.69735 21.9532 1.66316 22.2592 1.65776 22.505C1.50516 23.9221 1.4888 24.9314 1.60868 25.533C1.62432 25.6114 1.64521 25.648 1.67136 25.6428C1.72367 25.6324 1.75261 25.3683 1.75818 24.8506L1.73554 23.5091C1.71478 23.2685 1.74111 22.9914 1.81454 22.6776C1.80412 22.6253 1.82249 22.5129 1.86968 22.3404C1.91165 22.1417 1.94575 21.9717 1.972 21.8305C2.21852 20.7481 2.32088 20.1703 2.27909 20.0971C2.27388 20.0709 2.30268 20.0108 2.3655 19.9167C2.42832 19.8226 2.45717 19.6945 2.45205 19.5324C2.42599 19.4016 2.43915 19.263 2.49155 19.1166C2.5701 18.965 2.64078 18.8422 2.7036 18.7481L2.79001 18.5677C2.72207 18.4997 2.86362 17.982 3.21465 17.0147C3.54475 16.0788 3.75689 15.5743 3.85108 15.5011C3.87723 15.4959 3.90603 15.4358 3.93749 15.3208C3.96373 15.1796 4.0004 15.0907 4.04749 15.0541C4.12595 15.0385 4.22283 14.8424 4.33813 14.466C4.50574 14.0791 4.62357 13.8517 4.6916 13.7837C4.71775 13.7785 4.7413 13.7602 4.76224 13.7289C4.77796 13.6713 4.79108 13.6007 4.8016 13.5171C4.83305 13.402 4.88019 13.2975 4.94301 13.2034C5.01104 13.1354 5.10793 12.9394 5.23366 12.6152C5.38033 12.2597 5.50075 12.0454 5.59494 11.9722C6.11844 11.1881 6.39326 10.7934 6.41941 10.7882C6.47172 10.7778 6.50573 10.7438 6.52146 10.6863C6.53198 10.6026 6.58698 10.4693 6.68646 10.2863C6.78074 10.0772 6.91424 9.86026 7.08697 9.6355C7.52671 8.97684 7.80149 8.65016 7.91131 8.65546L7.97413 8.56137C8.01601 8.49864 8.05529 8.42284 8.09195 8.33395ZM13.3012 7.66278C13.4216 7.58441 13.5158 7.44327 13.5839 7.23936L13.4741 7.30204C13.406 7.36998 13.3511 7.43532 13.3092 7.49805L13.215 7.63919C13.2202 7.66534 13.2489 7.6732 13.3012 7.66278ZM5.7838 11.078L5.87817 10.7329C5.95672 10.5813 6.01954 10.4872 6.06663 10.4507L6.01149 10.7879C5.90679 10.9448 5.8309 11.0415 5.7838 11.078ZM11.8093 9.79553C11.8041 9.76938 11.7885 9.75891 11.7623 9.76412C11.6577 9.78497 11.4902 10.0359 11.2597 10.5169C10.0137 12.587 9.42983 13.6823 9.5082 13.8026C9.54478 13.8497 9.61276 13.8498 9.71216 13.8028C9.73831 13.7975 9.78019 13.7348 9.8378 13.6146C9.91635 13.463 9.99489 13.3113 10.0734 13.1597C10.1729 12.9768 10.2541 12.8382 10.3169 12.7441C10.7199 12.3103 10.9842 11.9313 11.11 11.6072C11.6179 10.6086 11.851 10.0047 11.8093 9.79553ZM5.54034 11.4936C5.46701 11.6714 5.39111 11.7681 5.31265 11.7837C5.18189 11.8098 5.19241 11.7261 5.3442 11.5327C5.45411 11.4021 5.53522 11.3315 5.58753 11.3211C5.63983 11.3107 5.6241 11.3682 5.54034 11.4936ZM6.52679 26.2658C6.62618 26.2188 6.77532 26.0803 6.97421 25.8503C7.19924 25.6151 7.34843 25.4086 7.42176 25.2309C7.45843 25.142 7.53693 25.0584 7.65727 24.98C7.7724 24.8755 7.84043 24.8075 7.86137 24.7762L8.07342 24.4076C8.65965 23.6654 8.97114 23.1818 9.0079 22.957C9.0132 22.8472 9.22525 22.4786 9.64405 21.8513C10.267 20.8842 10.6362 20.1445 10.7516 19.632C10.4166 20.1338 10.1025 20.6043 9.80932 21.0434C9.54232 21.4773 9.34074 21.8302 9.20458 22.102C9.06321 22.3478 8.94539 22.5752 8.85112 22.7843C8.77778 22.9621 8.72278 23.0954 8.68611 23.1843L8.62329 23.2784L6.99025 25.3169C6.96931 25.3482 6.89081 25.4319 6.75475 25.5678C6.38834 26.0486 6.31236 26.2813 6.52679 26.2658ZM1.78109 25.7841C1.74973 25.7632 1.7105 25.771 1.66341 25.8076C1.61632 25.8441 1.61106 25.886 1.64764 25.9331C1.69464 26.0325 1.73912 25.9828 1.78109 25.7841Z" fill="white"/>
<path d="M23.0545 21.2178C23.0443 20.8936 23.1046 20.5824 23.2356 20.2844C23.5551 19.5682 23.9531 18.7683 24.4296 17.8848C24.6128 17.5763 24.6417 17.3802 24.5162 17.2965L24.3751 17.2022C24.4064 17.3592 24.5791 17.2024 24.8932 16.7319C25.2282 16.2301 25.3644 15.9582 25.3016 15.9163L25.1996 16.0183C25.1315 16.0862 25.0504 16.1567 24.9562 16.2299C24.8621 16.3031 24.7888 16.3448 24.7365 16.3553C24.5534 16.3918 24.229 16.6739 23.7632 17.2018C23.5015 17.5259 23.3 17.7428 23.1587 17.8525C22.9494 18.0302 22.8343 18.2027 22.8132 18.3701C23.1167 18.1192 23.3417 18.02 23.4881 18.0724C23.6135 18.1562 23.4826 18.3862 23.0954 18.7625C22.7029 19.1126 22.4884 19.3321 22.4517 19.421C22.0591 19.9071 21.719 20.2468 21.4312 20.4401C21.2324 20.5341 21.146 20.6465 21.1721 20.7773C21.1825 20.8296 20.9706 21.0622 20.5362 21.475C19.7303 22.3426 19.1965 22.8025 18.935 22.8546C18.3858 22.9641 18.0434 22.6788 17.9079 21.9989C17.8454 21.685 17.8456 21.4131 17.9085 21.183C17.9295 21.0157 18.0369 20.736 18.2306 20.3439C18.4401 19.8942 18.5162 19.5936 18.4587 19.4419L18.3803 19.4575C18.1188 19.5096 17.9147 19.6455 17.7681 19.865L16.5512 21.3312C14.7403 23.4323 13.3772 24.5741 12.4619 24.7566C11.9127 24.866 11.5677 24.5677 11.427 23.8616C11.3228 23.3385 11.4435 22.6483 11.7892 21.7908C12.1036 20.9124 12.3471 20.4289 12.5197 20.3401L12.5982 20.3244C12.729 20.2984 12.9094 20.3168 13.1394 20.3797C13.3957 20.4374 13.5604 20.5133 13.6335 20.6075C13.6753 20.6808 13.5444 20.9788 13.2407 21.5016C12.9109 22.0295 12.772 22.4923 12.824 22.8898L12.8396 22.9682C12.8657 23.099 12.931 23.154 13.0356 23.1331C13.1141 23.1175 13.2554 23.0077 13.4595 22.8039C13.6636 22.6001 13.7787 22.4956 13.8048 22.4904C15.0084 21.4347 16.076 20.3111 17.0077 19.1193C17.798 18.1732 18.3789 17.5408 18.7505 17.222C19.1795 16.919 19.4046 16.6838 19.4256 16.5165C19.4152 16.4642 19.614 16.2342 20.0222 15.8265C20.3624 15.4868 20.6372 15.1602 20.8466 14.8465C21.2863 14.1879 21.7415 13.8796 22.2122 13.9217C22.1389 13.9635 22.1101 14.0237 22.1257 14.1021C22.1414 14.1806 22.2276 14.2722 22.3844 14.3769C22.536 14.4554 22.3893 14.8789 21.9443 15.6474L20.279 18.9567L19.6271 20.1879C19.5224 20.3447 19.4779 20.4624 19.4935 20.5408C19.5196 20.6716 19.8492 20.4155 20.4824 19.7727L24.8549 15.312C25.8283 14.3295 26.4588 13.7415 26.7466 13.5482C26.935 13.4019 27.1128 13.3393 27.2802 13.3603C27.5364 13.418 27.6017 13.5409 27.476 13.7291C27.3713 13.886 27.3948 14.0036 27.5464 14.0822C27.6928 14.1346 27.6377 14.4039 27.3811 14.8901C27.1507 15.3711 26.7056 16.2075 26.0459 17.3995C25.5904 18.1157 25.3705 18.513 25.3861 18.5914C25.3966 18.6437 25.3075 18.811 25.1191 19.0933C25.0092 19.224 24.9175 19.3782 24.8442 19.556C24.797 19.7285 24.7446 19.8749 24.687 19.9952L24.4592 20.4892L24.7966 20.3404C25.0216 20.2412 25.4088 19.9329 25.9582 19.4155C26.5077 18.8981 27.931 17.6491 30.2282 15.6686L31.2093 14.8612C31.2355 14.856 31.2931 14.8038 31.382 14.7045C31.4972 14.5999 31.6149 14.5085 31.7352 14.4301C31.8556 14.3518 31.968 14.3022 32.0726 14.2813C32.1772 14.2605 32.2426 14.3154 32.2686 14.4462C32.3103 14.6554 32.0669 15.003 31.5384 15.489C30.5912 16.4664 29.2906 17.854 27.6368 19.652C26.7105 20.7339 26.0275 21.4682 25.5879 21.8549C25.1745 22.2364 24.7978 22.4611 24.4578 22.5288C24.3009 22.5601 24.1493 22.5495 24.0029 22.4971C23.7938 22.4029 23.5821 22.2275 23.3678 21.9711C23.1745 21.6834 23.0701 21.4323 23.0545 21.2178ZM21.973 19.6796C21.9521 19.575 21.8815 19.5618 21.7612 19.6402C21.6461 19.7447 21.6591 19.8101 21.8003 19.8363C21.9311 19.8103 21.9886 19.758 21.973 19.6796Z" fill="white"/>
<path d="M37.1711 12.6941C37.0975 13.2798 36.7859 13.8314 36.2364 14.3487C35.8492 14.725 34.9126 15.4147 33.4267 16.4179C31.9826 17.3583 31.0069 17.9198 30.4995 18.1025C30.2432 18.1808 30.0365 18.3715 29.8794 18.6748C29.7171 18.9518 29.6646 19.2342 29.7219 19.5219C29.8314 20.0711 30.2261 20.2779 30.9061 20.1424C31.3245 20.059 31.9262 19.7351 32.711 19.1709C34.1027 18.2409 35.2487 17.3055 36.1488 16.3648C36.3739 16.1296 36.5831 16.0199 36.7766 16.0357L36.7922 16.1142C36.8183 16.2449 36.779 16.3887 36.6743 16.5455C36.161 17.6539 34.9338 18.9318 32.9926 20.3791C32.4275 20.818 31.8703 21.0922 31.3211 21.2017C31.0596 21.2538 30.6961 21.2719 30.2307 21.2559C29.3521 21.2135 28.8347 20.8 28.6783 20.0154C28.5219 19.2308 28.8652 18.1563 29.7081 16.7919C30.6033 15.4171 31.5349 14.2933 32.503 13.4206C33.3037 12.6628 33.9865 12.1324 34.5515 11.8295C35.0433 11.5683 35.4722 11.4013 35.8384 11.3283L36.1993 11.2972C36.445 11.3025 36.6672 11.4622 36.8657 11.7761C37.059 12.0639 37.1608 12.3699 37.1711 12.6941ZM36.5593 12.4898C36.5227 12.4427 36.4914 12.3538 36.4654 12.223C36.4341 12.0661 36.4132 11.9615 36.4028 11.9092C36.361 11.8359 36.2982 11.862 36.2145 11.9875C36.1935 12.0189 36.1203 11.9927 35.9949 11.9089C35.8642 11.799 35.791 11.8408 35.7752 12.0343C35.728 12.2068 35.2989 12.5778 34.4879 13.1474C33.3891 13.9102 32.3451 14.9476 31.3558 16.2596C31.1673 16.5419 31.0783 16.7092 31.0888 16.7615C31.094 16.7876 31.1358 16.7929 31.2143 16.7772C31.3137 16.7302 31.4471 16.6493 31.6145 16.5343C31.8081 16.4142 32.0383 16.2731 32.3051 16.1112L32.3443 16.1034L32.4856 15.9936L32.5327 16.025C32.4908 16.0878 32.3861 16.1766 32.2187 16.2915L32.0774 16.4013C32.0146 16.4954 32.0015 16.566 32.0381 16.6131L32.1872 16.5426C32.1715 16.4641 32.2814 16.4014 32.5168 16.3545C32.522 16.3807 32.5246 16.3937 32.5246 16.3937C32.5455 16.3624 32.5664 16.331 32.5874 16.2996C32.5979 16.216 32.6424 16.1663 32.7208 16.1507L32.7601 16.1429C32.7914 16.1638 33.0347 16.0201 33.4899 15.7119L34.416 15.0379L34.2591 15.0691L34.2043 14.9985C34.1886 14.92 34.2279 14.8442 34.3221 14.7711C34.4163 14.6979 34.4895 14.6561 34.5418 14.6457C34.5889 14.6091 34.6674 14.5255 34.7773 14.3948C34.9134 14.259 35.005 14.1727 35.052 14.1362C35.4235 13.9534 35.6772 13.794 35.8133 13.6581C35.9284 13.5536 36.0488 13.4073 36.1744 13.2191L36.5512 12.8585C36.5931 12.7957 36.5958 12.6728 36.5593 12.4898ZM34.9654 14.7244C34.934 14.7035 34.8948 14.7113 34.8477 14.7479C34.8006 14.7845 34.7614 14.7923 34.73 14.7714L34.6201 14.834C34.573 14.8706 34.5469 14.8758 34.5417 14.8497L34.4868 14.779L34.4396 14.9516C34.4553 15.03 34.5337 15.0144 34.675 14.9047C34.7273 14.8943 34.7796 14.8838 34.8319 14.8734C34.8581 14.8682 34.8685 14.8525 34.8633 14.8264C34.8477 14.7479 34.8712 14.7296 34.934 14.7715C34.9601 14.7663 34.9706 14.7506 34.9654 14.7244ZM34.2824 15.3908C34 15.4743 33.4899 15.7799 32.7521 16.3076C32.7364 16.3651 32.7547 16.3887 32.807 16.3782L33.5054 15.9943C34.0862 15.6338 34.3452 15.4327 34.2824 15.3908Z" fill="white"/>
<path d="M43.0681 17.6368C42.943 17.0092 43.035 16.3111 43.3441 15.5425L43.7525 14.7269C44.1295 14.0264 44.4647 13.3886 44.7579 12.8135C45.0512 12.2384 45.169 11.943 45.1115 11.9273C45.0802 11.9063 45.0252 11.9037 44.9468 11.9193C44.8422 11.9402 44.7035 12.063 44.5308 12.2877C44.3528 12.4864 44.2508 12.5883 44.2246 12.5935L42.4112 14.5456L41.4064 15.6432C39.0198 18.4029 37.4473 19.8584 36.6888 20.0095C36.1396 20.119 35.7895 19.7945 35.6383 19.0361C35.5341 18.513 35.6548 17.8228 36.0005 16.9653C36.3149 16.0869 36.5584 15.6033 36.731 15.5146L36.8095 15.4989C36.9664 15.4676 37.1599 15.4835 37.39 15.5464C37.6462 15.6041 37.7978 15.6826 37.8448 15.782C37.8866 15.8553 37.7557 16.1533 37.452 16.676C37.1535 17.225 37.0277 17.6851 37.0745 18.0564L37.098 18.1741C37.124 18.3049 37.2025 18.3572 37.3332 18.3312C37.4117 18.3155 37.5085 18.2555 37.6236 18.151C39.6069 16.2329 41.3889 14.3279 42.9696 12.4358C43.8437 11.3642 44.5423 10.6404 45.0656 10.2642L45.6464 9.69976C46.4105 8.89488 46.9468 8.51608 47.2553 8.56335C47.5011 8.56875 47.6266 8.58452 47.6319 8.61067C47.6632 8.63161 47.6292 8.66558 47.5298 8.71259C47.467 8.80668 47.4382 8.8668 47.4434 8.89295C47.4486 8.91911 47.608 9.03688 47.9217 9.24628C47.8798 9.30901 47.8065 9.48677 47.7017 9.77957C47.6178 10.041 47.5445 10.2188 47.4817 10.3129C47.3037 10.5115 46.9922 10.995 46.5472 11.7635L45.7539 13.3084L45.1962 14.3984C44.9081 14.9996 44.7509 15.5068 44.7245 15.9199L44.7086 16.2494C44.7346 16.3802 44.8261 16.4299 44.983 16.3986C45.1399 16.3674 45.2419 16.3334 45.289 16.2969L45.2812 16.2576C45.6633 15.8552 46.4822 15.121 47.7381 14.0549C47.7852 14.0184 47.8898 13.9295 48.052 13.7884L50.5559 11.6171L51.537 10.8098C51.872 10.4439 52.1597 10.2506 52.4003 10.2298C52.5311 10.2038 52.6095 10.2561 52.6356 10.3869C52.6773 10.5961 52.4338 10.9437 51.9053 11.4297C50.1993 13.1021 49.0925 14.1657 48.5849 14.6203L47.2426 15.8667L45.6569 17.5287L45.5549 17.6306C44.9216 18.2735 44.4691 18.5948 44.1971 18.5946C43.6218 18.5733 43.2455 18.2541 43.0681 17.6368ZM43.9581 12.2795C44.471 11.7151 44.9184 11.2996 45.3004 11.0331C45.5829 10.8137 45.7975 10.5941 45.9441 10.3746L46.164 10.0453C46.1379 9.9145 45.5859 10.3508 44.5079 11.3542C43.4299 12.3576 42.9039 12.9247 42.93 13.0555C42.9612 13.2124 43.304 12.9537 43.9581 12.2795Z" fill="white"/>
<path d="M50.3978 17.3996C50.0684 17.2477 49.8647 16.9756 49.7865 16.5833C49.6614 15.9557 49.7953 15.0588 50.1883 13.8929C50.3823 13.2288 50.8484 12.157 51.5868 10.6775L52.2387 9.44631C52.7311 8.36931 53.3016 7.68459 53.9502 7.39215C53.9764 7.38694 54.1386 7.31383 54.4368 7.17283L54.8921 6.59263C54.9131 6.56126 54.9889 6.53255 55.1197 6.50648C55.2766 6.47521 55.5145 6.50936 55.8335 6.60894C56.2884 6.70861 56.6465 6.86835 56.9079 7.08818C57.0803 7.27134 57.2057 7.55906 57.2838 7.95134C57.3568 8.31747 57.3592 8.6025 57.2911 8.80641L57.2124 9.22997L57.9343 8.96373C58.5201 8.76539 59.2918 8.40767 60.2492 7.89056C60.5735 7.74434 60.9136 7.5406 61.2694 7.27935C61.3217 7.26893 61.4394 7.17748 61.6226 7.00502C61.8319 6.82735 61.9862 6.71501 62.0856 6.66801C62.4623 6.51137 62.7552 6.4122 62.9644 6.3705C63.069 6.34965 63.2573 6.33932 63.5293 6.3395C64.0993 6.33465 64.5123 6.56503 64.7683 7.03065C64.8623 7.22944 64.9119 7.34192 64.9171 7.36807C64.9848 7.70805 64.9193 7.99303 64.7204 8.22301C64.6209 8.40598 64.4874 8.55494 64.32 8.66988L63.9432 9.03049C63.645 9.30747 63.3755 9.45634 63.1349 9.47709L63.0487 9.4535C62.9911 9.43778 62.9755 9.35932 63.0018 9.21813L63.2294 8.92803C63.2504 8.89667 63.2949 8.84701 63.3629 8.77907C63.4309 8.71113 63.478 8.67455 63.5042 8.66934C63.6612 8.50209 63.7502 8.3348 63.7712 8.16746C63.8236 8.02106 63.842 7.90863 63.8264 7.83018C63.7951 7.67326 63.6853 7.59997 63.497 7.61031C63.4395 7.59458 63.2983 7.63632 63.0733 7.73554C62.2311 8.14813 61.6451 8.55043 61.3153 8.94245L60.9464 9.34228C60.0567 10.1994 59.2743 11.1167 58.599 12.0942C58.5833 12.1517 58.3974 12.4471 58.0414 12.9803C57.7012 13.4559 57.5362 13.8559 57.5464 14.1802L57.6172 13.9213C57.57 14.0939 57.5568 14.2325 57.5777 14.3371C57.5881 14.3894 57.6247 14.4365 57.6874 14.4784L57.7737 14.5019C57.8312 14.5177 57.8731 14.5229 57.8992 14.5177C58.485 14.4554 58.9898 14.2596 59.4136 13.9304C59.4607 13.8938 59.5654 13.805 59.7276 13.6639C59.8898 13.5228 60.0546 13.3948 60.222 13.2798C60.4104 13.1335 60.5804 13.0316 60.7322 12.9742L61.3915 12.3941C62.4643 11.3646 63.9112 10.0973 65.7321 8.59238L66.674 7.79285C67.0089 7.42699 67.3098 7.23107 67.5765 7.2051C67.6288 7.19468 67.6889 7.22348 67.7569 7.29151C67.898 7.45373 67.6598 7.8275 67.0423 8.41282C65.4043 10.0173 64.2844 11.0834 63.6826 11.6112L62.7564 12.4892C61.244 13.9054 59.9516 14.9244 58.8791 15.546C58.5861 15.7132 58.3089 15.8228 58.0474 15.8749C57.812 15.9219 57.5923 15.9112 57.3884 15.8431C57.012 15.7278 56.7586 15.3433 56.6283 14.6895C56.4771 13.931 56.5325 13.2538 56.7943 12.6578C57.0144 12.1245 57.2971 11.6331 57.6426 11.1836L58.0038 10.5406C58.297 10.1014 58.4697 9.87668 58.522 9.86626C58.3651 9.89753 58.0879 10.0072 57.6903 10.1952C57.3136 10.3518 57.0861 10.438 57.0076 10.4536C56.6833 10.5998 56.4085 10.8585 56.1834 11.2297C55.7121 12.1393 55.1755 12.994 54.5736 13.7938C54.5317 13.8565 54.393 14.0473 54.1574 14.3662C53.948 14.6798 53.7125 14.9987 53.4508 15.3228C53.2152 15.6416 52.998 15.916 52.7991 16.146C52.1606 16.8987 51.5667 17.3297 51.0175 17.4392C50.8083 17.4809 50.6017 17.4677 50.3978 17.3996ZM56.2166 8.53113C56.3057 8.29585 56.3267 8.06053 56.2798 7.82516C56.2277 7.56363 56.0604 7.40663 55.7781 7.35415L55.5819 7.39324C55.4512 7.4193 55.3596 7.50553 55.3072 7.65193C55.2286 7.80354 55.205 7.9578 55.2363 8.11472C55.2257 8.33436 55.2412 8.54879 55.2829 8.75801C55.3715 9.2026 55.5152 9.44588 55.7139 9.48785C55.7714 9.50357 55.8394 9.43563 55.918 9.28402C55.9965 9.13241 56.0725 8.96772 56.1458 8.78996L56.2166 8.53113ZM53.7583 12.9774C54.6953 11.5399 55.1718 10.7243 55.1876 10.5308C55.2086 10.3635 55.1564 10.2379 55.031 10.1542C54.9369 10.0914 54.8402 9.94748 54.741 9.72254C54.6679 9.49238 54.5897 9.23607 54.5062 8.95361C54.4436 8.63978 54.4097 8.46979 54.4045 8.44364C54.0801 8.72583 53.7058 9.23548 53.2817 9.9726C52.0199 12.2362 51.1714 14.1184 50.7363 15.6191C50.6891 15.7916 50.676 15.9302 50.6968 16.0348C50.7124 16.1132 50.7595 16.1447 50.838 16.129C50.9426 16.1082 51.1466 15.9723 51.4501 15.7215C52.5858 14.4619 53.3552 13.5472 53.7583 12.9774ZM57.6731 12.3603C58.2334 11.3513 58.8642 10.4914 59.5654 9.78066C59.6544 9.68135 59.6466 9.64213 59.542 9.66298C59.3589 9.69946 59.1208 9.86927 58.8278 10.1724C58.5138 10.5069 58.163 10.9983 57.7756 11.6465C57.3672 12.3261 57.1709 12.7051 57.1865 12.7836C57.2126 12.9143 57.1759 13.0032 57.0765 13.0502C56.9823 13.1234 56.9666 13.1809 57.0293 13.2228C57.092 13.2647 57.3067 12.9772 57.6731 12.3603ZM51.201 12.8345C51.2586 12.7143 51.2822 12.628 51.2718 12.5757C51.2613 12.5234 51.2169 12.505 51.1384 12.5207C51.06 12.5363 51.0338 12.6095 51.0599 12.7403C51.0807 12.8449 51.0492 12.9599 50.9655 13.0854C50.8608 13.2422 50.8346 13.3154 50.8869 13.305C50.9131 13.2998 50.9575 13.2501 51.0204 13.156C51.0832 13.0619 51.1434 12.9548 51.201 12.8345ZM50.871 13.6344C50.8606 13.5821 50.8397 13.5455 50.8083 13.5246C50.6933 13.4931 50.6383 13.5585 50.6434 13.7206C50.6329 13.8043 50.6303 13.8592 50.6355 13.8853C50.6407 13.9115 50.6668 13.9063 50.7139 13.8697C50.8343 13.7913 50.8866 13.7129 50.871 13.6344Z" fill="white"/>
<path d="M75.0056 13.841C74.9587 13.6056 75.0087 13.2422 75.1554 12.7507C75.2079 12.4683 75.4122 11.9245 75.7684 11.1194C76.046 10.4659 76.3 9.96658 76.5303 9.62157L76.931 8.76677L77.9443 6.68861C78.714 5.23002 79.1199 4.40137 79.1619 4.20267C79.0363 4.25488 78.9055 4.34893 78.7695 4.48482C78.6334 4.6207 78.4999 4.76966 78.3691 4.93169C78.233 5.06758 78.1414 5.15381 78.0943 5.19039C78.0682 5.1956 78.0002 5.26354 77.8903 5.39421C77.7803 5.52488 77.6574 5.65816 77.5213 5.79404C77.38 5.90377 77.244 5.97167 77.1132 5.99773C77.0086 6.01858 76.9432 6.0996 76.917 6.24079C76.8646 6.38718 76.7599 6.47602 76.603 6.50729C76.4722 6.53336 76.3231 6.67185 76.1556 6.92276C75.988 7.17368 75.8781 7.30435 75.8258 7.31478C75.7526 7.35657 75.5145 7.59436 75.1115 8.02816L73.8083 9.47071C73.1803 10.1397 72.7511 10.6467 72.5208 10.9917C71.9135 11.9013 71.3482 12.6122 70.8249 13.1243C70.783 13.1871 70.7229 13.2262 70.6444 13.2419C70.4352 13.2836 70.349 13.192 70.3857 12.9671C70.3753 12.9148 70.3884 12.8443 70.4251 12.7554C70.4565 12.6403 70.4697 12.5697 70.4645 12.5436C70.4854 12.5122 70.4854 12.4442 70.4646 12.3396C70.4542 12.2873 70.4072 12.1879 70.3236 12.0414C70.2609 11.8636 70.2349 11.7328 70.2454 11.6492C70.256 11.4295 70.3477 11.1393 70.5205 10.7786L70.7484 10.2845C71.2878 9.17094 71.8689 8.19859 72.4918 7.36747C72.5546 7.27338 72.5887 7.17142 72.594 7.0616C72.5523 6.85238 72.4268 6.76862 72.2176 6.81032L72.1392 6.82596C72.0607 6.84159 71.9744 6.88599 71.8802 6.95914C71.7808 7.00614 71.6866 7.0793 71.5977 7.1786C71.5296 7.24654 71.4825 7.28312 71.4564 7.28833L70.6636 8.01736C70.3548 8.37801 70.046 8.67067 69.7373 8.89534C69.528 9.07302 69.1329 9.47806 68.552 10.1105L67.1232 11.7412C66.6574 12.2691 66.4166 12.5618 66.4009 12.6193C66.359 12.6821 66.2334 12.7343 66.0242 12.776C65.7575 12.8019 65.6163 12.8437 65.6005 12.9012C65.59 12.9849 65.5455 13.0345 65.4671 13.0502C65.3363 13.0762 65.1873 13.0108 65.0201 12.8538C64.8528 12.6967 64.7588 12.5659 64.7379 12.4613C64.759 12.158 64.7905 11.975 64.8324 11.9123C65.1732 10.6207 65.8777 8.97122 66.9459 6.9637L69.2395 2.50947C69.6009 1.73048 69.86 1.32534 70.017 1.29407L70.0954 1.27843C70.1477 1.268 70.1895 1.27326 70.2209 1.2942C70.2784 1.30993 70.3255 1.34134 70.3621 1.38843L70.3777 1.46689C70.4143 1.51398 70.4194 1.60812 70.3932 1.74931L70.401 1.78854C70.4637 1.83041 70.5213 1.84614 70.5736 1.83572L70.7461 1.8829C70.8716 1.96666 70.9212 2.07913 70.8949 2.22032L70.6907 2.6281C70.6434 2.93663 70.5858 3.12486 70.5177 3.1928C70.4129 3.62158 70.2479 4.02154 70.0227 4.39271C69.7923 4.87369 69.3629 5.65264 68.7347 6.72956C68.7189 6.78707 68.609 6.98573 68.4048 7.32553C68.2006 7.66533 67.999 8.0182 67.8 8.38415C67.6272 8.74489 67.5015 9.06905 67.4229 9.35664C67.5536 9.33058 67.708 9.21824 67.8859 9.01963C69.1628 7.78625 70.4605 6.65749 71.7791 5.63333C71.8733 5.56017 72.0172 5.46352 72.2108 5.34336C72.2317 5.312 72.3075 5.28329 72.4383 5.25722C72.6475 5.21553 72.8462 5.2575 73.0344 5.38313C73.3795 5.4775 73.4553 5.58476 73.2617 5.70492C73.1466 5.80944 73.1805 5.91144 73.3635 6.01093C73.4942 6.12084 73.5777 6.26733 73.6142 6.45039C73.6663 6.71192 73.6086 6.96814 73.4411 7.21905C73.3155 7.40724 73.2605 7.54056 73.2761 7.61902C73.2604 7.67654 73.1687 7.89874 73.0011 8.28563C72.776 8.6568 72.6948 8.86332 72.7575 8.9052C72.7889 8.92614 73.0139 8.75894 73.4325 8.40359C73.7569 8.1214 74.0029 7.85484 74.1704 7.60393C74.2071 7.51504 74.4609 7.28772 74.9318 6.92195C75.3766 6.56139 75.6382 6.37329 75.7166 6.35766C75.8474 6.33159 75.905 6.27933 75.8893 6.20088C75.8685 6.09627 76.0019 5.94731 76.2897 5.754C76.5775 5.56069 76.8522 5.302 77.1139 4.97793C77.3547 4.68522 77.5875 4.48926 77.8125 4.39004L77.9223 4.32736C78.0008 4.31172 77.9615 4.38753 77.8045 4.55478L77.5612 4.76642C76.3 5.94228 75.7086 6.59037 75.787 6.71071L75.8262 6.70289C75.9308 6.68204 76.1035 6.59325 76.3442 6.43652C76.5848 6.27979 76.7366 6.15437 76.7994 6.06028L77.4587 5.48021C78.4634 4.65458 79.1542 3.95948 79.5311 3.39492C79.6986 3.144 79.7039 3.03418 79.547 3.06545L79.4764 3.12032L78.8485 3.65334C78.545 3.90416 78.3409 4.04 78.2363 4.06085C78.1055 4.08691 78.2207 3.91441 78.5818 3.54333C78.7388 3.37609 78.9639 3.1409 79.2569 2.83776C79.3982 2.72803 79.4819 2.67056 79.5081 2.66535L79.5473 2.65753C79.6153 2.58959 79.8586 2.51392 80.277 2.43052L80.5672 2.45425C80.7868 2.60083 80.9226 2.80488 80.9747 3.0664C81.1415 3.90327 80.6282 5.2156 79.4346 7.00339L78.822 8.02279C77.8483 9.54923 77.1466 10.8039 76.7171 11.7868C76.3191 12.6547 76.1251 13.4547 76.135 14.1869C76.1245 14.2706 76.1401 14.417 76.1818 14.6262C76.2235 14.8354 76.2469 15.0211 76.2521 15.1832C76.252 15.3192 76.1996 15.3976 76.095 15.4185C76.0165 15.4341 75.8832 15.3791 75.695 15.2535C75.3552 15.0493 75.1254 14.5785 75.0056 13.841Z" fill="white"/>
<path d="M80.9923 9.38485C80.9245 9.04487 80.8959 8.83304 80.9064 8.74938C80.8442 7.89165 81.2843 6.75709 82.2266 5.34568L82.9021 4.02822C83.4206 2.94601 83.7636 2.27944 83.9311 2.02852C84.1719 1.59984 84.622 1.19745 85.2812 0.821346C85.9404 0.445242 86.3589 0.293857 86.5366 0.367192C86.6202 0.513681 86.6227 0.662731 86.5442 0.814341C86.4918 0.960741 86.3138 1.22734 86.0102 1.61414C85.5915 2.10546 85.068 2.82159 84.4398 3.76253L83.8665 4.77411L83.5841 4.78961L83.5527 4.83666C83.5004 4.84708 83.4638 4.86798 83.4428 4.89934C83.4219 4.9307 83.448 4.99348 83.5211 5.08766C83.678 5.19236 83.8322 5.216 83.9839 5.15857C84.1618 5.09593 84.4232 5.1118 84.7683 5.20616C85.1396 5.29532 85.3775 5.39745 85.482 5.51258C85.6231 5.6748 85.7145 5.86051 85.7562 6.06973C85.9545 6.79157 85.6217 7.78239 84.758 9.04219C83.9204 10.2968 83.1433 10.9683 82.4268 11.0567C82.1914 11.1036 82.011 11.0852 81.8855 11.0014C81.462 10.7867 81.1643 10.2479 80.9923 9.38485ZM83.1129 5.49531C83.0815 5.61035 83.0684 5.68094 83.0736 5.70709C83.0788 5.73325 83.0945 5.74371 83.1206 5.7385C83.1729 5.72808 83.254 5.65753 83.3639 5.52686C83.4739 5.39619 83.5236 5.3047 83.5132 5.2524C83.4975 5.17394 83.4505 5.14253 83.372 5.15817C83.2936 5.1738 83.2072 5.28619 83.1129 5.49531ZM83.4401 8.97855C83.7646 8.56039 84.0762 8.00886 84.3747 7.32396C84.6367 6.59196 84.6971 6.14486 84.556 5.98264C84.509 5.88324 84.3809 5.8544 84.1717 5.89609C83.6748 5.99513 83.2745 6.30603 82.9708 6.82881C82.6356 7.60259 82.3894 8.27707 82.2321 8.85224C82.0015 9.60517 81.9437 9.99736 82.0587 10.0288C82.1215 10.0707 82.3046 9.96622 82.6081 9.7154C82.9377 9.45936 83.2151 9.21374 83.4401 8.97855ZM82.5786 6.907C82.5524 6.91221 82.5001 6.99062 82.4215 7.14223C82.3378 7.26769 82.2697 7.40362 82.2173 7.55002L82.1309 7.73038C82.1936 7.77226 82.3009 7.62852 82.4528 7.29914L82.5786 6.907ZM82.0052 7.91857C81.9529 7.929 81.911 7.99173 81.8796 8.10676C81.8429 8.19564 81.8193 8.28192 81.8088 8.36559C81.8245 8.44404 81.861 8.49114 81.9185 8.50686C81.9813 8.54874 82.0572 8.45204 82.1462 8.21676C82.2353 7.98148 82.1883 7.88209 82.0052 7.91857Z" fill="white"/>
<path d="M52.1116 45.2892C52.081 44.0445 52.325 42.813 52.8436 41.5948C53.2155 40.7322 53.8516 39.6265 54.7521 38.2778C55.7362 36.8037 56.7122 35.9022 57.6799 35.5734C58.2291 35.4639 58.5979 35.336 58.7863 35.1897C59.1054 35.0174 59.2154 34.6827 59.1164 34.1858C59.0851 34.0289 58.9468 33.6758 58.7013 33.1265C58.3776 32.3209 57.842 31.6799 57.0945 31.2035L56.4985 30.8736L55.651 31.3281L55.3214 31.5161C55.2011 31.4585 55.0573 31.4192 54.89 31.3982C54.4193 31.356 54.1501 31.1649 54.0824 30.825L54.0983 30.4955L54.3651 30.4015L55.5186 29.8453C56.6539 29.1296 57.6035 28.6413 58.3672 28.3803L60.3211 27.5422C60.342 27.5108 60.7814 27.3281 61.6393 26.994C62.4763 26.6912 63.287 26.4616 64.0716 26.3053C64.9346 26.1332 65.6407 26.0605 66.1898 26.087C66.6291 26.1082 67.0631 26.1713 67.4919 26.2761C67.9416 26.3497 68.1743 26.4256 68.1899 26.5041C68.2004 26.5564 68.1794 26.5878 68.1271 26.5982L67.829 26.5352C67.1075 26.3256 66.0014 26.3693 64.5107 26.6664C63.36 26.8957 62.2223 27.2585 61.0975 27.7545L59.3398 28.5535C57.9849 29.1227 57.3205 29.4726 57.3466 29.6034C57.3256 29.6347 57.3439 29.6583 57.4014 29.674C57.3805 29.7054 57.3465 29.7393 57.2994 29.7759C57.2209 29.7916 57.1111 29.8542 56.9698 29.964L56.9776 30.0032C56.988 30.0555 57.0848 30.0634 57.2678 30.0269C57.294 30.0217 57.4849 29.9565 57.8406 29.8312L58.5469 29.4865L58.7822 29.4396L58.7194 29.5337C58.6461 29.7114 58.4682 29.8421 58.1857 29.9256C57.3959 30.1918 57.0139 30.3902 57.04 30.521C57.0504 30.5733 57.1759 30.6571 57.4164 30.7723C57.7929 30.8876 58.3416 31.39 59.0628 32.2795C59.439 32.8028 59.6505 33.1141 59.6976 33.2135C59.802 33.4646 59.9011 33.8255 59.9949 34.2962L60.1824 35.4417L59.7737 36.6652L59.255 38.1553C59.2026 38.3017 59.1136 38.469 58.9879 38.6572C58.8048 38.8296 58.6922 39.0152 58.6502 39.2139C58.6187 39.4649 58.472 39.8205 58.2102 40.2805L56.3177 43.2681L55.509 44.3266C55.2681 44.7552 55.0954 44.98 54.9908 45.0009C54.9123 45.0165 54.8835 45.0766 54.9044 45.1812C54.9304 45.312 54.742 45.5263 54.3391 45.8241C53.9572 46.0906 53.6354 46.2499 53.3739 46.302C53.0339 46.3697 52.7385 46.3199 52.4876 46.1523C52.2576 45.9535 52.1323 45.6657 52.1116 45.2892ZM65.1223 27.0747C65.1642 27.012 65.1982 26.978 65.2243 26.9728C65.3028 26.9572 65.4283 26.9729 65.6008 27.0201C65.6061 27.0463 65.559 27.0829 65.4596 27.1299C65.2765 27.1663 65.1641 27.148 65.1223 27.0747ZM66.5814 27.0286C66.3199 27.0808 66.1813 27.0676 66.1657 26.9891C66.15 26.9107 66.273 26.8454 66.5345 26.7933C67.1622 26.6682 67.6119 26.6737 67.8838 26.8098C68.0615 26.8832 68.1556 26.946 68.1661 26.9983C68.1713 27.0245 68.1477 27.0427 68.0954 27.0532C67.9908 27.074 67.813 27.0687 67.562 27.0371C67.1436 26.9845 66.8168 26.9817 66.5814 27.0286ZM63.6943 27.4817L64.3455 27.2703C64.424 27.2547 64.4684 27.273 64.4789 27.3253C64.4997 27.4299 64.1963 27.5448 63.5687 27.6699C63.3594 27.7116 63.2391 27.722 63.2078 27.701L63.5374 27.513L63.6943 27.4817ZM59.975 28.8756C60.1581 28.8391 60.4353 28.7294 60.8068 28.5466L61.3561 28.2332L61.2697 28.4136C61.1911 28.5652 61.11 28.6358 61.0264 28.6252C60.6602 28.6982 60.1946 28.8862 59.6296 29.1891C59.436 29.3093 59.3314 29.3301 59.3158 29.2517C59.2845 29.0948 59.5043 28.9694 59.975 28.8756ZM58.9235 29.3299C58.9079 29.2514 58.9524 29.2018 59.057 29.1809L59.1825 29.1967C59.1877 29.2228 59.1589 29.2829 59.0961 29.377C59.0751 29.4084 59.0359 29.4162 58.9784 29.4005C58.947 29.3796 58.9287 29.356 58.9235 29.3299ZM56.3975 41.2128L57.1829 39.8327C57.8111 38.7558 58.1752 37.8539 58.2751 37.127L58.2516 37.0093C58.2151 36.8263 58.142 36.7321 58.0322 36.7268L57.9929 36.7346C57.9668 36.7398 57.8961 36.7947 57.781 36.8992C57.6868 36.9723 57.6136 37.0141 57.5613 37.0246C57.509 37.035 57.441 37.0349 57.3573 37.0244C57.2736 37.0139 57.2187 37.0113 57.1926 37.0165L57.0984 37.1576C57.0303 37.2255 56.9047 37.4137 56.7214 37.7222C56.533 38.0044 56.3314 38.2893 56.1168 38.5768C55.9232 38.833 55.7478 39.0447 55.5908 39.2119C55.1146 39.6875 54.6932 40.2337 54.3267 40.8506C53.8869 41.6452 53.5543 42.4321 53.3289 43.2112C53.182 43.9746 53.1189 44.4086 53.1398 44.5132C53.171 44.6702 53.2651 44.733 53.422 44.7017C53.5789 44.6704 53.7385 44.5842 53.9007 44.4432C54.1571 44.2289 54.5628 43.7402 55.1176 42.977C55.7719 42.1668 56.1985 41.5788 56.3975 41.2128ZM59.13 37.3237C59.0883 37.1145 59.0098 37.1301 58.8946 37.3706C58.8317 37.6007 58.8264 37.7105 58.8787 37.7001C58.9049 37.6949 58.9441 37.687 58.9964 37.6766C59.0644 37.6087 59.109 37.491 59.13 37.3237ZM58.5487 38.5C58.5017 38.4006 58.4521 38.3561 58.3998 38.3665L58.3133 38.5469C58.2505 38.641 58.2976 38.6724 58.4545 38.6411C58.6114 38.6099 58.6428 38.5628 58.5487 38.5Z" fill="white"/>
<path d="M67.0583 49.9781C66.7183 50.0459 66.4438 49.9646 66.2348 49.7344C66.0675 49.5774 65.8742 49.2216 65.655 48.6671C65.4357 48.1126 65.3157 47.6471 65.295 47.2705C65.1962 46.5017 65.3695 45.3931 65.815 43.9447C66.1137 42.9879 66.8129 41.4482 67.9126 39.3256C68.5043 38.2016 68.7688 37.6187 68.7061 37.5768C68.6747 37.5559 68.4654 37.6655 68.0783 37.9059C67.7434 38.1357 67.3039 38.3865 66.7599 38.6581L64.6646 39.8098C63.974 40.165 63.5712 40.3948 63.4561 40.4994C63.3409 40.6039 63.2519 40.7712 63.189 41.0012C63.1103 41.4248 62.8903 41.9581 62.529 42.6011C62.22 43.2337 61.8902 43.6937 61.5396 43.9811C60.9588 44.4776 60.6292 44.7336 60.5507 44.7492C60.4461 44.7701 60.2945 44.6915 60.0959 44.5136C59.8345 44.2938 59.7144 44.1002 59.7354 43.9328L59.7198 43.8544C59.7093 43.8021 59.6492 43.7733 59.5394 43.768C59.4557 43.7575 59.4113 43.7391 59.4061 43.713C59.3747 43.692 59.3486 43.6293 59.3278 43.5247C59.3225 43.4985 59.3279 43.3207 59.3438 42.9912C59.412 42.6513 59.585 42.0866 59.8627 41.2971C60.5855 39.6032 61.3736 38.0321 62.227 36.5841C62.248 36.5527 62.3291 36.4142 62.4705 36.1685C62.6067 35.8966 62.748 35.6509 62.8946 35.4313C63.0621 35.1804 63.2008 34.9896 63.3108 34.859C63.4572 34.7754 63.5436 34.731 63.5697 34.7258C63.6168 34.6892 63.7319 34.6527 63.915 34.6162C64.4903 34.5015 64.9007 34.6508 65.1463 35.0641L65.2168 35.2132C65.248 35.3702 64.9995 35.6236 64.471 35.9737C64.2461 36.0729 63.9006 36.5904 63.4345 37.5262C63.0471 38.1745 62.8271 38.5718 62.7748 38.7182C62.7433 38.8332 62.7824 38.9614 62.8922 39.1026C62.9234 39.2596 63.0437 39.3172 63.2529 39.2755C63.436 39.239 63.7708 39.0771 64.2573 38.7898C66.7162 37.484 68.4951 36.3137 69.594 35.2789C69.9604 34.934 70.2638 34.7512 70.5044 34.7304C70.6875 34.6939 70.86 34.7411 71.022 34.8719C71.205 34.9714 71.286 35.1048 71.265 35.2722C71.2597 35.382 71.2047 35.5153 71.1 35.6721C70.121 37.1724 69.05 39.4388 67.887 42.4713L66.7712 45.2633C66.373 46.2671 66.1895 47.0515 66.2205 47.6163C66.2048 47.6738 66.2308 47.8726 66.2985 48.2125C66.4236 48.8402 66.5803 49.2168 66.7685 49.3425C66.9043 49.4785 67.0324 49.5074 67.1528 49.429C67.362 49.3873 67.4378 49.4946 67.3801 49.7508C67.3748 49.8606 67.2675 49.9364 67.0583 49.9781ZM68.9565 38.4242C69.3597 37.7184 69.5744 37.363 69.6005 37.3577C69.7051 37.3369 69.7234 37.2925 69.6555 37.2244C69.593 36.9106 69.3103 37.266 68.8076 38.2907C68.4619 39.0122 68.3048 39.3834 68.3362 39.4044C68.3675 39.4253 68.4146 39.3887 68.4774 39.2946C68.5403 39.2005 68.6109 39.0777 68.6895 38.9261C68.7942 38.7692 68.8832 38.602 68.9565 38.4242ZM62.539 39.377C62.4449 39.3141 62.3848 39.2853 62.3586 39.2906C62.3377 39.3219 62.335 39.3768 62.3507 39.4553C62.3559 39.4814 62.3742 39.505 62.4055 39.5259C62.4369 39.5469 62.463 39.5417 62.484 39.5103C62.5624 39.4947 62.5808 39.4502 62.539 39.377ZM60.6615 43.2588C60.7033 43.3321 60.7661 43.306 60.8498 43.1805C60.9336 43.055 61.0278 42.9819 61.1324 42.961C61.2841 42.9036 61.5693 42.5612 61.9881 41.934C62.4069 41.3067 62.5431 40.9668 62.3967 40.9144L61.9182 40.969L61.722 41.0081C61.539 41.0446 61.3741 41.2406 61.2274 41.5961C60.7456 42.5895 60.557 43.1437 60.6615 43.2588ZM67.9982 40.369C68.1815 39.9246 68.2601 39.705 68.234 39.7102C68.1399 39.6474 68.0012 39.8382 67.8178 40.2826C67.6031 40.7061 67.5271 40.9388 67.5899 40.9806C67.6212 41.0016 67.6474 40.9964 67.6683 40.965C67.7102 40.9023 67.7626 40.8239 67.8254 40.7298C67.8882 40.6357 67.9458 40.5154 67.9982 40.369ZM67.1891 42.0394C67.2675 42.0238 67.2989 41.9767 67.2833 41.8983C67.2677 41.8198 67.2337 41.7858 67.1814 41.7962C67.1552 41.8014 67.1238 41.8485 67.0872 41.9374C67.1028 42.0158 67.1368 42.0498 67.1891 42.0394ZM66.8119 43.0119L66.8591 42.8393C66.8434 42.7609 66.7597 42.8183 66.6079 43.0117C66.5608 43.0483 66.5294 43.0954 66.5137 43.1529C66.5189 43.179 66.5372 43.2026 66.5686 43.2235C66.6522 43.234 66.7333 43.1635 66.8119 43.0119ZM66.3483 44.1647L66.3955 43.9922C66.3694 43.8614 66.3276 43.8562 66.27 43.9764C66.2542 44.0339 66.249 44.0758 66.2542 44.1019C66.2385 44.1594 66.2463 44.1987 66.2776 44.2196C66.309 44.2405 66.3326 44.2223 66.3483 44.1647Z" fill="white"/>
<path d="M80.7016 42.5684C80.6546 42.333 80.7046 41.9696 80.8513 41.4781C80.9038 41.1957 81.1081 40.652 81.4643 39.8468C81.7419 39.1933 81.9959 38.694 82.2262 38.349L82.6269 37.4942L83.6402 35.416C84.41 33.9574 84.8158 33.1288 84.8578 32.9301C84.7322 32.9823 84.6014 33.0764 84.4654 33.2122C84.3293 33.3481 84.1958 33.4971 84.065 33.6591C83.9289 33.795 83.8374 33.8812 83.7903 33.9178C83.7641 33.923 83.6961 33.991 83.5862 34.1216C83.4763 34.2523 83.3533 34.3856 83.2172 34.5215C83.0759 34.6312 82.9399 34.6991 82.8091 34.7252C82.7045 34.746 82.6391 34.827 82.6129 34.9682C82.5605 35.1146 82.4558 35.2034 82.2989 35.2347C82.1681 35.2608 82.019 35.3993 81.8515 35.6502C81.684 35.9011 81.574 36.0318 81.5217 36.0422C81.4485 36.084 81.2104 36.3218 80.8074 36.7556L79.5042 38.1981C78.8762 38.8671 78.447 39.3741 78.2167 39.7191C77.6094 40.6287 77.0442 41.3396 76.5208 41.8518C76.479 41.9145 76.4188 41.9537 76.3403 41.9693C76.1311 42.011 76.0449 41.9194 76.0816 41.6946C76.0712 41.6423 76.0843 41.5717 76.121 41.4828C76.1525 41.3678 76.1656 41.2972 76.1604 41.271C76.1813 41.2396 76.1814 41.1717 76.1605 41.0671C76.1501 41.0147 76.1031 40.9154 76.0195 40.7689C75.9569 40.591 75.9308 40.4602 75.9413 40.3766C75.9519 40.1569 76.0436 39.8667 76.2165 39.506L76.4443 39.0119C76.9837 37.8984 77.5648 36.926 78.1877 36.0949C78.2506 36.0008 78.2846 35.8988 78.2899 35.789C78.2482 35.5798 78.1228 35.496 77.9135 35.5377L77.8351 35.5534C77.7566 35.569 77.6703 35.6134 77.5761 35.6866C77.4767 35.7336 77.3825 35.8067 77.2936 35.906C77.2255 35.974 77.1785 36.0105 77.1523 36.0158L76.3595 36.7448C76.0507 37.1054 75.742 37.3981 75.4333 37.6228C75.2239 37.8004 74.8288 38.2055 74.2479 38.8379L72.8191 40.4686C72.3533 40.9965 72.1125 41.2892 72.0968 41.3468C72.0549 41.4095 71.9294 41.4617 71.7201 41.5034C71.4534 41.5294 71.3122 41.5711 71.2965 41.6286C71.2859 41.7123 71.2415 41.762 71.163 41.7776C71.0322 41.8037 70.8832 41.7382 70.716 41.5812C70.5487 41.4242 70.4547 41.2934 70.4338 41.1888C70.455 40.8854 70.4865 40.7024 70.5283 40.6397C70.8691 39.3482 71.5736 37.6986 72.6418 35.6911L74.9354 31.2369C75.2968 30.4579 75.556 30.0528 75.7129 30.0215L75.7913 30.0059C75.8436 29.9954 75.8855 30.0007 75.9168 30.0216C75.9743 30.0374 76.0214 30.0688 76.058 30.1159L76.0736 30.1943C76.1102 30.2414 76.1154 30.3355 76.0891 30.4767L76.0969 30.516C76.1597 30.5578 76.2172 30.5736 76.2695 30.5631L76.442 30.6103C76.5675 30.6941 76.6171 30.8066 76.5909 30.9477L76.3866 31.3555C76.3393 31.6641 76.2817 31.8523 76.2137 31.9202C76.1088 32.349 75.9438 32.749 75.7187 33.1201C75.4882 33.6011 75.0589 34.3801 74.4306 35.457C74.4148 35.5145 74.3049 35.7132 74.1007 36.053C73.8965 36.3928 73.6949 36.7456 73.496 37.1116C73.3231 37.4723 73.1974 37.7965 73.1188 38.0841C73.2495 38.058 73.4039 37.9457 73.5818 37.7471C74.8587 36.5137 76.1564 35.3849 77.475 34.3608C77.5692 34.2876 77.7131 34.1909 77.9067 34.0708C77.9276 34.0394 78.0035 34.0107 78.1342 33.9846C78.3434 33.943 78.5422 33.9849 78.7303 34.1106C79.0754 34.2049 79.1512 34.3122 78.9576 34.4323C78.8425 34.5369 78.8764 34.6389 79.0594 34.7383C79.1901 34.8483 79.2736 34.9948 79.3101 35.1778C79.3623 35.4393 79.3046 35.6956 79.137 35.9465C79.0114 36.1347 78.9564 36.268 78.972 36.3464C78.9563 36.404 78.8646 36.6262 78.697 37.0131C78.4719 37.3842 78.3907 37.5907 78.4534 37.6326C78.4848 37.6536 78.7098 37.4864 79.1284 37.131C79.4528 36.8488 79.6988 36.5823 79.8663 36.3313C79.903 36.2425 80.1568 36.0151 80.6277 35.6494C81.0725 35.2888 81.3341 35.1007 81.4126 35.0851C81.5433 35.059 81.6009 35.0068 81.5852 34.9283C81.5644 34.8237 81.6979 34.6747 81.9856 34.4814C82.2734 34.2881 82.5481 34.0294 82.8098 33.7054C83.0506 33.4126 83.2834 33.2167 83.5084 33.1175L83.6183 33.0548C83.6967 33.0391 83.6574 33.115 83.5004 33.2822L83.2571 33.4938C81.996 34.6697 81.4046 35.3178 81.4829 35.4381L81.5222 35.4303C81.6268 35.4095 81.7994 35.3207 82.0401 35.1639C82.2808 35.0072 82.4325 34.8818 82.4953 34.7877L83.1547 34.2076C84.1593 33.382 84.8501 32.6869 85.227 32.1223C85.3945 31.8714 85.3998 31.7616 85.2429 31.7929L85.1723 31.8477L84.5444 32.3808C84.2409 32.6316 84.0368 32.7674 83.9322 32.7883C83.8015 32.8143 83.9166 32.6418 84.2777 32.2708C84.4347 32.1035 84.6598 31.8683 84.9528 31.5652C85.0941 31.4555 85.1778 31.398 85.204 31.3928L85.2432 31.385C85.3112 31.317 85.5545 31.2413 85.9729 31.1579L86.2631 31.1817C86.4827 31.3283 86.6185 31.5323 86.6707 31.7938C86.8375 32.6307 86.3241 33.943 85.1305 35.7308L84.5179 36.7502C83.5442 38.2767 82.8426 39.5313 82.4131 40.5142C82.015 41.3821 81.821 42.1821 81.831 42.9143C81.8204 42.998 81.836 43.1444 81.8777 43.3536C81.9194 43.5629 81.9428 43.7485 81.948 43.9107C81.9479 44.0466 81.8955 44.1251 81.7909 44.1459C81.7125 44.1615 81.5791 44.1065 81.391 43.9809C81.0512 43.7767 80.8214 43.3059 80.7016 42.5684Z" fill="white"/>
<path d="M86.6882 38.1123C86.6205 37.7723 86.5918 37.5605 86.6023 37.4768C86.5402 36.6191 86.9802 35.4845 87.9225 34.0731L88.598 32.7556C89.1165 31.6734 89.4595 31.0069 89.627 30.7559C89.8679 30.3273 90.3179 29.9249 90.9771 29.5488C91.6363 29.1727 92.0548 29.0213 92.2325 29.0946C92.3161 29.2411 92.3186 29.3902 92.2401 29.5418C92.1877 29.6882 92.0097 29.9548 91.7061 30.3416C91.2874 30.8329 90.764 31.549 90.1358 32.49L89.5624 33.5015L89.28 33.517L89.2486 33.5641C89.1963 33.5745 89.1597 33.5954 89.1387 33.6268C89.1178 33.6581 89.1439 33.7209 89.217 33.8151C89.3739 33.9198 89.5281 33.9434 89.6798 33.886C89.8577 33.8234 90.1192 33.8392 90.4643 33.9336C90.8355 34.0227 91.0734 34.1249 91.1779 34.24C91.319 34.4022 91.4104 34.5879 91.4521 34.7972C91.6504 35.519 91.3176 36.5098 90.4539 37.7696C89.6163 39.0242 88.8392 39.6957 88.1227 39.7841C87.8873 39.831 87.7069 39.8126 87.5814 39.7289C87.158 39.5142 86.8602 38.9753 86.6882 38.1123ZM88.8089 34.2227C88.7774 34.3378 88.7643 34.4084 88.7695 34.4345C88.7747 34.4607 88.7904 34.4711 88.8165 34.4659C88.8688 34.4555 88.95 34.385 89.0599 34.2543C89.1698 34.1236 89.2195 34.0321 89.2091 33.9798C89.1935 33.9014 89.1464 33.87 89.068 33.8856C88.9895 33.9012 88.9031 34.0136 88.8089 34.2227ZM89.136 37.706C89.4605 37.2878 89.7721 36.7363 90.0706 36.0514C90.3326 35.3194 90.393 34.8723 90.2519 34.7101C90.2049 34.6107 90.0768 34.5818 89.8676 34.6235C89.3707 34.7226 88.9704 35.0335 88.6668 35.5562C88.3315 36.33 88.0853 37.0045 87.928 37.5797C87.6974 38.3326 87.6396 38.7248 87.7547 38.7562C87.8174 38.7981 88.0005 38.6936 88.304 38.4428C88.6336 38.1868 88.911 37.9412 89.136 37.706ZM88.2745 35.6344C88.2483 35.6396 88.196 35.718 88.1174 35.8697C88.0337 35.9951 87.9656 36.131 87.9132 36.2774L87.8268 36.4578C87.8895 36.4997 87.9968 36.3559 88.1487 36.0266L88.2745 35.6344ZM87.7011 36.646C87.6488 36.6564 87.607 36.7192 87.5755 36.8342C87.5388 36.9231 87.5153 37.0093 87.5047 37.093C87.5204 37.1715 87.5569 37.2186 87.6145 37.2343C87.6772 37.2762 87.7531 37.1795 87.8422 36.9442C87.9312 36.7089 87.8842 36.6095 87.7011 36.646Z" fill="white"/>
<path d="M115.074 28.7024L114.289 29.4706C113.357 30.3905 111.62 31.9739 109.077 34.221C108.648 34.5241 108.42 34.6782 108.394 34.6834C108.263 34.7095 108.007 34.8557 107.625 35.1222C107.269 35.3834 107.078 35.5167 107.052 35.5219C106.613 35.7726 106.131 35.9501 105.608 36.0544C105.53 36.07 105.25 36.0986 104.769 36.1401C104.168 36.124 103.817 35.8675 103.718 35.3706C103.609 34.8214 103.8 34.0763 104.292 33.1353C104.549 32.5131 104.929 31.8256 105.431 31.0729C106.169 30.0013 107.104 28.9586 108.234 27.9447C109.553 26.6486 110.706 25.8885 111.695 25.6643C111.904 25.6226 112.038 25.6096 112.095 25.6253C112.487 25.6831 112.738 25.9866 112.848 26.5358C112.873 26.8025 112.847 27.0797 112.769 27.3673C112.711 27.6235 112.598 27.877 112.431 28.128C112.263 28.3789 112.114 28.5854 111.983 28.7474C111.852 28.9094 111.698 29.0898 111.52 29.2884L111.245 29.5471C110.973 29.9548 110.667 30.1925 110.327 30.2603C110.222 30.2812 110.139 30.2706 110.076 30.2288C110.045 30.2078 110.024 30.1712 110.013 30.1189C109.987 29.9881 110.115 29.813 110.398 29.5936C110.445 29.557 110.471 29.4158 110.477 29.17C110.508 28.919 110.584 28.7543 110.705 28.6759C110.929 28.5767 111.094 28.4487 111.199 28.2919C111.33 28.1298 111.471 27.8841 111.623 27.5548L111.812 27.0685C111.848 26.8437 111.807 26.7024 111.686 26.6448C111.592 26.582 111.48 26.5636 111.349 26.5897C111.088 26.6418 110.823 26.8168 110.556 27.1148C109.882 27.5484 109.439 27.922 109.23 28.2357C109.209 28.267 109.186 28.2853 109.159 28.2905C109.133 28.2957 109.118 28.2853 109.112 28.2591C109.086 28.1284 109.018 28.1283 108.908 28.259C108.856 28.2694 108.825 28.3844 108.814 28.6041C108.762 28.7505 108.584 28.9491 108.28 29.1999C108.05 29.409 107.54 30.0545 106.749 31.1365C106.686 31.2306 106.61 31.3953 106.521 31.6306C106.453 31.8345 106.375 31.9861 106.286 32.0854C106.265 32.1168 106.218 32.0854 106.145 31.9912C106.077 31.9232 106.003 31.897 105.925 31.9126C105.873 31.923 105.823 32.0145 105.776 32.1871C105.755 32.3544 105.697 32.4746 105.603 32.5478L105.438 32.7438C105.454 32.8223 105.524 32.9034 105.65 32.9871C105.618 33.2381 105.474 33.6067 105.217 34.0929C105.008 34.4066 104.922 34.6549 104.958 34.838C104.995 35.0211 105.196 35.0761 105.562 35.0031C105.824 34.951 105.991 34.9041 106.064 34.8623C107.325 34.3663 108.816 33.3213 110.538 31.7274L113.175 29.4071L114.502 28.2862C114.528 28.281 114.609 28.2105 114.745 28.0746C114.881 27.9387 115.02 27.8159 115.161 27.7062C115.328 27.5912 115.464 27.5233 115.569 27.5025C115.7 27.4764 115.778 27.5288 115.804 27.6595C115.846 27.8687 115.602 28.2164 115.074 28.7024ZM108.842 33.86L108.92 33.8444C109.077 33.8131 109.208 33.7191 109.313 33.5622L109.156 33.5935L109.211 33.4602C109.012 33.5542 108.889 33.6875 108.842 33.86ZM107.1 34.7375L107.178 34.7218C107.309 34.6958 107.387 34.6121 107.414 34.4709L107.139 34.5257C107.05 34.625 107.037 34.6956 107.1 34.7375ZM106.872 34.8236L106.786 34.8L106.817 34.753C106.718 34.8 106.493 34.8992 106.143 35.0506C106.027 35.1551 105.991 35.244 106.033 35.3172L106.158 35.333C106.21 35.3226 106.25 35.3148 106.276 35.3096C106.323 35.273 106.357 35.239 106.378 35.2077C106.425 35.1711 106.461 35.1502 106.488 35.145L106.652 35.1529C106.757 35.1321 106.807 35.1086 106.801 35.0824C106.849 35.0458 106.88 34.9988 106.896 34.9413C106.911 34.8838 106.904 34.8445 106.872 34.8236Z" fill="white"/>
<path d="M112.976 33.8109C112.757 32.7125 112.962 31.4889 113.591 30.14C115.513 26.2765 116.814 24.277 117.494 24.1415C117.572 24.1258 117.745 24.173 118.011 24.283C118.278 24.393 118.461 24.4245 118.56 24.3775C118.691 24.3515 118.892 24.4065 119.164 24.5427C119.462 24.6736 119.656 24.8254 119.744 24.998C119.781 25.0451 119.815 25.1471 119.846 25.304C119.924 25.6963 119.783 26.35 119.421 27.2649C119.332 27.5002 119.251 27.7747 119.177 28.0884L118.902 28.959C119.263 28.8599 119.677 28.6824 120.142 28.4264C120.629 28.1391 121.039 27.8805 121.374 27.6506C121.735 27.4155 122.094 27.1673 122.449 26.9061C122.831 26.6396 123.046 26.4881 123.093 26.4515C123.119 26.4463 123.19 26.3914 123.305 26.2869C123.42 26.1824 123.538 26.091 123.658 26.0126C123.799 25.9029 123.922 25.8376 124.027 25.8167C124.079 25.8063 124.139 25.8351 124.207 25.9031C124.348 26.0654 124.11 26.4391 123.493 27.0244L122.472 28.0436C121.269 29.2352 120.206 29.9771 119.286 30.2693L119.05 30.3162C118.684 30.3892 118.295 30.4125 117.882 30.3861L117.465 31.1624C116.884 32.3387 116.342 33.2353 115.84 33.852C115.363 34.4636 114.824 34.8293 114.223 34.9492C113.569 35.0795 113.154 34.7001 112.976 33.8109ZM118.025 27.6248L118.417 26.7308C118.643 26.2237 118.74 25.8917 118.708 25.7347C118.667 25.5255 118.421 25.7241 117.971 26.3304C117.494 26.942 117.128 27.5589 116.871 28.181C116.923 28.4426 117.09 28.6676 117.373 28.856C117.519 28.7724 117.737 28.3621 118.025 27.6248ZM119.547 26.2609C119.568 26.3655 119.621 26.3551 119.704 26.2296C119.746 26.1669 119.728 26.1433 119.649 26.159C119.566 26.1485 119.532 26.1824 119.547 26.2609ZM119.139 27.6883L119.178 27.4766C119.178 27.3406 119.12 27.3249 119.005 27.4294C118.979 27.4346 118.956 27.4529 118.935 27.4842C118.767 27.5992 118.689 27.6828 118.699 27.7351C118.725 27.7299 118.793 27.73 118.903 27.7353C119.013 27.7406 119.091 27.7249 119.139 27.6883ZM115.252 32.3376L116.328 30.7773C116.475 30.5577 116.538 30.3956 116.517 30.291C116.501 30.2126 116.431 30.0635 116.305 29.8437C116.023 29.6553 115.853 29.4172 115.796 29.1295C115.764 29.1086 115.715 29.1321 115.647 29.2C115.605 29.2628 115.534 29.3856 115.435 29.5686C115.356 29.7202 115.259 29.9163 115.144 30.1567C114.819 30.8469 114.542 31.5684 114.311 32.3213C114.07 33.0219 114.054 33.3514 114.263 33.3097C114.514 33.2053 114.844 32.8813 115.252 32.3376ZM118.385 28.6135L118.346 28.6213C118.189 28.6526 118.17 28.765 118.29 28.9586C118.411 28.8802 118.487 28.7835 118.518 28.6685C118.461 28.6528 118.416 28.6344 118.385 28.6135ZM117.772 29.4289C117.83 29.5806 117.911 29.5781 118.016 29.4213C118.052 29.3324 118.018 29.2984 117.914 29.3192C117.835 29.3349 117.788 29.3714 117.772 29.4289ZM117.215 30.1111C117.178 30.1999 117.165 30.2705 117.176 30.3228C117.207 30.4798 117.264 30.4275 117.348 30.1661C117.38 30.051 117.393 29.9804 117.388 29.9543C117.362 29.8235 117.304 29.8758 117.215 30.1111ZM116.398 31.7422C116.361 31.6951 116.343 31.6716 116.343 31.6716C116.364 31.6402 116.416 31.6298 116.5 31.6403L116.579 31.6247C116.657 31.609 116.775 31.4496 116.932 31.1464C117.084 30.817 117.186 30.6471 117.238 30.6367C117.29 30.6262 117.311 30.5949 117.301 30.5426C117.181 30.485 117.024 30.4483 116.83 30.4324C116.721 30.4271 116.658 30.4532 116.642 30.5108C116.647 30.5369 116.673 30.5997 116.72 30.6991L116.799 30.8874C116.809 30.9397 116.788 30.9711 116.736 30.9815L116.618 31.005C116.357 31.0571 116.184 31.2818 116.1 31.6792C116.048 31.8256 116.027 31.925 116.037 31.9773C116.058 32.0819 116.178 32.0715 116.398 31.9462C116.497 31.8992 116.497 31.8312 116.398 31.7422ZM114.616 33.4433C114.511 33.6001 114.485 33.6733 114.538 33.6629C114.668 33.6368 114.773 33.548 114.852 33.3964C114.888 33.3075 114.891 33.2526 114.86 33.2317C114.828 33.2107 114.747 33.2813 114.616 33.4433ZM115.409 33.1222C115.278 33.1483 115.27 33.177 115.385 33.2085C115.416 33.2294 115.458 33.2347 115.511 33.2243C115.668 33.193 115.675 33.1642 115.534 33.138L115.409 33.1222ZM114.906 33.671C114.828 33.8226 114.807 33.922 114.843 33.969C114.901 33.9848 114.971 33.9299 115.055 33.8045C115.139 33.679 115.15 33.5953 115.087 33.5534C115.05 33.5064 114.99 33.5455 114.906 33.671Z" fill="white"/>
<path d="M122.064 31.3471C122.033 30.1024 122.277 28.871 122.796 27.6528C123.168 26.7901 123.804 25.6844 124.704 24.3358C125.689 22.8616 126.664 21.9601 127.632 21.6313C128.181 21.5218 128.55 21.394 128.739 21.2477C129.058 21.0753 129.168 20.7407 129.069 20.2438C129.037 20.0868 128.899 19.7337 128.654 19.1845C128.33 18.3789 127.794 17.7379 127.047 17.2614L126.451 16.9316L125.603 17.386L125.274 17.5741C125.153 17.5164 125.01 17.4771 124.842 17.4561C124.372 17.4139 124.102 17.2229 124.035 16.8829L124.051 16.5534L124.317 16.4595L125.471 15.9033C126.606 15.1876 127.556 14.6992 128.319 14.4382L130.273 13.6001C130.294 13.5688 130.734 13.386 131.592 13.0519C132.429 12.7491 133.239 12.5196 134.024 12.3632C134.887 12.1912 135.593 12.1184 136.142 12.1449C136.581 12.1662 137.015 12.2292 137.444 12.3341C137.894 12.4076 138.127 12.4836 138.142 12.562C138.153 12.6143 138.132 12.6457 138.079 12.6561L137.781 12.5932C137.06 12.3835 135.954 12.4272 134.463 12.7243C133.312 12.9537 132.175 13.3164 131.05 13.8125L129.292 14.6115C127.937 15.1806 127.273 15.5305 127.299 15.6613C127.278 15.6927 127.296 15.7162 127.354 15.7319C127.333 15.7633 127.299 15.7973 127.252 15.8339C127.173 15.8495 127.063 15.9122 126.922 16.0219L126.93 16.0611C126.94 16.1134 127.037 16.1214 127.22 16.0849C127.246 16.0797 127.437 16.0144 127.793 15.8891L128.499 15.5444L128.735 15.4975L128.672 15.5916C128.598 15.7694 128.42 15.9 128.138 15.9835C127.348 16.2497 126.966 16.4482 126.992 16.5789C127.003 16.6312 127.128 16.715 127.369 16.8302C127.745 16.9455 128.294 17.4479 129.015 18.3375C129.391 18.8607 129.603 19.172 129.65 19.2714C129.754 19.5225 129.853 19.8834 129.947 20.3542L130.135 21.4996L129.726 22.7231L129.207 24.2132C129.155 24.3596 129.066 24.5269 128.94 24.7151C128.757 24.8876 128.644 25.0732 128.602 25.2719C128.571 25.5229 128.424 25.8784 128.162 26.3384L126.27 29.326L125.461 30.3845C125.22 30.8132 125.048 31.0379 124.943 31.0588C124.865 31.0744 124.836 31.1345 124.857 31.2392C124.883 31.3699 124.694 31.5842 124.291 31.882C123.909 32.1485 123.588 32.3078 123.326 32.3599C122.986 32.4277 122.691 32.3778 122.44 32.2103C122.21 32.0114 122.085 31.7237 122.064 31.3471ZM135.075 13.1327C135.116 13.0699 135.15 13.036 135.177 13.0307C135.255 13.0151 135.381 13.0309 135.553 13.0781C135.558 13.1042 135.511 13.1408 135.412 13.1878C135.229 13.2243 135.116 13.2059 135.075 13.1327ZM136.534 13.0866C136.272 13.1387 136.134 13.1255 136.118 13.0471C136.102 12.9686 136.225 12.9033 136.487 12.8512C137.114 12.7261 137.564 12.7316 137.836 12.8678C138.014 12.9411 138.108 13.0039 138.118 13.0562C138.124 13.0824 138.1 13.1007 138.048 13.1111C137.943 13.132 137.765 13.1266 137.514 13.0951C137.096 13.0425 136.769 13.0397 136.534 13.0866ZM133.647 13.5396L134.298 13.3283C134.376 13.3126 134.421 13.331 134.431 13.3833C134.452 13.4879 134.149 13.6027 133.521 13.7278C133.312 13.7695 133.191 13.7799 133.16 13.759L133.49 13.5709L133.647 13.5396ZM129.927 14.9335C130.11 14.897 130.388 14.7874 130.759 14.6046L131.308 14.2912L131.222 14.4715C131.143 14.6231 131.062 14.6937 130.979 14.6832C130.612 14.7561 130.147 14.9441 129.582 15.2471C129.388 15.3672 129.284 15.3881 129.268 15.3096C129.237 15.1527 129.457 15.0273 129.927 14.9335ZM128.876 15.3878C128.86 15.3093 128.905 15.2597 129.009 15.2388L129.135 15.2546C129.14 15.2808 129.111 15.3409 129.048 15.435C129.027 15.4663 128.988 15.4742 128.931 15.4584C128.899 15.4375 128.881 15.4139 128.876 15.3878ZM126.35 27.2708L127.135 25.8906C127.763 24.8137 128.127 23.9118 128.227 23.1849L128.204 23.0673C128.167 22.8842 128.094 22.79 127.984 22.7847L127.945 22.7925C127.919 22.7977 127.848 22.8526 127.733 22.9571C127.639 23.0303 127.566 23.0721 127.514 23.0825C127.461 23.0929 127.393 23.0929 127.31 23.0824C127.226 23.0718 127.171 23.0692 127.145 23.0744L127.051 23.2155C126.983 23.2835 126.857 23.4717 126.674 23.7801C126.485 24.0624 126.284 24.3473 126.069 24.6348C125.875 24.8909 125.7 25.1026 125.543 25.2698C125.067 25.7454 124.646 26.2917 124.279 26.9085C123.839 27.7032 123.507 28.49 123.281 29.2691C123.134 30.0325 123.071 30.4666 123.092 30.5712C123.123 30.7281 123.217 30.7909 123.374 30.7596C123.531 30.7284 123.691 30.6422 123.853 30.5011C124.109 30.2868 124.515 29.7981 125.07 29.035C125.724 28.2248 126.151 27.6367 126.35 27.2708ZM129.082 23.3816C129.041 23.1724 128.962 23.188 128.847 23.4285C128.784 23.6586 128.779 23.7684 128.831 23.758C128.857 23.7528 128.896 23.745 128.949 23.7345C129.017 23.6666 129.061 23.549 129.082 23.3816ZM128.501 24.5579C128.454 24.4585 128.404 24.4141 128.352 24.4245L128.266 24.6048C128.203 24.6989 128.25 24.7304 128.407 24.6991C128.564 24.6678 128.595 24.6208 128.501 24.5579Z" fill="white"/>
<path d="M129.066 30.6041C128.847 29.5057 129.052 28.2821 129.681 26.9332C131.602 23.0697 132.903 21.0702 133.583 20.9346C133.662 20.919 133.834 20.9662 134.101 21.0762C134.368 21.1862 134.551 21.2177 134.65 21.1707C134.781 21.1446 134.982 21.1997 135.254 21.3358C135.552 21.4668 135.745 21.6186 135.834 21.7912C135.871 21.8383 135.905 21.9403 135.936 22.0972C136.014 22.4895 135.872 23.1431 135.511 24.0581C135.422 24.2934 135.341 24.5679 135.267 24.8816L134.992 25.7522C135.353 25.6531 135.766 25.4755 136.232 25.2196C136.718 24.9323 137.129 24.6737 137.464 24.4438C137.825 24.2087 138.183 23.9605 138.539 23.6993C138.921 23.4328 139.136 23.2813 139.183 23.2447C139.209 23.2395 139.28 23.1846 139.395 23.0801C139.51 22.9756 139.628 22.8841 139.748 22.8058C139.889 22.696 140.012 22.6307 140.117 22.6099C140.169 22.5995 140.229 22.6283 140.297 22.6963C140.438 22.8585 140.2 23.2323 139.583 23.8176L138.562 24.8367C137.358 26.0283 136.296 26.7702 135.376 27.0625L135.14 27.1094C134.774 27.1824 134.385 27.2057 133.971 27.1792L133.555 27.9556C132.974 29.1319 132.432 30.0284 131.929 30.6452C131.453 31.2568 130.914 31.6225 130.313 31.7424C129.659 31.8727 129.243 31.4933 129.066 30.6041ZM134.114 24.418L134.507 23.524C134.732 23.0169 134.829 22.6848 134.798 22.5279C134.756 22.3187 134.511 22.5173 134.06 23.1236C133.584 23.7352 133.218 24.352 132.961 24.9742C133.013 25.2357 133.18 25.4607 133.462 25.6492C133.609 25.5656 133.826 25.1552 134.114 24.418ZM135.637 23.0541C135.658 23.1587 135.71 23.1482 135.794 23.0228C135.836 22.9601 135.818 22.9365 135.739 22.9521C135.656 22.9416 135.622 22.9756 135.637 23.0541ZM135.228 24.4815L135.268 24.2697C135.268 24.1338 135.21 24.118 135.095 24.2226C135.069 24.2278 135.045 24.2461 135.024 24.2774C134.857 24.3924 134.779 24.476 134.789 24.5283C134.815 24.5231 134.883 24.5231 134.993 24.5284C135.103 24.5337 135.181 24.5181 135.228 24.4815ZM131.342 29.1308L132.418 27.5704C132.564 27.3509 132.627 27.1888 132.606 27.0842C132.591 27.0057 132.52 26.8566 132.395 26.6369C132.113 26.4485 131.943 26.2104 131.886 25.9227C131.854 25.9018 131.804 25.9253 131.736 25.9932C131.695 26.0559 131.624 26.1788 131.524 26.3618C131.446 26.5134 131.349 26.7094 131.234 26.9499C130.909 27.64 130.631 28.3616 130.401 29.1145C130.16 29.8151 130.144 30.1446 130.353 30.1029C130.604 29.9985 130.934 29.6744 131.342 29.1308ZM134.475 25.4067L134.435 25.4145C134.278 25.4458 134.26 25.5582 134.38 25.7518C134.501 25.6734 134.576 25.5767 134.608 25.4617C134.55 25.446 134.506 25.4276 134.475 25.4067ZM133.862 26.2221C133.92 26.3738 134.001 26.3713 134.105 26.2144C134.142 26.1256 134.108 26.0915 134.003 26.1124C133.925 26.128 133.878 26.1646 133.862 26.2221ZM133.305 26.9042C133.268 26.9931 133.255 27.0637 133.265 27.116C133.297 27.2729 133.354 27.2207 133.438 26.9592C133.47 26.8442 133.483 26.7736 133.477 26.7475C133.451 26.6167 133.394 26.669 133.305 26.9042ZM132.488 28.5354C132.451 28.4883 132.433 28.4647 132.433 28.4647C132.454 28.4334 132.506 28.4229 132.59 28.4335L132.668 28.4178C132.747 28.4022 132.865 28.2428 133.022 27.9395C133.174 27.6102 133.276 27.4403 133.328 27.4298C133.38 27.4194 133.401 27.388 133.391 27.3357C133.271 27.2781 133.114 27.2414 132.92 27.2256C132.81 27.2203 132.748 27.2464 132.732 27.3039C132.737 27.3301 132.763 27.3929 132.81 27.4923L132.888 27.6806C132.899 27.7329 132.878 27.7642 132.826 27.7747L132.708 27.7981C132.446 27.8502 132.274 28.075 132.19 28.4724C132.137 28.6188 132.116 28.7182 132.127 28.7705C132.148 28.8751 132.268 28.8647 132.488 28.7393C132.587 28.6923 132.587 28.6243 132.488 28.5354ZM130.706 30.2365C130.601 30.3933 130.575 30.4665 130.627 30.4561C130.758 30.43 130.863 30.3412 130.941 30.1896C130.978 30.1007 130.981 30.0458 130.949 30.0248C130.918 30.0039 130.837 30.0744 130.706 30.2365ZM131.498 29.9154C131.368 29.9414 131.36 29.9702 131.475 30.0017C131.506 30.0226 131.548 30.0278 131.6 30.0174C131.757 29.9861 131.765 29.9574 131.624 29.9311L131.498 29.9154ZM130.996 30.4642C130.918 30.6158 130.897 30.7151 130.933 30.7622C130.991 30.7779 131.061 30.7231 131.145 30.5976C131.229 30.4722 131.239 30.3885 131.177 30.3466C131.14 30.2995 131.08 30.3387 130.996 30.4642Z" fill="white"/>
<path d="M143.22 18.3614C143.032 18.2357 142.904 18.0029 142.836 17.663C142.763 17.2968 142.808 17.0432 142.97 16.9021C143.153 16.7297 143.297 16.633 143.402 16.6122C143.663 16.56 143.741 16.6804 143.637 16.9732C143.616 17.1405 143.608 17.2372 143.613 17.2634C143.691 17.6557 143.905 17.9121 144.256 18.0326C144.287 18.0535 144.42 18.0406 144.656 17.9936C145.519 17.8216 146.494 17.3961 147.583 16.7169C147.975 16.5028 148.263 16.3774 148.446 16.3409C148.624 16.2783 148.726 16.3124 148.752 16.4431C148.773 16.5477 148.642 16.7778 148.359 17.1332C148.097 17.4573 147.799 17.7342 147.464 17.9641C146.878 18.4344 146.141 18.7582 145.251 18.9354C144.388 19.1074 143.847 19.0521 143.628 18.7696C143.419 18.5393 143.283 18.4033 143.22 18.3614ZM142.585 29.2964C142.502 29.1499 142.452 29.0374 142.436 28.959C142.353 28.5405 142.461 27.8529 142.759 26.8961C143.053 25.9131 143.273 25.3798 143.419 25.2962C143.461 25.2335 143.474 25.1629 143.459 25.0844C143.448 25.0321 143.404 25.0138 143.325 25.0294C143.221 25.0503 143.085 25.1861 142.917 25.4371C142.771 25.6566 142.315 26.1688 141.551 26.9737L140.217 28.4633C139.625 29.1794 139.123 29.6602 138.709 29.9057L138.302 29.7015C138.066 29.6124 137.93 29.4763 137.894 29.2933C137.858 29.1102 137.837 29.0056 137.831 28.9795C137.821 28.9272 137.779 28.9219 137.706 28.9637C137.586 29.0421 137.507 28.9897 137.471 28.8066C137.413 28.519 137.476 28.0849 137.66 27.5045C137.796 27.0967 138.155 26.3046 138.736 25.1283L139.946 22.6032L140.574 21.2543C140.936 20.3393 141.221 19.861 141.43 19.8193C141.483 19.8089 141.619 19.877 141.838 20.0235C142.079 20.1387 142.212 20.1937 142.238 20.1885L141.798 21.2551C140.829 23.4876 140.297 24.7764 140.203 25.1215C140.198 25.2313 140.151 25.2679 140.062 25.2312C140.13 25.0273 140.146 24.8338 140.109 24.6507C139.832 24.7604 139.712 24.9067 139.748 25.0898L139.897 25.6312L139.795 25.7331C139.701 25.8062 139.609 25.8925 139.52 25.9918C139.426 26.0649 139.35 26.1616 139.292 26.2819C139.23 26.376 139.206 26.4622 139.222 26.5407C139.201 26.5721 139.211 26.6244 139.253 26.6976L139.347 26.7604C139.399 27.022 139.451 27.1475 139.504 27.1371C139.608 27.1162 140.383 26.3637 141.827 24.8794L144.292 22.308C144.36 22.24 144.59 21.963 144.983 21.4769C145.375 20.9908 145.742 20.5779 146.082 20.2382C146.448 19.8932 146.72 19.7574 146.898 19.8308C147.228 19.8467 147.411 19.9462 147.447 20.1292C147.468 20.2339 147.138 20.8978 146.457 22.1211C145.771 23.3183 145.392 23.9378 145.319 23.9796C145.266 23.99 145.07 24.369 144.729 25.1166C143.797 27.1242 143.436 28.2432 143.645 28.4734C143.718 28.5676 144.006 28.3743 144.508 27.8935C145.037 27.4075 145.84 26.5948 146.918 25.4554L148.975 23.4956C149.681 22.811 150.382 22.2362 151.078 21.7712L152.75 20.5407C152.776 20.5355 152.847 20.4806 152.962 20.3761C153.077 20.2716 153.195 20.1801 153.315 20.1018C153.456 19.992 153.579 19.9268 153.684 19.9059C153.788 19.8851 153.854 19.94 153.88 20.0708C153.921 20.28 153.678 20.6276 153.149 21.1136L151.03 23.1675C148.973 25.1273 147.139 26.9068 145.527 28.5061C144.617 29.3945 144.031 29.8648 143.769 29.9169C143.403 29.9899 143.008 29.7831 142.585 29.2964ZM144.393 24.0417C144.309 24.0312 144.252 24.0834 144.22 24.1985C144.21 24.2821 144.231 24.3188 144.283 24.3083C144.314 24.3293 144.364 24.3058 144.432 24.2378C144.495 24.1437 144.482 24.0784 144.393 24.0417ZM143.725 25.3984C143.777 25.3879 143.853 25.2912 143.953 25.1083C144.11 24.8051 144.183 24.6273 144.173 24.575C144.168 24.5488 144.152 24.5384 144.126 24.5436C144.021 24.5644 143.906 24.6689 143.78 24.8571C143.655 25.0453 143.621 25.2153 143.678 25.367C143.683 25.3931 143.699 25.4036 143.725 25.3984ZM143.56 25.5944L143.482 25.814C143.403 25.9656 143.33 26.1434 143.262 26.3473C143.215 26.5198 143.194 26.6192 143.199 26.6453C143.214 26.7238 143.259 26.6741 143.332 26.4964C143.369 26.4075 143.403 26.3055 143.434 26.1905C143.55 25.814 143.592 25.6153 143.56 25.5944Z" fill="white"/>
<path d="M151.184 27.7866L151.105 27.8022C150.922 27.8387 150.752 27.8046 150.595 27.6999C150.465 27.59 150.452 27.4566 150.556 27.2998C150.598 27.2371 150.564 27.1351 150.455 26.9938C150.256 26.8158 150.243 26.6145 150.416 26.3897C150.615 26.1597 150.884 26.0109 151.224 25.9431C151.538 25.8806 151.784 25.9539 151.961 26.1633C152.082 26.3568 152.021 26.668 151.78 27.0966C151.581 27.4626 151.382 27.6926 151.184 27.7866Z" fill="white"/>
<path d="M154.057 27.2139L153.978 27.2296C153.795 27.2661 153.625 27.2319 153.469 27.1272C153.338 27.0173 153.325 26.884 153.43 26.7271C153.471 26.6644 153.438 26.5624 153.328 26.4211C153.129 26.2432 153.116 26.0418 153.289 25.8171C153.488 25.5871 153.757 25.4382 154.097 25.3705C154.411 25.3079 154.657 25.3813 154.835 25.5906C154.955 25.7842 154.894 26.0953 154.653 26.524C154.455 26.8899 154.256 27.1199 154.057 27.2139Z" fill="white"/>
</svg>
